<svg width="60" height="60" viewBox="0 0 250 250" fill="none" xmlns="http://www.w3.org/2000/svg">
<path d="M250 140L140 250L250 250L250 140Z" fill="url(#paint0_linear_384_18878)"/>
<mask id="path-2-inside-1_384_18878" fill="white">
<path fill-rule="evenodd" clip-rule="evenodd" d="M250 0L-4.37114e-05 250L140 250L250 140L250 0Z"/>
</mask>
<path fill-rule="evenodd" clip-rule="evenodd" d="M250 0L-4.37114e-05 250L140 250L250 140L250 0Z" fill="url(#paint1_linear_384_18878)"/>
<path d="M-4.37114e-05 250L-4.38862e-05 251L-2.41426 251L-0.707151 249.293L-4.37114e-05 250ZM250 0L249.293 -0.707107L251 -2.41421L251 1.74846e-07L250 0ZM140 250L140.707 250.707L140.414 251L140 251L140 250ZM250 140L251 140L251 140.414L250.707 140.707L250 140ZM-0.707151 249.293L249.293 -0.707107L250.707 0.707107L0.707064 250.707L-0.707151 249.293ZM140 251L-4.38862e-05 251L-4.35365e-05 249L140 249L140 251ZM139.293 249.293L249.293 139.293L250.707 140.707L140.707 250.707L139.293 249.293ZM251 1.74846e-07L251 140L249 140L249 -1.74846e-07L251 1.74846e-07Z" fill="url(#paint2_linear_384_18878)" mask="url(#path-2-inside-1_384_18878)"/>
<defs>
<linearGradient id="paint0_linear_384_18878" x1="250" y1="140" x2="140" y2="250" gradientUnits="userSpaceOnUse">
<stop stop-color="white" />
<stop offset="1" stop-color="white" />
</linearGradient>
<linearGradient id="paint1_linear_384_18878" x1="250" y1="0" x2="-4.37114e-05" y2="250" gradientUnits="userSpaceOnUse">
<stop stop-color="white" />
<stop offset="1" stop-color="white" />
</linearGradient>
<linearGradient id="paint2_linear_384_18878" x1="250" y1="140" x2="140" y2="250" gradientUnits="userSpaceOnUse">
<stop stop-color="white" />
<stop offset="1" stop-color="white" />
</linearGradient>
</defs>
</svg>
