<svg width="80" height="80" viewBox="0 0 250 250" fill="none" xmlns="http://www.w3.org/2000/svg">
<path d="M140 -2.88495e-05L250 110L250 0L140 -2.88495e-05Z" fill="url(#paint0_linear_384_18877)"/>
<mask id="path-2-inside-1_384_18877" fill="white">
<path fill-rule="evenodd" clip-rule="evenodd" d="M250 250L6.55671e-05 -6.55671e-05L140 -2.88495e-05L250 110L250 250Z"/>
</mask>
<path fill-rule="evenodd" clip-rule="evenodd" d="M250 250L6.55671e-05 -6.55671e-05L140 -2.88495e-05L250 110L250 250Z" fill="url(#paint1_linear_384_18877)"/>
<path d="M6.55671e-05 -6.55671e-05L6.58294e-05 -1.00007L-2.41415 -1.00007L-0.707042 0.707042L6.55671e-05 -6.55671e-05ZM250 250L249.293 250.707L251 252.414L251 250L250 250ZM140 -2.88495e-05L140.707 -0.707136L140.414 -1.00003L140 -1.00003L140 -2.88495e-05ZM250 110L251 110L251 109.586L250.707 109.293L250 110ZM-0.707042 0.707042L249.293 250.707L250.707 249.293L0.707173 -0.707173L-0.707042 0.707042ZM140 -1.00003L6.58294e-05 -1.00007L6.53048e-05 0.999934L140 0.999971L140 -1.00003ZM139.293 0.707079L249.293 110.707L250.707 109.293L140.707 -0.707136L139.293 0.707079ZM251 250L251 110L249 110L249 250L251 250Z" fill="url(#paint2_linear_384_18877)" mask="url(#path-2-inside-1_384_18877)"/>
<defs>
<linearGradient id="paint0_linear_384_18877" x1="250" y1="3.27826e-06" x2="195" y2="55" gradientUnits="userSpaceOnUse">
<stop stop-color="white" stop-opacity="0.32"/>
<stop offset="1" stop-color="white" stop-opacity="0.15"/>
</linearGradient>
<linearGradient id="paint1_linear_384_18877" x1="125" y1="125" x2="195" y2="55" gradientUnits="userSpaceOnUse">
<stop stop-color="white" stop-opacity="0.15"/>
<stop offset="1" stop-color="white" stop-opacity="0.5"/>
</linearGradient>
<linearGradient id="paint2_linear_384_18877" x1="194.5" y1="55.5" x2="125" y2="125" gradientUnits="userSpaceOnUse">
<stop stop-color="white"/>
<stop offset="1" stop-color="white" stop-opacity="0"/>
</linearGradient>
</defs>
</svg>
