<svg width="80" height="80" viewBox="0 0 250 250" fill="none" xmlns="http://www.w3.org/2000/svg">
<path fill-rule="evenodd" clip-rule="evenodd" d="M0 0.000131449L125 2.18557e-05L55 140L-2.44784e-05 140L0 0.000131449Z" fill="white" />
<mask id="path-2-inside-1_384_3479" fill="white">
<path fill-rule="evenodd" clip-rule="evenodd" d="M250 250L-4.37114e-05 250L110 250L55 140L-2.44784e-05 140L55 140L125 2.18557e-05L250 250Z"/>
</mask>
<path fill-rule="evenodd" clip-rule="evenodd" d="M250 250L-4.37114e-05 250L110 250L55 140L-2.44784e-05 140L55 140L125 2.18557e-05L250 250Z" fill="url(#paint0_linear_384_3479)"/>
<path d="M250 250L250 251L251.618 251L250.894 249.553L250 250ZM110 250L110 251L111.618 251L110.894 249.553L110 250ZM55 140L55.8944 139.553L55.618 139L55 139L55 140ZM55 140L55 141L55.618 141L55.8944 140.447L55 140ZM125 2.18557e-05L125.894 -0.447191L125 -2.23605L124.106 -0.447192L125 2.18557e-05ZM-4.38863e-05 251L250 251L250 249L-4.35366e-05 249L-4.38863e-05 251ZM-4.33314e-05 251L110 251L110 249L-4.40914e-05 249L-4.33314e-05 251ZM110.894 249.553L55.8944 139.553L54.1055 140.447L109.106 250.447L110.894 249.553ZM55 139L-2.31938e-05 139L-2.5763e-05 141L55 141L55 139ZM55 139L-2.4581e-05 139L-2.43758e-05 141L55 141L55 139ZM124.106 -0.447192L54.1056 139.553L55.8944 140.447L125.894 0.447235L124.106 -0.447192ZM250.894 249.553L125.894 -0.447191L124.106 0.447235L249.106 250.447L250.894 249.553Z" fill="url(#paint1_linear_384_3479)" mask="url(#path-2-inside-1_384_3479)"/>
<path d="M-1.9233e-05 250L110 250L55 140L0 140L-1.9233e-05 250Z" fill="url(#paint2_linear_384_3479)"/>
<defs>
<linearGradient id="paint0_linear_384_3479" x1="83" y1="196" x2="194" y2="138" gradientUnits="userSpaceOnUse">
<stop stop-color="white" />
<stop offset="1" stop-color="white" />
</linearGradient>
<linearGradient id="paint1_linear_384_3479" x1="125" y1="2.23027e-05" x2="110" y2="250" gradientUnits="userSpaceOnUse">
<stop stop-color="white"/>
<stop offset="1" stop-color="white" />
</linearGradient>
<linearGradient id="paint2_linear_384_3479" x1="55" y1="195" x2="-1.20262e-06" y2="250" gradientUnits="userSpaceOnUse">
<stop stop-color="white" />
<stop offset="1" stop-color="white" />
</linearGradient>
</defs>
</svg>
