<svg width="60" height="60" viewBox="0 0 250 250" fill="none" xmlns="http://www.w3.org/2000/svg">
<path fill-rule="evenodd" clip-rule="evenodd" d="M250 250L125 250L195 110L250 110L250 250Z" fill="white" fill-opacity="0.35"/>
<mask id="path-2-inside-1_384_3480" fill="white">
<path fill-rule="evenodd" clip-rule="evenodd" d="M4.37114e-05 -0.000196299L250 -0.000152588L140 -0.000110786L195 110L250 110L195 110L125 250L4.37114e-05 -0.000196299Z"/>
</mask>
<path fill-rule="evenodd" clip-rule="evenodd" d="M4.37114e-05 -0.000196299L250 -0.000152588L140 -0.000110786L195 110L250 110L195 110L125 250L4.37114e-05 -0.000196299Z" fill="url(#paint0_linear_384_3480)"/>
<path d="M4.37114e-05 -0.000196299L4.38863e-05 -1.0002L-1.61798 -1.0002L-0.894381 0.447008L4.37114e-05 -0.000196299ZM140 -0.000110786L140 -1.00011L138.382 -1.00011L139.106 0.447094L140 -0.000110786ZM195 110L194.106 110.447L194.382 111L195 111L195 110ZM195 110L195 109L194.382 109L194.106 109.553L195 110ZM125 250L124.106 250.447L125 252.236L125.894 250.447L125 250ZM250 -1.00015L4.38863e-05 -1.0002L4.35366e-05 0.999804L250 0.999847L250 -1.00015ZM250 -1.00015L140 -1.00011L140 0.999889L250 0.999847L250 -1.00015ZM139.106 0.447094L194.106 110.447L195.894 109.553L140.894 -0.44733L139.106 0.447094ZM195 111L250 111L250 109L195 109L195 111ZM195 111L250 111L250 109L195 109L195 111ZM125.894 250.447L195.894 110.447L194.106 109.553L124.106 249.553L125.894 250.447ZM-0.894381 0.447008L124.106 250.447L125.894 249.553L0.894468 -0.447416L-0.894381 0.447008Z" fill="url(#paint1_linear_384_3480)" mask="url(#path-2-inside-1_384_3480)"/>
<path d="M250 0L140 -2.88495e-05L195 110L250 110L250 0Z" fill="url(#paint2_linear_384_3480)"/>
<defs>
<linearGradient id="paint0_linear_384_3480" x1="167" y1="54" x2="62" y2="124" gradientUnits="userSpaceOnUse">
<stop stop-color="white" stop-opacity="0.5"/>
<stop offset="1" stop-color="white" stop-opacity="0.15"/>
</linearGradient>
<linearGradient id="paint1_linear_384_3480" x1="167" y1="56" x2="63" y2="124" gradientUnits="userSpaceOnUse">
<stop stop-color="white"/>
<stop offset="1" stop-color="white" stop-opacity="0"/>
</linearGradient>
<linearGradient id="paint2_linear_384_3480" x1="250" y1="3.27826e-06" x2="195" y2="55" gradientUnits="userSpaceOnUse">
<stop stop-color="white" stop-opacity="0.32"/>
<stop offset="1" stop-color="white" stop-opacity="0.15"/>
</linearGradient>
</defs>
</svg>
