<svg width="60" height="60" viewBox="0 0 250 250" fill="none" xmlns="http://www.w3.org/2000/svg">
<path d="M0 -2.40413e-05L-2.40413e-05 110L82.5 82.5L110 0L0 -2.40413e-05Z" fill="url(#paint0_linear_384_3491)"/>
<mask id="path-2-inside-1_384_3491" fill="white">
<path fill-rule="evenodd" clip-rule="evenodd" d="M1.52588e-05 250L177 177L82 82L1.52588e-05 110V250Z"/>
</mask>
<path fill-rule="evenodd" clip-rule="evenodd" d="M1.52588e-05 250L177 177L82 82L1.52588e-05 110V250Z" fill="url(#paint1_linear_384_3491)"/>
<path d="M177 177L177.381 177.924L178.767 177.353L177.707 176.293L177 177ZM1.52588e-05 250H-0.999985V251.494L0.381287 250.924L1.52588e-05 250ZM82 82L82.7071 81.2929L82.2665 80.8523L81.6769 81.0536L82 82ZM1.52588e-05 110L-0.323135 109.054L-0.999985 109.285V110H1.52588e-05ZM176.619 176.076L-0.381271 249.076L0.381287 250.924L177.381 177.924L176.619 176.076ZM81.2929 82.7071L176.293 177.707L177.707 176.293L82.7071 81.2929L81.2929 82.7071ZM0.323151 110.946L82.3232 82.9463L81.6769 81.0536L-0.323135 109.054L0.323151 110.946ZM1.00002 250V110H-0.999985V250H1.00002Z" fill="url(#paint2_linear_384_3491)" mask="url(#path-2-inside-1_384_3491)"/>
<path fill-rule="evenodd" clip-rule="evenodd" d="M177 177L250 -0.000442505L110 -0.000427246L82 81.9995L177 177Z" fill="url(#paint3_linear_384_3491)"/>
<defs>
<linearGradient id="paint0_linear_384_3491" x1="110" y1="0" x2="2.18478e-06" y2="110" gradientUnits="userSpaceOnUse">
<stop stop-color="white" stop-opacity="0.5"/>
<stop offset="1" stop-color="white" stop-opacity="0.15"/>
</linearGradient>
<linearGradient id="paint1_linear_384_3491" x1="-1.65812e-06" y1="250" x2="162.78" y2="153.11" gradientUnits="userSpaceOnUse">
<stop stop-color="white" stop-opacity="0.5"/>
<stop offset="1" stop-color="white" stop-opacity="0.15"/>
</linearGradient>
<linearGradient id="paint2_linear_384_3491" x1="3.12077e-05" y1="250" x2="66.1182" y2="77.9792" gradientUnits="userSpaceOnUse">
<stop stop-color="white" stop-opacity="0.75"/>
<stop offset="1" stop-color="white" stop-opacity="0"/>
</linearGradient>
<linearGradient id="paint3_linear_384_3491" x1="218.5" y1="88.7358" x2="128.317" y2="-14.2241" gradientUnits="userSpaceOnUse">
<stop stop-color="white" stop-opacity="0.5"/>
<stop offset="1" stop-color="white" stop-opacity="0.15"/>
</linearGradient>
</defs>
</svg>
