<svg width="80" height="80" viewBox="0 0 250 250" fill="none" xmlns="http://www.w3.org/2000/svg">
<path d="M250 0L140 -2.88495e-05L140 27.5L195 55L222.5 110L250 110L250 0Z" fill="url(#paint0_linear_384_3493)"/>
<path d="M187.5 249.5H250L250 109.5L222.5 109.5L187.5 249.5Z" fill="url(#paint1_linear_384_3493)"/>
<path d="M194.863 55.3441L125.608 124.599L187.343 248.067L221.97 109.558L194.863 55.3441Z" fill="url(#paint2_linear_384_3493)" stroke="url(#paint3_linear_384_3493)"/>
<path d="M139.942 27.5299L1.43254 62.1573L124.901 123.892L194.156 54.637L139.942 27.5299Z" fill="url(#paint4_linear_384_3493)" stroke="url(#paint5_linear_384_3493)"/>
<path d="M140 -1.52588e-05L4.33094e-06 1.52588e-05L0 62.5L140 27.5L140 -1.52588e-05Z" fill="url(#paint6_linear_384_3493)"/>
<defs>
<linearGradient id="paint0_linear_384_3493" x1="250" y1="3.27826e-06" x2="195" y2="55" gradientUnits="userSpaceOnUse">
<stop stop-color="white" stop-opacity="0.32"/>
<stop offset="1" stop-color="white" stop-opacity="0.15"/>
</linearGradient>
<linearGradient id="paint1_linear_384_3493" x1="218.75" y1="109.5" x2="218.75" y2="249.5" gradientUnits="userSpaceOnUse">
<stop stop-color="white" stop-opacity="0.35"/>
<stop offset="1" stop-color="white" stop-opacity="0.5"/>
</linearGradient>
<linearGradient id="paint2_linear_384_3493" x1="173.75" y1="249.5" x2="173.75" y2="54.5" gradientUnits="userSpaceOnUse">
<stop stop-color="white" stop-opacity="0.5"/>
<stop offset="1" stop-color="white" stop-opacity="0.15"/>
</linearGradient>
<linearGradient id="paint3_linear_384_3493" x1="250" y1="109.5" x2="140" y2="-0.500008" gradientUnits="userSpaceOnUse">
<stop stop-color="white" stop-opacity="0.25"/>
<stop offset="1" stop-color="white" stop-opacity="0"/>
</linearGradient>
<linearGradient id="paint4_linear_384_3493" x1="97.5" y1="124.5" x2="97.5" y2="27" gradientUnits="userSpaceOnUse">
<stop stop-color="white" stop-opacity="0.5"/>
<stop offset="1" stop-color="white" stop-opacity="0.15"/>
</linearGradient>
<linearGradient id="paint5_linear_384_3493" x1="250" y1="109.5" x2="140" y2="-0.499998" gradientUnits="userSpaceOnUse">
<stop stop-color="white" stop-opacity="0.75"/>
<stop offset="1" stop-color="white" stop-opacity="0"/>
</linearGradient>
<linearGradient id="paint6_linear_384_3493" x1="140" y1="27.5" x2="9.05926e-08" y2="27.5" gradientUnits="userSpaceOnUse">
<stop stop-color="white" stop-opacity="0.5"/>
<stop offset="1" stop-color="white" stop-opacity="0.15"/>
</linearGradient>
</defs>
</svg>
