<svg width="60" height="60" viewBox="0 0 250 250" fill="none" xmlns="http://www.w3.org/2000/svg">
<path d="M250 250L140 250L154 209.5L195 195L209.5 154L250 140L250 250Z" fill="url(#paint0_linear_449_4834)"/>
<path d="M209.5 154L195 195L125 125L157.5 32.5L209.5 154Z" fill="url(#paint1_linear_449_4834)"/>
<path d="M250 140L209.5 154L157.5 32.5L250 0V140Z" fill="url(#paint2_linear_449_4834)"/>
<path d="M195 195L154 209.5L32.5 157.5L125 125L195 195Z" fill="url(#paint3_linear_449_4834)"/>
<path d="M0 250L140 250L154 209.5L32.5 157.5L0 250Z" fill="url(#paint4_linear_449_4834)"/>
<defs>
<linearGradient id="paint0_linear_449_4834" x1="250" y1="140" x2="140" y2="250" gradientUnits="userSpaceOnUse">
<stop stop-color="white" stop-opacity="0.5"/>
<stop offset="1" stop-color="white" stop-opacity="0.15"/>
</linearGradient>
<linearGradient id="paint1_linear_449_4834" x1="167.25" y1="32.5" x2="183" y2="266.5" gradientUnits="userSpaceOnUse">
<stop stop-color="white" stop-opacity="0.5"/>
<stop offset="1" stop-color="white" stop-opacity="0.15"/>
</linearGradient>
<linearGradient id="paint2_linear_449_4834" x1="157.5" y1="32.5" x2="268.5" y2="207.5" gradientUnits="userSpaceOnUse">
<stop stop-color="white" stop-opacity="0.5"/>
<stop offset="1" stop-color="white" stop-opacity="0.32"/>
</linearGradient>
<linearGradient id="paint3_linear_449_4834" x1="125" y1="125" x2="107" y2="209" gradientUnits="userSpaceOnUse">
<stop stop-color="white" stop-opacity="0.5"/>
<stop offset="1" stop-color="white" stop-opacity="0.32"/>
</linearGradient>
<linearGradient id="paint4_linear_449_4834" x1="142" y1="250" x2="36" y2="157" gradientUnits="userSpaceOnUse">
<stop stop-color="white" stop-opacity="0.5"/>
<stop offset="1" stop-color="white" stop-opacity="0.32"/>
</linearGradient>
</defs>
</svg>
