<svg width="160" height="160" viewBox="0 0 250 250" fill="none" xmlns="http://www.w3.org/2000/svg">
<path d="M-1.9233e-05 0L110 -1.9233e-05L96 40.5L55 55L40.5 96L0 110L-1.9233e-05 0Z" fill="url(#paint0_linear_449_4836)"/>
<path d="M40.5 96L55 55L125 125L92.5 217.5L40.5 96Z" fill="url(#paint1_linear_449_4836)"/>
<path d="M2.28882e-05 110L40.5 96L92.5 217.5L2.28882e-05 250V110Z" fill="url(#paint2_linear_449_4836)"/>
<path d="M55 55L96 40.5L217.5 92.5L125 125L55 55Z" fill="url(#paint3_linear_449_4836)"/>
<path d="M250 -4.57764e-05L110 -1.52588e-05L96 40.5L217.5 92.5L250 -4.57764e-05Z" fill="url(#paint4_linear_449_4836)"/>
<defs>
<linearGradient id="paint0_linear_449_4836" x1="0" y1="110" x2="110" y2="-6.11999e-06" gradientUnits="userSpaceOnUse">
<stop stop-color="white" />
<stop offset="1" stop-color="white" />
</linearGradient>
<linearGradient id="paint1_linear_449_4836" x1="106" y1="249.5" x2="47.5" y2="73.5" gradientUnits="userSpaceOnUse">
<stop stop-color="white" />
<stop offset="1" stop-color="white" />
</linearGradient>
<linearGradient id="paint2_linear_449_4836" x1="92.5" y1="217.5" x2="2.98144e-06" y2="110" gradientUnits="userSpaceOnUse">
<stop stop-color="white" />
<stop offset="1" stop-color="white" />
</linearGradient>
<linearGradient id="paint3_linear_449_4836" x1="125" y1="125" x2="96" y2="41" gradientUnits="userSpaceOnUse">
<stop stop-color="white" />
<stop offset="1" stop-color="white" />
</linearGradient>
<linearGradient id="paint4_linear_449_4836" x1="110.5" y1="3.47105e-06" x2="218" y2="92" gradientUnits="userSpaceOnUse">
<stop stop-color="white" />
<stop offset="1" stop-color="white" />
</linearGradient>
</defs>
</svg>
