<svg width="80" height="80" viewBox="0 0 250 250" fill="none" xmlns="http://www.w3.org/2000/svg">
<path d="M250 250L250 140L222.5 167.5L172 172L167.5 222.5L140 250L250 250Z" fill="url(#paint0_linear_384_18469)"/>
<path d="M64.9714 188.851L139.964 249.329L166.578 222.715L64.9714 188.851Z" fill="url(#paint1_linear_384_18469)" stroke="url(#paint2_linear_384_18469)"/>
<path d="M250 140L250 -2.73196e-06L187.5 62.5L250 140Z" fill="url(#paint3_linear_384_18469)"/>
<path d="M74.1076 73.4006L172.188 171.481L221.826 167.058L187.151 63.0341L74.1076 73.4006Z" fill="url(#paint4_linear_384_18469)" stroke="url(#paint5_linear_384_18469)"/>
<path d="M188.851 64.9716L222.719 166.574L249.329 139.964L188.851 64.9716Z" fill="url(#paint6_linear_384_18469)" stroke="url(#paint7_linear_384_18469)"/>
<path d="M172 172L167.5 222.495L62.5 187.5L73 73L172 172Z" fill="url(#paint8_linear_384_18469)"/>
<path d="M2.73196e-06 250L140 250L62.5 187.5L2.73196e-06 250Z" fill="url(#paint9_linear_384_18469)"/>
<defs>
<linearGradient id="paint0_linear_384_18469" x1="250" y1="140" x2="140" y2="250" gradientUnits="userSpaceOnUse">
<stop stop-color="white" />
<stop offset="1" stop-color="white" />
</linearGradient>
<linearGradient id="paint1_linear_384_18469" x1="62.5" y1="187.5" x2="140" y2="250" gradientUnits="userSpaceOnUse">
<stop stop-color="white" />
<stop offset="1" stop-color="white" />
</linearGradient>
<linearGradient id="paint2_linear_384_18469" x1="69" y1="323.5" x2="157.5" y2="212" gradientUnits="userSpaceOnUse">
<stop stop-color="white"/>
<stop offset="1" stop-color="white" />
</linearGradient>
<linearGradient id="paint3_linear_384_18469" x1="250" y1="-2.73196e-06" x2="250" y2="140" gradientUnits="userSpaceOnUse">
<stop stop-color="white" />
<stop offset="1" stop-color="white" />
</linearGradient>
<linearGradient id="paint4_linear_384_18469" x1="172" y1="172" x2="222.5" y2="167.5" gradientUnits="userSpaceOnUse">
<stop stop-color="white" />
<stop offset="1" stop-color="white" />
</linearGradient>
<linearGradient id="paint5_linear_384_18469" x1="-56.5" y1="-26" x2="204.5" y2="160.5" gradientUnits="userSpaceOnUse">
<stop stop-color="white"/>
<stop offset="1" stop-color="white" />
</linearGradient>
<linearGradient id="paint6_linear_384_18469" x1="187.5" y1="115" x2="250" y2="115" gradientUnits="userSpaceOnUse">
<stop stop-color="white" />
<stop offset="1" stop-color="white" />
</linearGradient>
<linearGradient id="paint7_linear_384_18469" x1="242.5" y1="137" x2="201" y2="131" gradientUnits="userSpaceOnUse">
<stop stop-color="white"/>
<stop offset="1" stop-color="white" />
</linearGradient>
<linearGradient id="paint8_linear_384_18469" x1="74" y1="73" x2="167.5" y2="222.5" gradientUnits="userSpaceOnUse">
<stop stop-color="white" />
<stop offset="1" stop-color="white" />
</linearGradient>
<linearGradient id="paint9_linear_384_18469" x1="140" y1="250" x2="9.24469e-07" y2="250" gradientUnits="userSpaceOnUse">
<stop stop-color="white" />
<stop offset="1" stop-color="white" />
</linearGradient>
</defs>
</svg>
