<svg width="60" height="60" viewBox="0 0 250 250" fill="none" xmlns="http://www.w3.org/2000/svg">
<path d="M185.029 188.851L110.036 249.329L83.4219 222.715L185.029 188.851Z" fill="url(#paint0_linear_384_18470)" stroke="url(#paint1_linear_384_18470)"/>
<path d="M-3.66372e-05 140L1.52588e-05 -2.73196e-06L62.5 62.5L-3.66372e-05 140Z" fill="url(#paint2_linear_384_18470)"/>
<path d="M27.5 167.5L78 172L177 73L62.5 62.5L27.5 167.5Z" fill="url(#paint3_linear_384_18470)"/>
<path d="M61.1491 64.9716L27.2815 166.574L0.671215 139.964L61.1491 64.9716Z" fill="url(#paint4_linear_384_18470)" stroke="url(#paint5_linear_384_18470)"/>
<path d="M176.599 74.1076L186.966 187.151L82.9414 221.821L78.5187 172.188L176.599 74.1076Z" fill="url(#paint6_linear_384_18470)" stroke="url(#paint7_linear_384_18470)"/>
<path d="M250 250L110 250L187.5 187.5L250 250Z" fill="url(#paint8_linear_384_18470)"/>
<path d="M-1.9233e-05 250L110 250L82.5 222.5L78 172L27.5 167.5L0 140L-1.9233e-05 250Z" fill="url(#paint9_linear_384_18470)"/>
<defs>
<linearGradient id="paint0_linear_384_18470" x1="187.5" y1="187.5" x2="110" y2="250" gradientUnits="userSpaceOnUse">
<stop stop-color="white" stop-opacity="0.5"/>
<stop offset="1" stop-color="white" stop-opacity="0.15"/>
</linearGradient>
<linearGradient id="paint1_linear_384_18470" x1="51" y1="132.5" x2="165" y2="190.5" gradientUnits="userSpaceOnUse">
<stop stop-color="white"/>
<stop offset="1" stop-color="white" stop-opacity="0"/>
</linearGradient>
<linearGradient id="paint2_linear_384_18470" x1="-2.47956e-06" y1="-2.73196e-06" x2="-8.59917e-06" y2="140" gradientUnits="userSpaceOnUse">
<stop stop-color="white" stop-opacity="0.5"/>
<stop offset="1" stop-color="white" stop-opacity="0.35"/>
</linearGradient>
<linearGradient id="paint3_linear_384_18470" x1="78" y1="172" x2="27.5" y2="167.5" gradientUnits="userSpaceOnUse">
<stop stop-color="white" stop-opacity="0.5"/>
<stop offset="1" stop-color="white" stop-opacity="0.15"/>
</linearGradient>
<linearGradient id="paint4_linear_384_18470" x1="62.5" y1="115" x2="-3.28124e-05" y2="115" gradientUnits="userSpaceOnUse">
<stop stop-color="white" stop-opacity="0.5"/>
<stop offset="1" stop-color="white" stop-opacity="0.15"/>
</linearGradient>
<linearGradient id="paint5_linear_384_18470" x1="3" y1="76" x2="45.5" y2="109" gradientUnits="userSpaceOnUse">
<stop stop-color="white"/>
<stop offset="1" stop-color="white" stop-opacity="0"/>
</linearGradient>
<linearGradient id="paint6_linear_384_18470" x1="176" y1="73" x2="82.5" y2="222.5" gradientUnits="userSpaceOnUse">
<stop stop-color="white" stop-opacity="0.5"/>
<stop offset="1" stop-color="white" stop-opacity="0.15"/>
</linearGradient>
<linearGradient id="paint7_linear_384_18470" x1="132.75" y1="73" x2="132.75" y2="222.5" gradientUnits="userSpaceOnUse">
<stop stop-color="white"/>
<stop offset="1" stop-color="white" stop-opacity="0"/>
</linearGradient>
<linearGradient id="paint8_linear_384_18470" x1="250" y1="250" x2="110" y2="250" gradientUnits="userSpaceOnUse">
<stop stop-color="white" stop-opacity="0.5"/>
<stop offset="1" stop-color="white" stop-opacity="0.15"/>
</linearGradient>
<linearGradient id="paint9_linear_384_18470" x1="55" y1="195" x2="-1.20262e-06" y2="250" gradientUnits="userSpaceOnUse">
<stop stop-color="white" stop-opacity="0.5"/>
<stop offset="1" stop-color="white" stop-opacity="0.32"/>
</linearGradient>
</defs>
</svg>
