<svg width="60" height="60" viewBox="0 0 250 250" fill="none" xmlns="http://www.w3.org/2000/svg">
<path d="M64.9714 61.1493L139.964 0.671238L166.578 27.2852L64.9714 61.1493Z" fill="url(#paint0_linear_384_18471)" stroke="url(#paint1_linear_384_18471)"/>
<path d="M250 110L250 250L187.5 187.5L250 110Z" fill="url(#paint2_linear_384_18471)"/>
<path d="M74.1076 176.599L172.188 78.5188L221.826 82.9419L187.151 186.966L74.1076 176.599Z" fill="url(#paint3_linear_384_18471)" stroke="url(#paint4_linear_384_18471)"/>
<path d="M188.851 185.028L222.719 83.4256L249.329 110.036L188.851 185.028Z" fill="url(#paint5_linear_384_18471)" stroke="url(#paint6_linear_384_18471)"/>
<path d="M73.4005 175.892L63.0341 62.849L167.059 28.1792L171.481 77.8117L73.4005 175.892Z" fill="url(#paint7_linear_384_18471)" stroke="url(#paint8_linear_384_18471)"/>
<path d="M2.73196e-06 -1.52588e-05L140 -9.13919e-06L62.5 62.5L2.73196e-06 -1.52588e-05Z" fill="url(#paint9_linear_384_18471)"/>
<path d="M250 0L140 -2.88495e-05L167.5 27.5L172 78L222.5 82.5L250 110L250 0Z" fill="url(#paint10_linear_384_18471)"/>
<defs>
<linearGradient id="paint0_linear_384_18471" x1="62.5" y1="62.5" x2="140" y2="3.55813e-06" gradientUnits="userSpaceOnUse">
<stop stop-color="white" stop-opacity="0.5"/>
<stop offset="1" stop-color="white" stop-opacity="0.15"/>
</linearGradient>
<linearGradient id="paint1_linear_384_18471" x1="200.5" y1="-2.65566e-07" x2="117.5" y2="4" gradientUnits="userSpaceOnUse">
<stop stop-color="white"/>
<stop offset="1" stop-color="white" stop-opacity="0"/>
</linearGradient>
<linearGradient id="paint2_linear_384_18471" x1="218.75" y1="110" x2="218.75" y2="250" gradientUnits="userSpaceOnUse">
<stop stop-color="white" stop-opacity="0.35"/>
<stop offset="1" stop-color="white" stop-opacity="0.5"/>
</linearGradient>
<linearGradient id="paint3_linear_384_18471" x1="172" y1="78" x2="222.5" y2="82.5" gradientUnits="userSpaceOnUse">
<stop stop-color="white" stop-opacity="0.5"/>
<stop offset="1" stop-color="white" stop-opacity="0.15"/>
</linearGradient>
<linearGradient id="paint4_linear_384_18471" x1="17" y1="199.5" x2="205.5" y2="91.5" gradientUnits="userSpaceOnUse">
<stop stop-color="white"/>
<stop offset="1" stop-color="white" stop-opacity="0"/>
</linearGradient>
<linearGradient id="paint5_linear_384_18471" x1="187.5" y1="135" x2="250" y2="135" gradientUnits="userSpaceOnUse">
<stop stop-color="white" stop-opacity="0.5"/>
<stop offset="1" stop-color="white" stop-opacity="0.15"/>
</linearGradient>
<linearGradient id="paint6_linear_384_18471" x1="167" y1="214.5" x2="250" y2="104.5" gradientUnits="userSpaceOnUse">
<stop stop-color="white"/>
<stop offset="1" stop-color="white" stop-opacity="0"/>
</linearGradient>
<linearGradient id="paint7_linear_384_18471" x1="74" y1="177" x2="167.5" y2="27.5" gradientUnits="userSpaceOnUse">
<stop stop-color="white" stop-opacity="0.5"/>
<stop offset="1" stop-color="white" stop-opacity="0.15"/>
</linearGradient>
<linearGradient id="paint8_linear_384_18471" x1="320" y1="63.5" x2="69.5" y2="23.5" gradientUnits="userSpaceOnUse">
<stop stop-color="white"/>
<stop offset="1" stop-color="white" stop-opacity="0"/>
</linearGradient>
<linearGradient id="paint9_linear_384_18471" x1="140" y1="9.57932e-07" x2="-3.29408e-07" y2="1.69581e-06" gradientUnits="userSpaceOnUse">
<stop stop-color="white" stop-opacity="0.5"/>
<stop offset="1" stop-color="white" stop-opacity="0.15"/>
</linearGradient>
<linearGradient id="paint10_linear_384_18471" x1="250" y1="3.27826e-06" x2="195" y2="55" gradientUnits="userSpaceOnUse">
<stop stop-color="white" stop-opacity="0.32"/>
<stop offset="1" stop-color="white" stop-opacity="0.15"/>
</linearGradient>
</defs>
</svg>
