<svg width="26" height="26" viewBox="0 0 26 26" fill="none" xmlns="http://www.w3.org/2000/svg">
<g opacity="1">
<path d="M1 7L7 1L13 7L7 13L1 7Z" stroke="white"/>
<path d="M13 7L19 1L25 7L19 13L13 7Z" stroke="white"/>
<path d="M1 19L7 13L13 19L7 25L1 19Z" stroke="white"/>
<path d="M13 19L19 13L25 19L19 25L13 19Z" stroke="white"/>
<path d="M4 7L7 4L10 7L7 10L4 7Z" stroke="white"/>
<path d="M16 7L19 4L22 7L19 10L16 7Z" stroke="white"/>
<path d="M4 19L7 16L10 19L7 22L4 19Z" stroke="white"/>
<path d="M16 19L19 16L22 19L19 22L16 19Z" stroke="white"/>
</g>
</svg>
