<svg width="34" height="34" viewBox="0 0 34 34" fill="none" xmlns="http://www.w3.org/2000/svg">
<path d="M26.1573 13.0045L26.287 14.2368L27.1632 15.113L28.901 16.8508L27.1632 18.5886L26.287 19.4648L26.1573 20.6971L25.6514 25.5023L20.8462 26.0081L19.6139 26.1378L18.7378 27.014L16.9999 28.7518L15.2621 27.014L14.3859 26.1378L13.1536 26.0081L8.34844 25.5023L7.84263 20.6971L7.71292 19.4648L6.83674 18.5886L5.09892 16.8508L6.83674 15.113L7.71292 14.2368L7.84263 13.0045L8.34844 8.19927L13.1536 7.69346L14.3859 7.56375L15.2621 6.68757L16.9999 4.94975L18.7378 6.68757L19.6139 7.56375L20.8462 7.69346L25.6514 8.19927L26.1573 13.0045Z" stroke="url(#paint0_linear_368_11891)" stroke-width="7"/>
<defs>
<linearGradient id="paint0_linear_368_11891" x1="0.14917" y1="16.8508" x2="33.8507" y2="16.8508" gradientUnits="userSpaceOnUse">
<stop stop-color="#0BFFF0"/>
<stop offset="1" stop-color="#0075FF"/>
</linearGradient>
</defs>
</svg>
