<svg width="23" height="24" viewBox="0 0 23 24" fill="none" xmlns="http://www.w3.org/2000/svg">
<g opacity="1">
<path d="M15.9245 14.4686L15.6071 14.6928V15.0813V17.8125C15.6071 18.0254 15.4246 18.25 15.1429 18.25H7.85714C7.5754 18.25 7.39286 18.0254 7.39286 17.8125V15.0813V14.6749L7.05246 14.453C5.07259 13.1622 3.75 10.9013 3.75 8.3125C3.75 4.11115 7.16264 0.75 11.5 0.75C15.8374 0.75 19.25 4.11115 19.25 8.3125C19.25 10.7723 17.9351 13.0485 15.9245 14.4686Z" stroke="white" stroke-width="1.5"/>
<path d="M8 23C8 23.5 8.46667 24 9.16667 24H13.8333C14.5333 24 15 23.5 15 23V22H8V23Z" fill="white"/>
</g>
</svg>
