<svg width="15" height="15" viewBox="0 0 15 15" fill="none" xmlns="http://www.w3.org/2000/svg">
<g clip-path="url(#clip0_652_4248)">
<path fill-rule="evenodd" clip-rule="evenodd" d="M5.8631 4.03495C5.49942 4.02265 5.21246 4.31112 5.2265 4.67479C5.2402 5.02949 5.53568 5.32373 5.89044 5.33575L7.96269 5.40585L4.33608 9.03246C4.08154 9.28701 4.10812 9.69911 4.36133 9.95231C4.61453 10.2055 5.02663 10.2321 5.28118 9.97756L8.90777 6.35096L8.97791 8.42319C8.98993 8.77795 9.28416 9.07342 9.63886 9.08712C10.0026 9.10119 10.291 8.81415 10.2787 8.45052L10.1559 4.82157C10.1434 4.46629 9.84704 4.17027 9.49247 4.1578L5.8631 4.03495Z" fill="#61FF00"/>
</g>
<defs>
<clipPath id="clip0_652_4248">
<rect y="7.15674" width="10.1212" height="10.1212" rx="2.22222" transform="rotate(-45 0 7.15674)" fill="white"/>
</clipPath>
</defs>
</svg>
