<svg width="9" height="8" viewBox="0 0 9 8" fill="none" xmlns="http://www.w3.org/2000/svg">
<path d="M4.50572 2.178C4.40172 2.178 4.31372 2.142 4.24172 2.07C4.16972 1.998 4.13372 1.91 4.13372 1.806C4.13372 1.702 4.16972 1.614 4.24172 1.542C4.31372 1.47 4.40172 1.434 4.50572 1.434C4.60572 1.434 4.68972 1.47 4.75772 1.542C4.82972 1.614 4.86572 1.702 4.86572 1.806C4.86572 1.91 4.82972 1.998 4.75772 2.07C4.68972 2.142 4.60572 2.178 4.50572 2.178ZM4.76972 2.712V6H4.22372V2.712H4.76972Z" fill="#8C8C91"/>
<circle cx="4.5" cy="4" r="3.625" stroke="#8C8C91" stroke-width="0.75"/>
</svg>
