<svg width="24" height="24" viewBox="0 0 24 24" fill="none" xmlns="http://www.w3.org/2000/svg">
<g clip-path="url(#clip0_1509_39197)">
<rect width="24" height="24" rx="12" fill="white"/>
<g clip-path="url(#clip1_1509_39197)">
<path d="M11.9109 2.00024L6.53418 8.92874L9.22318 15.4645L14.5999 8.53574L11.9109 2.00024Z" fill="#2470ED"/>
<path d="M11.8267 2.62274L14.2392 8.48699L9.30768 14.8417L6.89493 8.97774L11.8267 2.62274ZM11.9109 2.00024L6.53418 8.92874L9.22318 15.4645L14.5999 8.53599L11.9109 2.00024Z" fill="#05274C"/>
<path d="M10.2549 7.93951L13.5669 16.0603L20.5714 16.9993L17.2594 8.87851L10.2549 7.93951Z" fill="white"/>
<path d="M10.7519 8.32401L17.0366 9.16676L20.0744 16.6148L13.7896 15.7723L10.7519 8.32401ZM10.2549 7.93951L13.5669 16.0603L20.5714 16.9993L17.2594 8.87851L10.2549 7.93951Z" fill="#05274C"/>
<path d="M20.5709 6.99901L11.8821 5.80701L7.56738 11.4035L16.2554 12.5965L20.5709 6.99901Z" fill="#85BCFA"/>
<path d="M12.0201 6.14376L19.9894 7.23701L16.1174 12.2588L8.14788 11.1655L12.0201 6.14376ZM11.8821 5.80701L7.56738 11.4035L16.2554 12.5965L20.5706 6.99901L11.8821 5.80701Z" fill="#05274C"/>
<path d="M16.2552 12.5945L7.56673 11.4035L3.25098 17L11.9397 18.192L16.2552 12.5945Z" fill="#85BCFA"/>
<path d="M7.70448 11.7403L15.6735 12.8338L11.8017 17.8553L3.83248 16.762L7.70448 11.7403ZM7.56648 11.4035L3.25098 17L11.9397 18.192L16.2552 12.5945L7.56648 11.4035Z" fill="#05274C"/>
<path d="M14.5997 8.53577L9.22266 15.4643L11.9119 22L17.2884 15.0715L14.5997 8.53577Z" fill="#2470ED"/>
<path d="M14.5152 9.15827L16.9277 15.0225L11.9962 21.3775L9.58341 15.513L14.5152 9.15827ZM14.5994 8.53577L9.22266 15.4643L11.9117 22L17.2884 15.0715L14.5994 8.53577Z" fill="#05274C"/>
<path d="M3.24902 7.00049L6.56202 15.121L13.5665 16.06L10.2545 7.93949L3.24902 7.00049Z" fill="white"/>
<path d="M3.74702 7.38499L10.0318 8.22749L13.0695 15.6757L6.78477 14.8332L3.74702 7.38499ZM3.24902 7.00049L6.56202 15.1212L13.5665 16.0602L10.2545 7.93949L3.24902 7.00049Z" fill="#05274C"/>
<path d="M11.8786 11.9682L11.7674 11.662L11.9036 11.6805L10.4479 8.18324L10.3864 8.26299L10.2386 7.97099L10.2236 7.96899L7.56738 11.405L11.8786 11.9682Z" fill="#85BCFA"/>
<path d="M10.3861 8.263L10.2541 7.9395L10.2391 7.9375L7.56738 11.4038L11.9111 11.9998L11.7731 11.663L8.14813 11.1655L10.3861 8.263Z" fill="#05274C"/>
</g>
</g>
<defs>
<clipPath id="clip0_1509_39197">
<rect width="24" height="24" rx="12" fill="white"/>
</clipPath>
<clipPath id="clip1_1509_39197">
<rect width="20" height="20" fill="white" transform="translate(2 2)"/>
</clipPath>
</defs>
</svg>
