<svg width="16" height="16" viewBox="0 0 16 16" fill="none" xmlns="http://www.w3.org/2000/svg">
<rect width="16" height="16" rx="8" fill="white"/>
<path d="M2.18447 6.81959C2.14742 6.93644 2.10182 7.09394 2.07227 7.21349C2.09278 7.13067 2.13089 7.05324 2.18401 6.98646C2.23712 6.91968 2.30399 6.86513 2.38007 6.8265C2.53066 6.63476 2.72304 6.47993 2.94254 6.37382C3.16204 6.26771 3.40286 6.21312 3.64667 6.2142V6.2097C2.73692 5.9502 2.45462 6.24734 2.37572 6.38699C2.30103 6.52601 2.23719 6.6706 2.18477 6.81945" fill="#007AFF"/>
<path d="M3.12696 5.43153L2.99316 5.55903C3.14706 5.43363 3.40086 5.46273 3.79161 5.65098C3.87642 5.50013 3.98393 5.36323 4.11036 5.24508C3.92511 5.11098 3.73731 4.99413 3.61806 5.04903C3.44518 5.16429 3.28099 5.29208 3.12681 5.43138" fill="#007AFF"/>
<path d="M4.99656 4.3861C4.85766 4.4368 4.67271 4.50445 4.53516 4.56025C4.60714 4.63606 4.67182 4.71847 4.72836 4.8064C4.93572 4.69496 5.15135 4.59968 5.37336 4.5214C5.33601 4.3672 5.32686 4.29025 5.37441 4.27075C5.26086 4.3051 5.10876 4.34755 4.99626 4.38655" fill="#007AFF"/>
<path d="M7.25289 3.96474C7.04154 3.98184 6.75999 4.00794 6.54924 4.03254C6.43914 4.05969 6.39054 4.09869 6.33594 4.26354C6.62332 4.20935 6.91346 4.1709 7.20504 4.14834C7.24826 4.08819 7.30492 4.03896 7.37052 4.00456C7.43611 3.97016 7.50883 3.95154 7.58289 3.9502L7.25289 3.96519" fill="#007AFF"/>
<path d="M9.60065 4.09049C9.40295 4.06049 9.13925 4.02329 8.94065 4.00049C8.74229 3.97707 8.54201 4.02428 8.375 4.13384C8.6779 4.14938 8.97977 4.18088 9.27935 4.22819C9.50325 4.13242 9.75193 4.11082 9.989 4.16654C9.87245 4.14359 9.7178 4.10999 9.60065 4.09154" fill="#007AFF"/>
<path d="M11.7184 4.75557C11.5717 4.68807 11.3759 4.59957 11.2271 4.53822C10.934 4.41763 10.6105 4.39141 10.3018 4.46322C10.5433 4.53731 10.7796 4.62751 11.009 4.73322C11.4136 4.68426 11.8224 4.7792 12.164 5.00142C12.0311 4.92537 11.8543 4.82247 11.7176 4.75557" fill="#007AFF"/>
<path d="M13.8206 6.9419C13.7215 6.66055 13.585 6.39381 13.4147 6.14885L13.3097 6.00561C12.8381 5.43201 12.3628 5.17791 11.7197 5.15601C11.8707 5.26996 12.0067 5.40239 12.1247 5.5502C13.1935 5.7002 13.9291 6.6332 13.9987 7.9268C13.9898 7.59135 13.9296 7.25924 13.82 6.94205" fill="#007AFF"/>
<path d="M12.2936 10.9053C12.4978 10.7739 12.6914 10.6267 12.8726 10.465C12.9408 10.3992 13.0323 10.3122 13.0976 10.2432C14.4306 8.70957 13.8249 6.49646 12.3936 6.09521C12.409 6.16496 12.4173 6.23607 12.4184 6.30747V6.34557C12.4169 6.41592 12.4085 6.48596 12.3933 6.55467C13.9245 7.24077 13.7741 9.97886 12.1494 10.9936L12.2931 10.9054" fill="#007AFF"/>
<path d="M10.291 11.7118C10.4903 11.6607 10.7551 11.5873 10.9528 11.5273C12.9127 10.7959 13.2253 7.80941 12.1252 7.09106C12.007 7.23511 11.8709 7.36345 11.7202 7.47297C12.6502 8.49192 11.6971 11.3706 9.9502 11.784L10.2907 11.712" fill="#007AFF"/>
<path d="M8.01065 11.9501C8.19545 11.9485 8.44205 11.9459 8.62685 11.9387C10.2548 11.7718 11.4134 8.80371 11.0102 7.87476C10.7805 7.97416 10.5442 8.05756 10.303 8.12436C10.2992 9.31161 8.68956 11.9644 7.53516 11.9344C7.67781 11.9395 7.868 11.9494 8.0105 11.9494" fill="#007AFF"/>
<path d="M5.64905 11.6441C5.83085 11.6876 6.074 11.7433 6.25685 11.7803C6.93605 11.83 8.6465 9.54052 9.27815 8.33032C8.9773 8.36889 8.67463 8.39158 8.3714 8.39827C7.87835 8.87347 6.57725 10.3681 6.3215 10.6633C5.663 11.4223 5.4182 11.5663 5.3291 11.5534L5.64905 11.6443" fill="#007AFF"/>
<path d="M3.66519 10.7871C3.8623 10.9183 4.06773 11.0366 4.28019 11.1412L4.29759 11.1498C4.33404 10.9567 5.95284 9.03673 7.20264 8.34973C6.91122 8.31863 6.6217 8.27181 6.33534 8.20947C4.84224 8.77767 3.31809 10.5162 3.58044 10.7295L3.66444 10.7871" fill="#007AFF"/>
<path d="M2.58477 9.74817C2.65542 9.84252 2.75082 9.96792 2.82597 10.0575C2.48967 9.54867 3.90762 8.23107 5.37477 7.92387C5.15246 7.83891 4.93685 7.73738 4.72976 7.62012C3.37976 7.76577 2.09472 8.71512 2.35902 9.37272C2.42382 9.48792 2.51052 9.64122 2.58522 9.74772" fill="#007AFF"/>
<path d="M2 7.88461V7.94881C2.00585 8.06026 2.015 8.20861 2.02745 8.31916C1.99115 7.59646 3.09635 7.12951 4.1111 7.16266C3.98454 7.0408 3.877 6.90064 3.79205 6.74686C2.9342 6.63751 2.4653 6.85726 2.22275 7.06051C2.0817 7.31258 2.00528 7.59566 2.0003 7.88446" fill="#007AFF"/>
</svg>
