<svg width="16" height="16" viewBox="0 0 16 16" fill="none" xmlns="http://www.w3.org/2000/svg">
<rect width="16" height="16" rx="8" fill="url(#paint0_linear_2734_4632)"/>
<path d="M2.18447 6.81972C2.14742 6.93657 2.10182 7.09407 2.07227 7.21362C2.09278 7.1308 2.13089 7.05336 2.18401 6.98658C2.23712 6.91981 2.30399 6.86525 2.38007 6.82662C2.53066 6.63488 2.72304 6.48006 2.94254 6.37395C3.16204 6.26783 3.40286 6.21324 3.64667 6.21432V6.20982C2.73692 5.95032 2.45462 6.24747 2.37572 6.38712C2.30103 6.52614 2.23719 6.67072 2.18477 6.81957" fill="white"/>
<path d="M3.12794 5.43178L2.99414 5.55928C3.14804 5.43388 3.40184 5.46297 3.79259 5.65122C3.8774 5.50038 3.9849 5.36348 4.11134 5.24532C3.92609 5.11122 3.73829 4.99437 3.61904 5.04927C3.44615 5.16453 3.28196 5.29233 3.12779 5.43162" fill="white"/>
<path d="M4.99656 4.38622C4.85766 4.43692 4.67271 4.50457 4.53516 4.56037C4.60714 4.63618 4.67182 4.71859 4.72836 4.80652C4.93572 4.69509 5.15135 4.5998 5.37336 4.52152C5.33601 4.36732 5.32686 4.29037 5.37441 4.27087C5.26086 4.30522 5.10876 4.34767 4.99626 4.38667" fill="white"/>
<path d="M7.25289 3.96487C7.04154 3.98197 6.75999 4.00806 6.54924 4.03266C6.43914 4.05981 6.39054 4.09882 6.33594 4.26367C6.62332 4.20948 6.91346 4.17102 7.20504 4.14846C7.24826 4.08831 7.30492 4.03908 7.37052 4.00468C7.43611 3.97028 7.50883 3.95167 7.58289 3.95032L7.25289 3.96531" fill="white"/>
<path d="M9.60065 4.09073C9.40295 4.06073 9.13925 4.02354 8.94065 4.00074C8.74229 3.97731 8.54201 4.02452 8.375 4.13408C8.6779 4.14963 8.97977 4.18112 9.27935 4.22843C9.50325 4.13266 9.75194 4.11106 9.989 4.16679C9.87245 4.14384 9.7178 4.11024 9.60065 4.09179" fill="white"/>
<path d="M11.7193 4.75581C11.5726 4.68831 11.3769 4.59981 11.2281 4.53846C10.9349 4.41787 10.6115 4.39165 10.3027 4.46346C10.5443 4.53755 10.7805 4.62776 11.01 4.73346C11.4145 4.6845 11.8234 4.77945 12.165 5.00166C12.0321 4.92561 11.8552 4.82271 11.7186 4.75581" fill="white"/>
<path d="M13.8216 6.94202C13.7225 6.66067 13.586 6.39393 13.4157 6.14898L13.3107 6.00573C12.8391 5.43213 12.3638 5.17803 11.7207 5.15613C11.8717 5.27008 12.0077 5.40251 12.1257 5.55033C13.1945 5.70033 13.9301 6.63333 13.9997 7.92693C13.9908 7.59147 13.9305 7.25936 13.821 6.94218" fill="white"/>
<path d="M12.2926 10.9054C12.4968 10.774 12.6904 10.6268 12.8716 10.4651C12.9398 10.3993 13.0313 10.3123 13.0966 10.2433C14.4296 8.70969 13.8239 6.49659 12.3926 6.09534C12.408 6.16508 12.4163 6.23619 12.4174 6.30759V6.34569C12.4159 6.41604 12.4076 6.48608 12.3923 6.55479C13.9235 7.24089 13.7731 9.97899 12.1484 10.9937L12.2921 10.9055" fill="white"/>
<path d="M10.292 11.7118C10.4913 11.6607 10.7561 11.5873 10.9538 11.5273C12.9137 10.7959 13.2263 7.80941 12.1262 7.09106C12.008 7.23511 11.8719 7.36345 11.7212 7.47297C12.6512 8.49192 11.6981 11.3706 9.95117 11.784L10.2917 11.712" fill="white"/>
<path d="M8.01065 11.9502C8.19545 11.9486 8.44205 11.946 8.62685 11.9388C10.2548 11.7719 11.4134 8.80383 11.0102 7.87488C10.7805 7.97428 10.5442 8.05768 10.303 8.12448C10.2992 9.31173 8.68956 11.9645 7.53516 11.9345C7.67781 11.9396 7.868 11.9495 8.0105 11.9495" fill="white"/>
<path d="M5.65003 11.6442C5.83183 11.6877 6.07498 11.7434 6.25783 11.7804C6.93703 11.8301 8.64748 9.54064 9.27913 8.33044C8.97828 8.36902 8.67561 8.3917 8.37237 8.39839C7.87932 8.87359 6.57823 10.3682 6.32248 10.6634C5.66398 11.4224 5.41918 11.5664 5.33008 11.5535L5.65003 11.6444" fill="white"/>
<path d="M3.66519 10.7871C3.8623 10.9183 4.06773 11.0366 4.28019 11.1412L4.29759 11.1498C4.33404 10.9567 5.95284 9.03673 7.20264 8.34973C6.91122 8.31863 6.6217 8.27181 6.33534 8.20947C4.84224 8.77767 3.31809 10.5162 3.58044 10.7295L3.66444 10.7871" fill="white"/>
<path d="M2.58477 9.74841C2.65542 9.84276 2.75082 9.96816 2.82597 10.0577C2.48967 9.54891 3.90762 8.23131 5.37477 7.92411C5.15246 7.83916 4.93685 7.73762 4.72976 7.62036C3.37976 7.76601 2.09472 8.71536 2.35902 9.37296C2.42382 9.48816 2.51052 9.64146 2.58522 9.74796" fill="white"/>
<path d="M2 7.88485V7.94906C2.00585 8.06051 2.015 8.20885 2.02745 8.3194C1.99115 7.5967 3.09635 7.12976 4.1111 7.16291C3.98454 7.04105 3.877 6.90089 3.79205 6.74711C2.9342 6.63776 2.4653 6.85751 2.22275 7.06076C2.0817 7.31283 2.00528 7.5959 2.0003 7.88471" fill="white"/>
<defs>
<linearGradient id="paint0_linear_2734_4632" x1="8" y1="0" x2="8" y2="16" gradientUnits="userSpaceOnUse">
<stop stop-color="#85BCFA"/>
<stop offset="1" stop-color="#2470ED"/>
</linearGradient>
</defs>
</svg>
