<svg width="18" height="16" viewBox="0 0 18 16" fill="none" xmlns="http://www.w3.org/2000/svg">
<path d="M16.7449 12.1999L10.6293 1.60737C10.2893 1.01837 9.68017 0.666687 8.99998 0.666687C8.31983 0.666687 7.71071 1.01837 7.37065 1.60737L1.25507 12.1999C0.914977 12.7889 0.914977 13.4922 1.25507 14.0813C1.59516 14.6703 2.20422 15.022 2.88441 15.022H15.1156C15.7957 15.022 16.4048 14.6703 16.7449 14.0813C17.085 13.4922 17.085 12.7889 16.7449 12.1999ZM15.9331 13.6126C15.7625 13.9082 15.4568 14.0846 15.1156 14.0846H2.88441C2.5431 14.0846 2.23747 13.9082 2.06685 13.6126C1.89622 13.3171 1.89622 12.9642 2.06685 12.6686L8.18249 2.07609C8.35311 1.78053 8.65874 1.60409 9.00002 1.60409C9.34126 1.60409 9.64692 1.78053 9.81754 2.07609L15.9332 12.6686C16.1037 12.9642 16.1037 13.3171 15.9331 13.6126Z" fill="#FFB801"/>
<path fill-rule="evenodd" clip-rule="evenodd" d="M7.22598 1.52402C7.59582 0.883453 8.25996 0.5 8.99966 0.5C9.73939 0.5 10.4035 0.883454 10.7733 1.52402L16.8889 12.1165C17.2588 12.7571 17.2588 13.524 16.8889 14.1646L16.8889 14.1646C16.519 14.8051 15.8549 15.1886 15.1152 15.1886H2.88408C2.14435 15.1886 1.48027 14.8052 1.11041 14.1646C0.74054 13.524 0.740542 12.7571 1.11041 12.1165L1.25474 12.1999L1.11041 12.1165L7.22598 1.52402L7.37032 1.60735L7.22598 1.52402ZM8.99966 0.833333C8.37905 0.833333 7.82495 1.15325 7.51466 1.69069L1.39908 12.2832C1.08876 12.8207 1.08876 13.4605 1.39908 13.9979C1.7094 14.5354 2.26344 14.8553 2.88408 14.8553H15.1152C15.7358 14.8553 16.2899 14.5354 16.6003 13.9979C16.9106 13.4605 16.9106 12.8207 16.6003 12.2832L10.4847 1.69069C10.1744 1.15325 9.6203 0.833333 8.99966 0.833333ZM8.99969 1.77074C8.71795 1.77074 8.46735 1.91541 8.3265 2.1594L8.3265 2.1594L2.21086 12.7519C2.07001 12.9959 2.07001 13.2853 2.21086 13.5293C2.35171 13.7733 2.60231 13.9179 2.88408 13.9179H15.1152C15.397 13.9179 15.6476 13.7733 15.7885 13.5293C15.9293 13.2853 15.9293 12.9959 15.7885 12.7519C15.7885 12.7519 15.7885 12.7519 15.7885 12.7519L9.67288 2.1594L9.67288 2.1594C9.53203 1.91541 9.2814 1.77074 8.99969 1.77074ZM8.03782 1.99273C8.23822 1.6456 8.59887 1.4374 8.99969 1.4374C9.40047 1.4374 9.76115 1.6456 9.96156 1.99274C9.96156 1.99274 9.96156 1.99274 9.96156 1.99274L16.0772 12.5853L16.0772 12.5853C16.2775 12.9324 16.2775 13.3488 16.0771 13.6959L16.0771 13.6959C15.8767 14.0431 15.5161 14.2513 15.1152 14.2513H2.88408C2.48324 14.2513 2.12258 14.0431 1.92218 13.6959C1.72179 13.3488 1.72179 12.9324 1.92218 12.5853L2.05631 12.6627L1.92219 12.5853L8.03782 1.99274C8.03782 1.99274 8.03782 1.99274 8.03782 1.99273Z" fill="#FFB801"/>
<path d="M8.99994 10.9688C8.65534 10.9688 8.375 11.2491 8.375 11.5937C8.375 11.9383 8.65534 12.2186 8.99994 12.2186C9.3445 12.2186 9.62487 11.9383 9.62487 11.5937C9.62487 11.2491 9.34453 10.9688 8.99994 10.9688Z" fill="#FFB801" stroke="#FFB801" stroke-width="0.5"/>
<path d="M9.46862 5.34442H8.53125V10.0313H9.46862V5.34442Z" fill="#FFB801" stroke="#FFB801" stroke-width="0.5" stroke-linejoin="round"/>
</svg>
