<svg width="28" height="28" viewBox="0 0 28 28" fill="none" xmlns="http://www.w3.org/2000/svg">
<rect x="0.75" y="0.414795" width="27" height="27" rx="13.5" fill="#05274C"/>
<path d="M4.4369 11.9229C4.37438 12.1201 4.29742 12.3859 4.24756 12.5876C4.28218 12.4478 4.34649 12.3172 4.43612 12.2045C4.52575 12.0918 4.63859 11.9997 4.76697 11.9345C5.02109 11.611 5.34574 11.3497 5.71614 11.1707C6.08655 10.9916 6.49294 10.8995 6.90436 10.9013V10.8937C5.36916 10.4558 4.89278 10.9572 4.75963 11.1929C4.6336 11.4275 4.52587 11.6715 4.4374 11.9226" fill="white"/>
<path d="M6.02803 9.58069L5.80225 9.79584C6.06195 9.58423 6.49024 9.63333 7.14963 9.951C7.29274 9.69645 7.47416 9.46544 7.68752 9.26605C7.37491 9.03976 7.058 8.84257 6.85676 8.93521C6.56502 9.12971 6.28795 9.34537 6.02778 9.58043" fill="white"/>
<path d="M9.18304 7.81635C8.94864 7.90191 8.63653 8.01607 8.40442 8.11023C8.52588 8.23816 8.63505 8.37723 8.73045 8.52561C9.08036 8.33756 9.44425 8.17677 9.81888 8.04467C9.75586 7.78446 9.74041 7.65461 9.82065 7.6217C9.62904 7.67967 9.37237 7.7513 9.18253 7.81711" fill="white"/>
<path d="M12.9897 7.1053C12.6331 7.13416 12.158 7.1782 11.8023 7.21971C11.6165 7.26553 11.5345 7.33134 11.4424 7.60952C11.9273 7.51808 12.4169 7.45318 12.909 7.41512C12.9819 7.31362 13.0775 7.23054 13.1882 7.17249C13.2989 7.11444 13.4216 7.08303 13.5466 7.08075L12.9897 7.10606" fill="white"/>
<path d="M16.9516 7.31777C16.618 7.26715 16.173 7.20438 15.8378 7.1659C15.5031 7.12637 15.1651 7.20604 14.8833 7.39092C15.3944 7.41715 15.9038 7.4703 16.4094 7.55014C16.7872 7.38853 17.2069 7.35207 17.6069 7.44611C17.4102 7.40738 17.1493 7.35068 16.9516 7.31955" fill="white"/>
<path d="M20.526 8.43992C20.2785 8.32601 19.9481 8.17667 19.697 8.07314C19.2023 7.86965 18.6565 7.82541 18.1355 7.94658C18.5431 8.07161 18.9418 8.22383 19.329 8.40221C20.0117 8.31959 20.7016 8.47981 21.278 8.85479C21.0538 8.72646 20.7553 8.55281 20.5248 8.43992" fill="white"/>
<path d="M24.0737 12.1292C23.9064 11.6544 23.676 11.2043 23.3888 10.7909L23.2116 10.5492C22.4157 9.58123 21.6136 9.15243 20.5284 9.11548C20.7832 9.30777 21.0128 9.53125 21.2119 9.78069C23.0154 10.0338 24.2567 11.6082 24.3742 13.7912C24.3592 13.2251 24.2576 12.6647 24.0727 12.1294" fill="white"/>
<path d="M21.4959 18.8174C21.8406 18.5957 22.1673 18.3473 22.473 18.0745C22.5882 17.9634 22.7426 17.8165 22.8527 17.7001C25.1022 15.1122 24.0801 11.3775 21.6648 10.7004C21.6907 10.8181 21.7047 10.9381 21.7065 11.0586V11.1229C21.7041 11.2416 21.6899 11.3598 21.6643 11.4758C24.2482 12.6336 23.9943 17.2541 21.2527 18.9665L21.4952 18.8177" fill="white"/>
<path d="M18.1173 20.1784C18.4537 20.0921 18.9005 19.9683 19.2341 19.867C22.5415 18.6328 23.069 13.5931 21.2125 12.3809C21.0131 12.6239 20.7835 12.8405 20.5291 13.0253C22.0985 14.7448 20.4901 19.6025 17.5422 20.3001L18.1168 20.1786" fill="white"/>
<path d="M14.2685 20.5805C14.5803 20.5777 14.9965 20.5734 15.3083 20.5613C18.0555 20.2796 20.0106 15.271 19.3302 13.7034C18.9426 13.8711 18.5438 14.0119 18.1367 14.1246C18.1304 16.1281 15.4141 20.6046 13.4661 20.554C13.7068 20.5626 14.0277 20.5793 14.2682 20.5793" fill="white"/>
<path d="M10.2841 20.0643C10.5908 20.1377 11.0012 20.2316 11.3097 20.2942C12.4559 20.3779 15.3423 16.5145 16.4082 14.4723C15.9005 14.5374 15.3897 14.5757 14.878 14.587C14.046 15.3889 11.8504 17.911 11.4188 18.4091C10.3076 19.69 9.8945 19.933 9.74414 19.9112L10.2841 20.0646" fill="white"/>
<path d="M6.9355 18.6178C7.26811 18.8393 7.61478 19.0389 7.9733 19.2154L8.00267 19.2298C8.06418 18.9041 10.7959 15.6641 12.9049 14.5047C12.4132 14.4523 11.9246 14.3733 11.4414 14.2681C8.92177 15.2269 6.34976 18.1606 6.79248 18.5206L6.93423 18.6178" fill="white"/>
<path d="M5.11326 16.8649C5.23248 17.0241 5.39347 17.2357 5.52028 17.3868C4.95278 16.5282 7.34557 14.3048 9.82138 13.7864C9.44625 13.643 9.0824 13.4717 8.73294 13.2738C6.45482 13.5196 4.2863 15.1216 4.7323 16.2313C4.84165 16.4257 4.98796 16.6844 5.11402 16.8641" fill="white"/>
<path d="M4.12549 13.7202V13.8285C4.13536 14.0166 4.1508 14.2669 4.17181 14.4535C4.11055 13.2339 5.97557 12.446 7.68796 12.5019C7.47441 12.2963 7.29292 12.0598 7.14957 11.8002C5.70195 11.6157 4.91068 11.9865 4.50138 12.3295C4.26336 12.7549 4.1344 13.2326 4.12599 13.7199" fill="white"/>
</svg>
