<svg width="16" height="16" viewBox="0 0 16 16" fill="none" xmlns="http://www.w3.org/2000/svg">
<mask id="path-1-inside-1_574_16499" fill="white">
<path d="M11.5197 8.00015L7.99977 4.48025L7.99977 8.00015H11.5197Z"/>
<path d="M7.99977 0L15.9995 7.99977L11.5197 8.00015L7.99977 4.48025L7.99977 8.00015L7.99977 0Z"/>
<path d="M4.47987 7.99907L7.99977 11.519L7.99977 8.00015L4.47987 7.99907Z"/>
<path d="M7.99977 15.9992L0 7.99944L4.47987 7.99907L7.99977 11.519V15.9992Z"/>
<path d="M7.99797 4.47971L4.47807 7.99961L7.99797 7.99961V4.47971Z"/>
<path d="M7.99977 0L0 7.99944L4.47987 7.99907L7.99977 4.48025V0Z"/>
<path d="M8.00157 11.5195L11.5215 7.99961L8.00157 7.99961L8.00157 11.5195Z"/>
<path d="M7.99977 15.9992L15.9995 7.99977L11.5215 7.99961L8.00157 11.5195L7.99977 8.00015L7.99977 15.9992Z"/>
</mask>
<path d="M11.5197 8.00015L7.99977 4.48025L7.99977 8.00015H11.5197Z" fill="#A9A9A9"/>
<path d="M7.99977 0L15.9995 7.99977L11.5197 8.00015L7.99977 4.48025L7.99977 8.00015L7.99977 0Z" fill="#A9A9A9"/>
<path d="M4.47987 7.99907L7.99977 11.519L7.99977 8.00015L4.47987 7.99907Z" fill="#A9A9A9"/>
<path d="M7.99977 15.9992L0 7.99944L4.47987 7.99907L7.99977 11.519V15.9992Z" fill="#A9A9A9"/>
<path d="M7.99797 4.47971L4.47807 7.99961L7.99797 7.99961V4.47971Z" fill="#A9A9A9"/>
<path d="M7.99977 0L0 7.99944L4.47987 7.99907L7.99977 4.48025V0Z" fill="#A9A9A9"/>
<path d="M8.00157 11.5195L11.5215 7.99961L8.00157 7.99961L8.00157 11.5195Z" fill="#A9A9A9"/>
<path d="M7.99977 15.9992L15.9995 7.99977L11.5215 7.99961L8.00157 11.5195L7.99977 8.00015L7.99977 15.9992Z" fill="#A9A9A9"/>
<path d="M7.99977 4.48025L8.01108 4.46894L7.98377 4.44162V4.48025H7.99977ZM4.47987 7.99907L4.49587 7.98307L4.47987 7.98307L4.47987 7.99907ZM7.98846 4.49156L11.5084 8.01146L11.531 7.98884L8.01108 4.46894L7.98846 4.49156ZM8.01577 8.00015V4.48025H7.98377L7.98377 8.00015H8.01577ZM8.01108 11.5077L4.49118 7.98775L4.46856 8.01038L7.98846 11.5303L8.01108 11.5077ZM4.47987 7.98307L-1.34325e-06 7.98344L1.34325e-06 8.01544L4.47987 8.01507L4.47987 7.98307ZM11.5102 7.9883L7.99026 11.5082L8.01289 11.5308L11.5328 8.01092L11.5102 7.9883ZM7.99977 4.48025L8.02239 4.50288L8.03177 4.49351V4.48025H7.99977ZM11.5197 8.00015V8.03215H11.5197L11.5197 8.00015ZM15.9995 7.99977L16.0222 8.0224L16.0448 7.99977L16.0222 7.97715L15.9995 7.99977ZM7.99977 0L8.0224 -0.0226268L7.99977 -0.0452531L7.97714 -0.0226272L7.99977 0ZM7.99977 11.519H8.03177H7.99977ZM4.47987 7.99907L4.45725 7.97644L4.40263 8.03104L4.47986 8.03107L4.47987 7.99907ZM0 7.99944L-0.0226263 7.97682L-0.045254 7.99944L-0.0226268 8.02207L0 7.99944ZM7.99977 15.9992L7.97714 16.0218L7.99977 16.0445L8.0224 16.0218L7.99977 15.9992ZM4.47807 7.99961L4.45544 7.97698L4.40082 8.03161H4.47807V7.99961ZM7.99797 4.47971H8.02997V4.40246L7.97534 4.45708L7.99797 4.47971ZM7.99797 7.99961V8.03161H8.02997V7.99961H7.99797ZM11.5215 7.99961L11.5215 7.96761H11.5215V7.99961ZM8.00157 11.5195L7.96957 11.5195L8.03357 11.5195H8.00157ZM8.00157 7.99961V7.96761H7.96957V7.99961H8.00157ZM11.5197 7.96815H7.99977V8.03215H11.5197V7.96815ZM16.0222 7.97715L8.0224 -0.0226268L7.97714 0.0226268L15.9769 8.0224L16.0222 7.97715ZM11.5197 8.03215L15.9995 8.03177L15.9995 7.96778L11.5197 7.96815L11.5197 8.03215ZM7.96777 -3.05147e-09L7.96777 8.00015H8.03177L8.03177 3.05147e-09L7.96777 -3.05147e-09ZM4.47986 8.03107L7.99976 8.03215L7.99978 7.96815L4.47988 7.96707L4.47986 8.03107ZM7.96777 8.00015L7.96777 11.519H8.03177L8.03177 8.00015H7.96777ZM-0.0226268 8.02207L7.97714 16.0218L8.0224 15.9766L0.0226268 7.97682L-0.0226268 8.02207ZM8.03177 15.9992V11.519H7.96777V15.9992H8.03177ZM4.50069 8.02224L8.0206 4.50234L7.97534 4.45708L4.45544 7.97698L4.50069 8.02224ZM7.96597 4.47971V7.99961H8.02997V4.47971H7.96597ZM7.99797 7.96761L4.47807 7.96761V8.03161H7.99797V7.96761ZM0.0226263 8.02207L8.0224 0.0226272L7.97714 -0.0226272L-0.0226263 7.97682L0.0226263 8.02207ZM4.50249 8.0217L8.02239 4.50288L7.97715 4.45762L4.45725 7.97644L4.50249 8.0217ZM7.96777 0V4.48025H8.03177V0H7.96777ZM8.03357 11.5195L8.03357 7.99961H7.96957L7.96957 11.5195H8.03357ZM8.00157 8.03161L11.5215 8.03161V7.96761L8.00157 7.96761V8.03161ZM15.9769 7.97715L7.97714 15.9766L8.0224 16.0218L16.0222 8.0224L15.9769 7.97715ZM11.5215 8.03161L15.9995 8.03177L15.9995 7.96778L11.5215 7.96761L11.5215 8.03161ZM8.03357 11.5195L8.03177 8.00013L7.96777 8.00017L7.96957 11.5195L8.03357 11.5195ZM8.03177 15.9992L8.03177 8.00015H7.96777L7.96777 15.9992H8.03177Z" fill="url(#paint0_linear_574_16499)" mask="url(#path-1-inside-1_574_16499)"/>
<path d="M11.5199 7.99988L8 4.47998L8 7.99988L11.5199 7.99988Z" fill="url(#paint1_linear_574_16499)"/>
<mask id="path-4-inside-2_574_16499" fill="white">
<path fill-rule="evenodd" clip-rule="evenodd" d="M8.00098 0L16.0007 7.99977L11.5206 7.99977L8.00098 4.48017L8.00098 0Z"/>
</mask>
<path fill-rule="evenodd" clip-rule="evenodd" d="M8.00098 0L16.0007 7.99977L11.5206 7.99977L8.00098 4.48017L8.00098 0Z" fill="url(#paint2_linear_574_16499)"/>
<path d="M16.0007 7.99977L16.0007 8.03177L16.078 8.03177L16.0234 7.97715L16.0007 7.99977ZM8.00098 0L8.0236 -0.0226268L7.96898 -0.0772527L7.96898 -5.5949e-09L8.00098 0ZM11.5206 7.99977L11.498 8.0224L11.5073 8.03177L11.5206 8.03177L11.5206 7.99977ZM8.00098 4.48017L7.96898 4.48017L7.96898 4.49342L7.97835 4.5028L8.00098 4.48017ZM16.0234 7.97715L8.0236 -0.0226268L7.97835 0.0226268L15.9781 8.0224L16.0234 7.97715ZM11.5206 8.03177L16.0007 8.03177L16.0007 7.96778L11.5206 7.96777L11.5206 8.03177ZM11.5432 7.97715L8.0236 4.45754L7.97835 4.5028L11.498 8.0224L11.5432 7.97715ZM7.96898 -5.5949e-09L7.96898 4.48017L8.03297 4.48017L8.03298 5.5949e-09L7.96898 -5.5949e-09Z" fill="url(#paint3_linear_574_16499)" mask="url(#path-4-inside-2_574_16499)"/>
<path d="M4.4801 7.99914L8 11.519L8 7.99914L4.4801 7.99914Z" fill="url(#paint4_linear_574_16499)"/>
<mask id="path-7-inside-3_574_16499" fill="white">
<path fill-rule="evenodd" clip-rule="evenodd" d="M8.00098 15.9985L0.00120564 7.99876L4.48137 7.99876L8.00098 11.5184L8.00098 15.9985Z"/>
</mask>
<path fill-rule="evenodd" clip-rule="evenodd" d="M8.00098 15.9985L0.00120564 7.99876L4.48137 7.99876L8.00098 11.5184L8.00098 15.9985Z" fill="url(#paint5_linear_574_16499)"/>
<path d="M0.00120564 7.99876L0.00120564 7.96676L-0.0760467 7.96676L-0.0214212 8.02139L0.00120564 7.99876ZM8.00098 15.9985L7.97835 16.0212L8.03298 16.0758L8.03298 15.9985L8.00098 15.9985ZM4.48137 7.99876L4.504 7.97613L4.49463 7.96676L4.48137 7.96676L4.48137 7.99876ZM8.00098 11.5184L8.03298 11.5184L8.03298 11.5051L8.0236 11.4957L8.00098 11.5184ZM-0.0214212 8.02139L7.97835 16.0212L8.0236 15.9759L0.0238325 7.97613L-0.0214212 8.02139ZM4.48137 7.96676L0.00120564 7.96676L0.00120563 8.03076L4.48137 8.03076L4.48137 7.96676ZM4.45875 8.02139L7.97835 11.541L8.0236 11.4957L4.504 7.97613L4.45875 8.02139ZM8.03298 15.9985L8.03298 11.5184L7.96898 11.5184L7.96898 15.9985L8.03298 15.9985Z" fill="url(#paint6_linear_574_16499)" mask="url(#path-7-inside-3_574_16499)"/>
<path d="M7.99842 4.47961L4.47852 7.99951L7.99842 7.99951L7.99842 4.47961Z" fill="url(#paint7_linear_574_16499)"/>
<mask id="path-10-inside-4_574_16499" fill="white">
<path fill-rule="evenodd" clip-rule="evenodd" d="M8.00098 0L0.00120214 7.99977L4.48137 7.99977L8.00098 4.48017L8.00098 0Z"/>
</mask>
<path fill-rule="evenodd" clip-rule="evenodd" d="M8.00098 0L0.00120214 7.99977L4.48137 7.99977L8.00098 4.48017L8.00098 0Z" fill="url(#paint8_linear_574_16499)"/>
<path d="M0.00120214 7.99977L0.00120213 8.03177L-0.0760503 8.03177L-0.0214247 7.97714L0.00120214 7.99977ZM8.00098 0L7.97835 -0.0226268L8.03298 -0.0772527L8.03298 5.5949e-09L8.00098 0ZM4.48137 7.99977L4.504 8.0224L4.49463 8.03177L4.48137 8.03177L4.48137 7.99977ZM8.00098 4.48017L8.03297 4.48017L8.03297 4.49342L8.0236 4.5028L8.00098 4.48017ZM-0.0214247 7.97714L7.97835 -0.0226268L8.0236 0.0226268L0.023829 8.0224L-0.0214247 7.97714ZM4.48137 8.03177L0.00120213 8.03177L0.00120214 7.96777L4.48137 7.96777L4.48137 8.03177ZM4.45874 7.97715L7.97835 4.45754L8.0236 4.5028L4.504 8.0224L4.45874 7.97715ZM8.03298 5.5949e-09L8.03297 4.48017L7.96898 4.48017L7.96898 -5.5949e-09L8.03298 5.5949e-09Z" fill="url(#paint9_linear_574_16499)" mask="url(#path-10-inside-4_574_16499)"/>
<path d="M8.00256 11.5194L11.5225 7.99951L8.00256 7.99951L8.00256 11.5194Z" fill="url(#paint10_linear_574_16499)"/>
<mask id="path-13-inside-5_574_16499" fill="white">
<path fill-rule="evenodd" clip-rule="evenodd" d="M8.00098 15.9985L16.0008 7.99876L11.5206 7.99876L8.00098 11.5184L8.00098 15.9985Z"/>
</mask>
<path fill-rule="evenodd" clip-rule="evenodd" d="M8.00098 15.9985L16.0008 7.99876L11.5206 7.99876L8.00098 11.5184L8.00098 15.9985Z" fill="url(#paint11_linear_574_16499)"/>
<path d="M16.0008 7.99876L16.0008 7.96677L16.078 7.96677L16.0234 8.02139L16.0008 7.99876ZM8.00098 15.9985L8.0236 16.0212L7.96898 16.0758L7.96898 15.9985L8.00098 15.9985ZM11.5206 7.99876L11.498 7.97614L11.5073 7.96676L11.5206 7.96676L11.5206 7.99876ZM8.00098 11.5184L7.96898 11.5184L7.96898 11.5051L7.97835 11.4957L8.00098 11.5184ZM16.0234 8.02139L8.0236 16.0212L7.97835 15.9759L15.9781 7.97614L16.0234 8.02139ZM11.5206 7.96676L16.0008 7.96677L16.0008 8.03076L11.5206 8.03076L11.5206 7.96676ZM11.5432 8.02139L8.0236 11.541L7.97835 11.4957L11.498 7.97614L11.5432 8.02139ZM7.96898 15.9985L7.96898 11.5184L8.03298 11.5184L8.03298 15.9985L7.96898 15.9985Z" fill="url(#paint12_linear_574_16499)" mask="url(#path-13-inside-5_574_16499)"/>
<defs>
<linearGradient id="paint0_linear_574_16499" x1="11.5515" y1="7.99944" x2="7.99961" y2="11.5513" gradientUnits="userSpaceOnUse">
<stop stop-color="white" stop-opacity="0.75"/>
<stop offset="1" stop-color="white" stop-opacity="0"/>
</linearGradient>
<linearGradient id="paint1_linear_574_16499" x1="9.75995" y1="6.23993" x2="8" y2="7.99988" gradientUnits="userSpaceOnUse">
<stop stop-color="white" stop-opacity="0.5"/>
<stop offset="1" stop-color="white" stop-opacity="0.32"/>
</linearGradient>
<linearGradient id="paint2_linear_574_16499" x1="16.0007" y1="7.99977" x2="3.85709" y2="2.87992" gradientUnits="userSpaceOnUse">
<stop stop-color="white" stop-opacity="0.5"/>
<stop offset="1" stop-color="white" stop-opacity="0.15"/>
</linearGradient>
<linearGradient id="paint3_linear_574_16499" x1="12.0009" y1="3.99989" x2="9.76093" y2="6.23982" gradientUnits="userSpaceOnUse">
<stop stop-color="white"/>
<stop offset="0.505" stop-color="white" stop-opacity="0.15"/>
<stop offset="1" stop-color="white"/>
</linearGradient>
<linearGradient id="paint4_linear_574_16499" x1="8" y1="7.99914" x2="6.24005" y2="9.75909" gradientUnits="userSpaceOnUse">
<stop stop-color="white" stop-opacity="0.32"/>
<stop offset="1" stop-color="white" stop-opacity="0.15"/>
</linearGradient>
<linearGradient id="paint5_linear_574_16499" x1="4.00109" y1="11.9986" x2="6.24103" y2="9.75871" gradientUnits="userSpaceOnUse">
<stop stop-color="white" stop-opacity="0.15"/>
<stop offset="1" stop-color="white" stop-opacity="0.5"/>
</linearGradient>
<linearGradient id="paint6_linear_574_16499" x1="6.22503" y1="9.77471" x2="4.00109" y2="11.9986" gradientUnits="userSpaceOnUse">
<stop stop-color="white"/>
<stop offset="1" stop-color="white" stop-opacity="0"/>
</linearGradient>
<linearGradient id="paint7_linear_574_16499" x1="7.99842" y1="4.47961" x2="4.47852" y2="7.99951" gradientUnits="userSpaceOnUse">
<stop stop-color="white" stop-opacity="0.5"/>
<stop offset="1" stop-color="white" stop-opacity="0.15"/>
</linearGradient>
<linearGradient id="paint8_linear_574_16499" x1="8.00098" y1="0" x2="0.00120166" y2="7.99977" gradientUnits="userSpaceOnUse">
<stop stop-color="white" stop-opacity="0.5"/>
<stop offset="1" stop-color="white" stop-opacity="0.15"/>
</linearGradient>
<linearGradient id="paint9_linear_574_16499" x1="8.00098" y1="4.47987" x2="4.48108" y2="7.99977" gradientUnits="userSpaceOnUse">
<stop stop-color="white" stop-opacity="0.75"/>
<stop offset="1" stop-color="white" stop-opacity="0"/>
</linearGradient>
<linearGradient id="paint10_linear_574_16499" x1="11.5225" y1="7.99951" x2="8.00256" y2="11.5194" gradientUnits="userSpaceOnUse">
<stop stop-color="white" stop-opacity="0.5"/>
<stop offset="1" stop-color="white" stop-opacity="0.15"/>
</linearGradient>
<linearGradient id="paint11_linear_574_16499" x1="16.0008" y1="7.99876" x2="8.00098" y2="15.9985" gradientUnits="userSpaceOnUse">
<stop stop-color="white" stop-opacity="0.5"/>
<stop offset="1" stop-color="white" stop-opacity="0.15"/>
</linearGradient>
<linearGradient id="paint12_linear_574_16499" x1="11.5529" y1="7.99876" x2="8.00098" y2="11.5507" gradientUnits="userSpaceOnUse">
<stop stop-color="white" stop-opacity="0.75"/>
<stop offset="1" stop-color="white" stop-opacity="0"/>
</linearGradient>
</defs>
</svg>
