<svg width="16" height="16" viewBox="0 0 16 16" fill="none" xmlns="http://www.w3.org/2000/svg">
<path d="M8.00033 3.50727e-06L12.0005 0L9.76041 4.48019H8.00033L8.00033 3.50727e-06Z" fill="#24FF00"/>
<path d="M16.0007 8.00034L11.5203 8.00034L9.76041 4.48019L12.0005 0L16.0007 8.00034Z" fill="#24FF00"/>
<path d="M8.00033 8.00034H11.5203L9.76041 4.48019H8.00033V8.00034Z" fill="#24FF00"/>
<path d="M8.00033 16L4.00017 16L6.24026 11.5198L8.00033 11.5198L8.00033 16Z" fill="#24FF00"/>
<path d="M0 7.99966L4.48037 7.99966L6.24026 11.5198L4.00017 16L0 7.99966Z" fill="#24FF00"/>
<path d="M8.00033 8.00034L4.48037 7.99966L6.24026 11.5198L8.00033 11.5198L8.00033 8.00034Z" fill="#24FF00"/>
<path d="M8.00033 3.50727e-06L4.00017 0L6.24026 4.48019H8.00033L8.00033 3.50727e-06Z" fill="#24FF00"/>
<path d="M0 7.99966L4.48037 7.99966L6.24026 4.48019L4.00017 0L0 7.99966Z" fill="#24FF00"/>
<path d="M8.00033 8.00034V4.48019H6.24026L4.47863 8.00039L8.00033 8.00034Z" fill="#24FF00"/>
<path d="M8.00033 16L12.0005 16L9.76041 11.5198L8.00033 11.5198L8.00033 16Z" fill="#24FF00"/>
<path d="M16.0007 8.00034L11.5203 8.00034L9.76041 11.5198L12.0005 16L16.0007 8.00034Z" fill="#24FF00"/>
<path d="M8.00033 8.00034L8.00189 11.5205H9.76196L11.522 8.00039L8.00033 8.00034Z" fill="#24FF00"/>
<path fill-rule="evenodd" clip-rule="evenodd" d="M7.99902 4.20661e-06L11.9992 6.99411e-07L9.7591 4.48019L9.7591 4.48017L7.99902 4.48017L7.99902 4.20661e-06Z" fill="white" fill-opacity="0.35"/>
<mask id="path-3-inside-1_574_16615" fill="white">
<path fill-rule="evenodd" clip-rule="evenodd" d="M15.9994 8.00034L7.99902 8.00034L7.99902 8.00032L11.5192 8.00032L9.7591 4.48019L11.9992 6.99411e-07L15.9994 8.00034Z"/>
</mask>
<path fill-rule="evenodd" clip-rule="evenodd" d="M15.9994 8.00034L7.99902 8.00034L7.99902 8.00032L11.5192 8.00032L9.7591 4.48019L11.9992 6.99411e-07L15.9994 8.00034Z" fill="url(#paint0_linear_574_16615)"/>
<path d="M7.99902 8.00034L7.96702 8.00034L7.96702 8.03234L7.99902 8.03234L7.99902 8.00034ZM15.9994 8.00034L15.9994 8.03234L16.0511 8.03234L16.028 7.98603L15.9994 8.00034ZM7.99902 8.00032L7.99902 7.96832L7.96702 7.96832L7.96702 8.00032L7.99902 8.00032ZM11.5192 8.00032L11.5192 8.03232L11.5709 8.03232L11.5478 7.98601L11.5192 8.00032ZM9.7591 4.48019L9.73047 4.46588L9.72332 4.48019L9.73047 4.4945L9.7591 4.48019ZM11.9992 6.99411e-07L12.0278 -0.0143107L11.9992 -0.0715565L11.9706 -0.0143107L11.9992 6.99411e-07ZM7.99902 8.03234L15.9994 8.03234L15.9994 7.96834L7.99902 7.96834L7.99902 8.03234ZM7.96702 8.00032L7.96702 8.00034L8.03102 8.00034L8.03102 8.00032L7.96702 8.00032ZM7.99902 8.03232L11.5192 8.03232L11.5192 7.96832L7.99902 7.96832L7.99902 8.03232ZM11.5478 7.98601L9.78772 4.46588L9.73047 4.4945L11.4905 8.01463L11.5478 7.98601ZM11.9706 -0.0143107L9.73047 4.46588L9.78772 4.4945L12.0278 0.0143121L11.9706 -0.0143107ZM16.028 7.98603L12.0278 -0.0143107L11.9706 0.0143121L15.9707 8.01465L16.028 7.98603Z" fill="url(#paint1_linear_574_16615)" mask="url(#path-3-inside-1_574_16615)"/>
<path d="M8 7.99964L11.5201 7.99964L9.76007 4.47949L8 4.47949L8 7.99964Z" fill="url(#paint2_linear_574_16615)"/>
<path fill-rule="evenodd" clip-rule="evenodd" d="M7.99902 16L3.99886 16L6.23895 11.5198L6.23895 11.5198L7.99902 11.5198L7.99902 16Z" fill="white" fill-opacity="0.35"/>
<mask id="path-7-inside-2_574_16615" fill="white">
<path fill-rule="evenodd" clip-rule="evenodd" d="M-0.00130895 7.99966L7.99902 7.99966L7.99902 7.99968L4.47888 7.99968L6.23895 11.5198L3.99886 16L-0.00130895 7.99966Z"/>
</mask>
<path fill-rule="evenodd" clip-rule="evenodd" d="M-0.00130895 7.99966L7.99902 7.99966L7.99902 7.99968L4.47888 7.99968L6.23895 11.5198L3.99886 16L-0.00130895 7.99966Z" fill="url(#paint3_linear_574_16615)"/>
<path d="M7.99902 7.99966L8.03103 7.99966L8.03103 7.96766L7.99902 7.96766L7.99902 7.99966ZM-0.00130895 7.99966L-0.00130894 7.96766L-0.0530877 7.96766L-0.0299316 8.01397L-0.00130895 7.99966ZM7.99902 7.99968L7.99902 8.03168L8.03103 8.03168L8.03103 7.99968L7.99902 7.99968ZM4.47888 7.99968L4.47888 7.96768L4.4271 7.96768L4.45025 8.01399L4.47888 7.99968ZM6.23895 11.5198L6.26757 11.5341L6.27473 11.5198L6.26757 11.5055L6.23895 11.5198ZM3.99886 16L3.97023 16.0143L3.99886 16.0716L4.02748 16.0143L3.99886 16ZM7.99902 7.96766L-0.00130894 7.96766L-0.00130896 8.03166L7.99902 8.03166L7.99902 7.96766ZM8.03103 7.99968L8.03103 7.99966L7.96702 7.99966L7.96702 7.99968L8.03103 7.99968ZM7.99902 7.96768L4.47888 7.96768L4.47888 8.03168L7.99902 8.03168L7.99902 7.96768ZM4.45025 8.01399L6.21033 11.5341L6.26757 11.5055L4.5075 7.98537L4.45025 8.01399ZM4.02748 16.0143L6.26757 11.5341L6.21033 11.5055L3.97023 15.9857L4.02748 16.0143ZM-0.0299316 8.01397L3.97023 16.0143L4.02748 15.9857L0.0273142 7.98535L-0.0299316 8.01397Z" fill="url(#paint4_linear_574_16615)" mask="url(#path-7-inside-2_574_16615)"/>
<path d="M8 7.99987L4.47985 7.99987L6.23993 11.52L8 11.52L8 7.99987Z" fill="url(#paint5_linear_574_16615)"/>
<path fill-rule="evenodd" clip-rule="evenodd" d="M7.99902 4.20651e-06L3.99886 6.99411e-07L6.23895 4.48019L6.23895 4.48017L7.99902 4.48017L7.99902 4.20651e-06Z" fill="white" fill-opacity="0.35"/>
<mask id="path-11-inside-3_574_16615" fill="white">
<path fill-rule="evenodd" clip-rule="evenodd" d="M-0.00130895 8.00034L7.99902 8.00034L7.99902 8.00032L4.47888 8.00032L6.23895 4.48019L3.99886 6.99411e-07L-0.00130895 8.00034Z"/>
</mask>
<path fill-rule="evenodd" clip-rule="evenodd" d="M-0.00130895 8.00034L7.99902 8.00034L7.99902 8.00032L4.47888 8.00032L6.23895 4.48019L3.99886 6.99411e-07L-0.00130895 8.00034Z" fill="url(#paint6_linear_574_16615)"/>
<path d="M7.99902 8.00034L8.03103 8.00034L8.03103 8.03234L7.99902 8.03234L7.99902 8.00034ZM-0.00130895 8.00034L-0.00130894 8.03234L-0.0530877 8.03234L-0.0299316 7.98603L-0.00130895 8.00034ZM7.99902 8.00032L7.99902 7.96832L8.03103 7.96832L8.03103 8.00032L7.99902 8.00032ZM4.47888 8.00032L4.47888 8.03232L4.4271 8.03232L4.45025 7.98601L4.47888 8.00032ZM6.23895 4.48019L6.26757 4.46588L6.27473 4.48019L6.26757 4.4945L6.23895 4.48019ZM3.99886 6.99411e-07L3.97023 -0.0143107L3.99886 -0.0715565L4.02748 -0.0143107L3.99886 6.99411e-07ZM7.99902 8.03234L-0.00130894 8.03234L-0.00130896 7.96834L7.99902 7.96834L7.99902 8.03234ZM8.03103 8.00032L8.03103 8.00034L7.96702 8.00034L7.96702 8.00032L8.03103 8.00032ZM7.99902 8.03232L4.47888 8.03232L4.47888 7.96832L7.99902 7.96832L7.99902 8.03232ZM4.45025 7.98601L6.21033 4.46588L6.26757 4.4945L4.5075 8.01463L4.45025 7.98601ZM4.02748 -0.0143107L6.26757 4.46588L6.21033 4.4945L3.97023 0.0143121L4.02748 -0.0143107ZM-0.0299316 7.98603L3.97023 -0.0143107L4.02748 0.0143121L0.0273142 8.01465L-0.0299316 7.98603Z" fill="url(#paint7_linear_574_16615)" mask="url(#path-11-inside-3_574_16615)"/>
<path d="M7.99866 8.00049L7.99866 4.48034L6.23859 4.48034L4.47852 8.00049L7.99866 8.00049Z" fill="url(#paint8_linear_574_16615)"/>
<path fill-rule="evenodd" clip-rule="evenodd" d="M7.99902 16L11.9992 16L9.7591 11.5198L9.7591 11.5198L7.99902 11.5198L7.99902 16Z" fill="white" fill-opacity="0.35"/>
<mask id="path-15-inside-4_574_16615" fill="white">
<path fill-rule="evenodd" clip-rule="evenodd" d="M15.9994 7.99966L7.99902 7.99966L7.99902 7.99968L11.5192 7.99968L9.7591 11.5198L11.9992 16L15.9994 7.99966Z"/>
</mask>
<path fill-rule="evenodd" clip-rule="evenodd" d="M15.9994 7.99966L7.99902 7.99966L7.99902 7.99968L11.5192 7.99968L9.7591 11.5198L11.9992 16L15.9994 7.99966Z" fill="url(#paint9_linear_574_16615)"/>
<path d="M7.99902 7.99966L7.96702 7.99966L7.96702 7.96766L7.99902 7.96766L7.99902 7.99966ZM15.9994 7.99966L15.9994 7.96766L16.0511 7.96766L16.028 8.01397L15.9994 7.99966ZM7.99902 7.99968L7.99902 8.03168L7.96702 8.03168L7.96702 7.99968L7.99902 7.99968ZM11.5192 7.99968L11.5192 7.96768L11.5709 7.96768L11.5478 8.01399L11.5192 7.99968ZM9.7591 11.5198L9.73047 11.5341L9.72332 11.5198L9.73047 11.5055L9.7591 11.5198ZM11.9992 16L12.0278 16.0143L11.9992 16.0716L11.9706 16.0143L11.9992 16ZM7.99902 7.96766L15.9994 7.96766L15.9994 8.03166L7.99902 8.03166L7.99902 7.96766ZM7.96702 7.99968L7.96702 7.99966L8.03102 7.99966L8.03102 7.99968L7.96702 7.99968ZM7.99902 7.96768L11.5192 7.96768L11.5192 8.03168L7.99902 8.03168L7.99902 7.96768ZM11.5478 8.01399L9.78772 11.5341L9.73047 11.5055L11.4905 7.98537L11.5478 8.01399ZM11.9706 16.0143L9.73047 11.5341L9.78772 11.5055L12.0278 15.9857L11.9706 16.0143ZM16.028 8.01397L12.0278 16.0143L11.9706 15.9857L15.9707 7.98535L16.028 8.01397Z" fill="url(#paint10_linear_574_16615)" mask="url(#path-15-inside-4_574_16615)"/>
<path d="M8.00134 8.00049L8.00134 11.5206L9.76141 11.5206L11.5215 8.00049L8.00134 8.00049Z" fill="url(#paint11_linear_574_16615)"/>
<defs>
<linearGradient id="paint0_linear_574_16615" x1="10.6551" y1="6.27226" x2="14.2073" y2="4.41619" gradientUnits="userSpaceOnUse">
<stop stop-color="white" stop-opacity="0.15"/>
<stop offset="1" stop-color="white" stop-opacity="0.5"/>
</linearGradient>
<linearGradient id="paint1_linear_574_16615" x1="11.9992" y1="7.13717e-07" x2="11.5192" y2="8.00034" gradientUnits="userSpaceOnUse">
<stop stop-color="white"/>
<stop offset="1" stop-color="white" stop-opacity="0"/>
</linearGradient>
<linearGradient id="paint2_linear_574_16615" x1="9.76007" y1="6.23957" x2="8" y2="7.99964" gradientUnits="userSpaceOnUse">
<stop stop-color="white" stop-opacity="0.5"/>
<stop offset="1" stop-color="white" stop-opacity="0.32"/>
</linearGradient>
<linearGradient id="paint3_linear_574_16615" x1="5.34291" y1="9.72774" x2="1.98277" y2="11.9678" gradientUnits="userSpaceOnUse">
<stop stop-color="white" stop-opacity="0.5"/>
<stop offset="1" stop-color="white" stop-opacity="0.15"/>
</linearGradient>
<linearGradient id="paint4_linear_574_16615" x1="5.34291" y1="9.79174" x2="2.01477" y2="11.9678" gradientUnits="userSpaceOnUse">
<stop stop-color="white"/>
<stop offset="1" stop-color="white" stop-opacity="0"/>
</linearGradient>
<linearGradient id="paint5_linear_574_16615" x1="8" y1="7.99987" x2="6.23993" y2="9.75995" gradientUnits="userSpaceOnUse">
<stop stop-color="white" stop-opacity="0.32"/>
<stop offset="1" stop-color="white" stop-opacity="0.15"/>
</linearGradient>
<linearGradient id="paint6_linear_574_16615" x1="-0.00131003" y1="8.00033" x2="6.23895" y2="4.48018" gradientUnits="userSpaceOnUse">
<stop stop-color="white" stop-opacity="0.15"/>
<stop offset="1" stop-color="white" stop-opacity="0.5"/>
</linearGradient>
<linearGradient id="paint7_linear_574_16615" x1="4.47888" y1="8.00034" x2="3.99886" y2="5.51284e-07" gradientUnits="userSpaceOnUse">
<stop stop-color="white" stop-opacity="0"/>
<stop offset="1" stop-color="white"/>
</linearGradient>
<linearGradient id="paint8_linear_574_16615" x1="7.99866" y1="4.48034" x2="4.47852" y2="8.00049" gradientUnits="userSpaceOnUse">
<stop stop-color="white" stop-opacity="0.5"/>
<stop offset="1" stop-color="white" stop-opacity="0.15"/>
</linearGradient>
<linearGradient id="paint9_linear_574_16615" x1="15.9994" y1="7.99966" x2="9.7591" y2="11.5198" gradientUnits="userSpaceOnUse">
<stop stop-color="white" stop-opacity="0.5"/>
<stop offset="1" stop-color="white" stop-opacity="0.15"/>
</linearGradient>
<linearGradient id="paint10_linear_574_16615" x1="9.7911" y1="11.5198" x2="15.9994" y2="7.99967" gradientUnits="userSpaceOnUse">
<stop stop-color="white" stop-opacity="0"/>
<stop offset="1" stop-color="white"/>
</linearGradient>
<linearGradient id="paint11_linear_574_16615" x1="11.5215" y1="8.00049" x2="8.00134" y2="11.5206" gradientUnits="userSpaceOnUse">
<stop stop-color="white" stop-opacity="0.5"/>
<stop offset="1" stop-color="white" stop-opacity="0.15"/>
</linearGradient>
</defs>
</svg>
