<svg width="17" height="16" viewBox="0 0 17 16" fill="none" xmlns="http://www.w3.org/2000/svg">
<path d="M8.0067 8.00799L8.0067 4.48452H7.12583L6.24496 6.24626L4.48322 7.12713V8.00799L8.0067 8.00799Z" fill="#8F00FF"/>
<path d="M6.00258 0H8.00456L8.00456 4.48442H7.12369L6.00258 0Z" fill="#8F00FF"/>
<path d="M4.00204 4.00395L6.00258 0L7.12583 4.48452L6.24496 6.24626L4.00204 4.00395Z" fill="#8F00FF"/>
<path d="M-0.00195312 6.00597L4.00204 4.00395L6.24496 6.24626L4.48322 7.12713L-0.00195312 6.00597Z" fill="#8F00FF"/>
<path d="M4.48322 8.00799L-0.00195312 8.00797V6.00597L4.48322 7.12713V8.00799Z" fill="#8F00FF"/>
<path d="M8.0067 8.00799L4.48322 8.00799L4.48257 8.88821L6.2443 9.76907L7.12517 11.5308H8.00604L8.0067 8.00799Z" fill="#8F00FF"/>
<path d="M6.00258 15.9992H8.00456L8.00456 11.5148H7.12369L6.00258 15.9992Z" fill="#8F00FF"/>
<path d="M4.00204 11.9953L6.00258 15.9992L7.12369 11.5148L6.24425 9.75306L4.00204 11.9953Z" fill="#8F00FF"/>
<path d="M-0.00195312 9.99325L4.00204 11.9953L6.24425 9.75306L4.48247 8.87214L-0.00195312 9.99325Z" fill="#8F00FF"/>
<path d="M4.48322 8.00799L-0.00195312 8.00797V10.0093L4.48257 8.88821L4.48322 8.00799Z" fill="#8F00FF"/>
<path d="M8.0067 8.00799L11.5295 8.00792V7.12705L9.76778 6.24618L8.88691 4.48445L8.00456 4.48442L8.0067 8.00799Z" fill="#8F00FF"/>
<path d="M10.0066 0H8.00456L8.00456 4.48442L8.88691 4.48445L10.0066 0Z" fill="#8F00FF"/>
<path d="M12.01 4.00395L10.0066 0L8.88691 4.48445L9.76778 6.24618L12.01 4.00395Z" fill="#8F00FF"/>
<path d="M16.014 6.00597L12.01 4.00395L9.76778 6.24618L11.5295 7.12705L16.014 6.00597Z" fill="#8F00FF"/>
<path d="M11.5295 8.00792L16.014 8.00794V6.00597L11.5295 7.12705V8.00792Z" fill="#8F00FF"/>
<path d="M8.00538 8.00726L8.00604 11.5308L8.88625 11.5307L9.76712 9.769L11.5289 8.88813L11.5295 8.00792L8.00538 8.00726Z" fill="#8F00FF"/>
<path d="M10.0066 15.9992H8.00456L8.00456 11.5148H8.88547L10.0066 15.9992Z" fill="#8F00FF"/>
<path d="M12.01 11.9953L10.0066 15.9992L8.88547 11.5148L9.76783 9.75306L12.01 11.9953Z" fill="#8F00FF"/>
<path d="M16.014 9.99325L12.01 11.9953L9.76783 9.75306L11.5296 8.87214L16.014 9.99325Z" fill="#8F00FF"/>
<path d="M11.5295 8.00792L16.014 8.00794V9.99325L11.5296 8.87214L11.5295 8.00792Z" fill="#8F00FF"/>
<path d="M8.00785 8.0083L8.00785 4.48483L7.12698 4.48483L6.24611 6.24656L4.48438 7.12743L4.48438 8.0083L8.00785 8.0083Z" fill="url(#paint0_linear_574_16559)"/>
<path d="M6.00586 0H8.00783L8.00783 4.48442L7.12697 4.48442L6.00586 0Z" fill="url(#paint1_linear_574_16559)"/>
<path d="M6.2388 6.21912L4.02046 4.00078L5.99791 0.0458865L7.10708 4.48256L6.2388 6.21912Z" fill="url(#paint2_linear_574_16559)" stroke="url(#paint3_linear_574_16559)" stroke-width="0.0320316"/>
<path d="M4.4806 7.10952L0.0439334 6.00035L3.99883 4.02291L6.21717 6.24124L4.4806 7.10952Z" fill="url(#paint4_linear_574_16559)" stroke="url(#paint5_linear_574_16559)" stroke-width="0.0320316"/>
<path d="M4.48247 8.00783L-0.00195312 8.00783V6.00586L4.48247 7.12696L4.48247 8.00783Z" fill="url(#paint6_linear_574_16559)"/>
<path d="M8.00781 8.00729L4.48434 8.00729L4.48434 8.88816L6.24608 9.76902L7.12694 11.5308L8.00781 11.5308L8.00781 8.00729Z" fill="url(#paint7_linear_574_16559)"/>
<path d="M6.00586 15.9995H8.00783L8.00783 11.5151L7.12697 11.5151L6.00586 15.9995Z" fill="url(#paint8_linear_574_16559)"/>
<path d="M6.2388 9.78039L4.02046 11.9987L5.99791 15.9536L7.10708 11.517L6.2388 9.78039Z" fill="url(#paint9_linear_574_16559)" stroke="url(#paint10_linear_574_16559)" stroke-width="0.0320316"/>
<path d="M4.4806 8.8895L0.0439334 9.99867L3.99883 11.9761L6.21717 9.75778L4.4806 8.8895Z" fill="url(#paint11_linear_574_16559)" stroke="url(#paint12_linear_574_16559)" stroke-width="0.0320316"/>
<path d="M4.48247 8.00682L-0.00195312 8.00682V10.0088L4.48247 8.88768L4.48247 8.00682Z" fill="url(#paint13_linear_574_16559)"/>
<path d="M8.00098 8.00785L11.5244 8.00785L11.5244 7.12698L9.76271 6.24611L8.88184 4.48438L8.00098 4.48438L8.00098 8.00785Z" fill="url(#paint14_linear_574_16559)"/>
<path d="M10.001 0H7.999L7.999 4.48442L8.87987 4.48442L10.001 0Z" fill="url(#paint15_linear_574_16559)"/>
<path d="M9.76804 6.21912L11.9864 4.00078L10.0089 0.0458865L8.89975 4.48256L9.76804 6.21912Z" fill="url(#paint16_linear_574_16559)" stroke="url(#paint17_linear_574_16559)" stroke-width="0.0320316"/>
<path d="M16.0078 6.00539L12.0039 4.00342L9.76165 6.24563L11.5234 7.1265L16.0078 6.00539Z" fill="url(#paint18_linear_574_16559)"/>
<path d="M11.5394 7.99179H15.9918V6.02637L11.5394 7.13944V7.99179Z" fill="url(#paint19_linear_574_16559)" stroke="url(#paint20_linear_574_16559)" stroke-width="0.0320316"/>
<path d="M7.99899 8.00732L7.99899 11.5308L8.87986 11.5308L9.76072 9.76906L11.5225 8.88819L11.5225 8.00732L7.99899 8.00732Z" fill="url(#paint21_linear_574_16559)"/>
<path d="M10.001 15.9995H7.999L7.999 11.5151L8.87987 11.5151L10.001 15.9995Z" fill="url(#paint22_linear_574_16559)"/>
<path d="M9.76804 9.78039L11.9864 11.9987L10.0089 15.9536L8.89975 11.517L9.76804 9.78039Z" fill="url(#paint23_linear_574_16559)" stroke="url(#paint24_linear_574_16559)" stroke-width="0.0320316"/>
<path d="M11.5253 8.8895L15.9619 9.99867L12.007 11.9761L9.78869 9.75778L11.5253 8.8895Z" fill="url(#paint25_linear_574_16559)" stroke="url(#paint26_linear_574_16559)" stroke-width="0.0320316"/>
<path d="M11.5394 8.02319L15.9918 8.02319V9.97265L11.5394 8.85955V8.02319Z" fill="url(#paint27_linear_574_16559)" stroke="url(#paint28_linear_574_16559)" stroke-width="0.0320316"/>
<defs>
<linearGradient id="paint0_linear_574_16559" x1="8.00785" y1="4.48483" x2="4.48437" y2="8.0083" gradientUnits="userSpaceOnUse">
<stop stop-color="white" stop-opacity="0.5"/>
<stop offset="1" stop-color="white" stop-opacity="0.15"/>
</linearGradient>
<linearGradient id="paint1_linear_574_16559" x1="7.00685" y1="0" x2="7.00685" y2="4.48442" gradientUnits="userSpaceOnUse">
<stop stop-color="white" stop-opacity="0.5"/>
<stop offset="1" stop-color="white" stop-opacity="0.35"/>
</linearGradient>
<linearGradient id="paint2_linear_574_16559" x1="4.03301" y1="4.00395" x2="8.94985" y2="4.13207" gradientUnits="userSpaceOnUse">
<stop stop-color="white" stop-opacity="0.5"/>
<stop offset="1" stop-color="white" stop-opacity="0.15"/>
</linearGradient>
<linearGradient id="paint3_linear_574_16559" x1="2.86386" y1="-1.08907" x2="7.44437" y2="4.7727" gradientUnits="userSpaceOnUse">
<stop stop-color="white" stop-opacity="0.75"/>
<stop offset="1" stop-color="white" stop-opacity="0"/>
</linearGradient>
<linearGradient id="paint4_linear_574_16559" x1="3.98598" y1="4.00342" x2="9.78369" y2="9.75309" gradientUnits="userSpaceOnUse">
<stop stop-color="white" stop-opacity="0.5"/>
<stop offset="1" stop-color="white" stop-opacity="0.15"/>
</linearGradient>
<linearGradient id="paint5_linear_574_16559" x1="4.00199" y1="4.00342" x2="4.48247" y2="7.1265" gradientUnits="userSpaceOnUse">
<stop stop-color="white" stop-opacity="0.75"/>
<stop offset="1" stop-color="white" stop-opacity="0"/>
</linearGradient>
<linearGradient id="paint6_linear_574_16559" x1="4.48247" y1="8.00783" x2="-0.00195314" y2="8.00783" gradientUnits="userSpaceOnUse">
<stop stop-color="white" stop-opacity="0.5"/>
<stop offset="1" stop-color="white" stop-opacity="0.15"/>
</linearGradient>
<linearGradient id="paint7_linear_574_16559" x1="8.00781" y1="8.00729" x2="6.24608" y2="9.76903" gradientUnits="userSpaceOnUse">
<stop stop-color="white" stop-opacity="0.32"/>
<stop offset="1" stop-color="white" stop-opacity="0.15"/>
</linearGradient>
<linearGradient id="paint8_linear_574_16559" x1="7.00685" y1="11.5151" x2="7.00685" y2="15.9995" gradientUnits="userSpaceOnUse">
<stop stop-color="white" stop-opacity="0.35"/>
<stop offset="1" stop-color="white" stop-opacity="0.5"/>
</linearGradient>
<linearGradient id="paint9_linear_574_16559" x1="5.56252" y1="15.9995" x2="5.56252" y2="9.75336" gradientUnits="userSpaceOnUse">
<stop stop-color="white" stop-opacity="0.5"/>
<stop offset="1" stop-color="white" stop-opacity="0.15"/>
</linearGradient>
<linearGradient id="paint10_linear_574_16559" x1="8.00492" y1="11.5151" x2="4.48145" y2="7.99162" gradientUnits="userSpaceOnUse">
<stop stop-color="white" stop-opacity="0.25"/>
<stop offset="1" stop-color="white" stop-opacity="0"/>
</linearGradient>
<linearGradient id="paint11_linear_574_16559" x1="3.12113" y1="11.9956" x2="3.12113" y2="8.87253" gradientUnits="userSpaceOnUse">
<stop stop-color="white" stop-opacity="0.5"/>
<stop offset="1" stop-color="white" stop-opacity="0.15"/>
</linearGradient>
<linearGradient id="paint12_linear_574_16559" x1="8.00594" y1="11.5151" x2="4.48247" y2="7.99166" gradientUnits="userSpaceOnUse">
<stop stop-color="white" stop-opacity="0.75"/>
<stop offset="1" stop-color="white" stop-opacity="0"/>
</linearGradient>
<linearGradient id="paint13_linear_574_16559" x1="4.48247" y1="8.88768" x2="-0.00195312" y2="8.88768" gradientUnits="userSpaceOnUse">
<stop stop-color="white" stop-opacity="0.5"/>
<stop offset="1" stop-color="white" stop-opacity="0.15"/>
</linearGradient>
<linearGradient id="paint14_linear_574_16559" x1="9.76271" y1="6.24611" x2="8.00098" y2="8.00785" gradientUnits="userSpaceOnUse">
<stop stop-color="white" stop-opacity="0.5"/>
<stop offset="1" stop-color="white" stop-opacity="0.32"/>
</linearGradient>
<linearGradient id="paint15_linear_574_16559" x1="8.99999" y1="0" x2="8.99999" y2="4.48442" gradientUnits="userSpaceOnUse">
<stop stop-color="white" stop-opacity="0.5"/>
<stop offset="1" stop-color="white" stop-opacity="0.35"/>
</linearGradient>
<linearGradient id="paint16_linear_574_16559" x1="12.0059" y1="3.93988" x2="9.36325" y2="2.6426" gradientUnits="userSpaceOnUse">
<stop stop-color="white" stop-opacity="0.5"/>
<stop offset="1" stop-color="white" stop-opacity="0.15"/>
</linearGradient>
<linearGradient id="paint17_linear_574_16559" x1="12.0059" y1="4.00395" x2="10.0039" y2="1.87243e-07" gradientUnits="userSpaceOnUse">
<stop stop-color="white" stop-opacity="0.25"/>
<stop offset="1" stop-color="white" stop-opacity="0"/>
</linearGradient>
<linearGradient id="paint18_linear_574_16559" x1="9.76166" y1="6.22961" x2="16.0078" y2="6.02141" gradientUnits="userSpaceOnUse">
<stop stop-color="white" stop-opacity="0.5"/>
<stop offset="1" stop-color="white" stop-opacity="0.15"/>
</linearGradient>
<linearGradient id="paint19_linear_574_16559" x1="16.0078" y1="7.62345" x2="11.5234" y2="7.62345" gradientUnits="userSpaceOnUse">
<stop stop-color="white" stop-opacity="0.35"/>
<stop offset="1" stop-color="white" stop-opacity="0.25"/>
</linearGradient>
<linearGradient id="paint20_linear_574_16559" x1="7.99992" y1="4.46834" x2="11.5234" y2="7.99182" gradientUnits="userSpaceOnUse">
<stop stop-color="white" stop-opacity="0.75"/>
<stop offset="1" stop-color="white" stop-opacity="0"/>
</linearGradient>
<linearGradient id="paint21_linear_574_16559" x1="11.5225" y1="8.00732" x2="7.99899" y2="11.5308" gradientUnits="userSpaceOnUse">
<stop stop-color="white" stop-opacity="0.5"/>
<stop offset="1" stop-color="white" stop-opacity="0.15"/>
</linearGradient>
<linearGradient id="paint22_linear_574_16559" x1="8.99999" y1="11.5151" x2="8.99999" y2="15.9995" gradientUnits="userSpaceOnUse">
<stop stop-color="white" stop-opacity="0.35"/>
<stop offset="1" stop-color="white" stop-opacity="0.5"/>
</linearGradient>
<linearGradient id="paint23_linear_574_16559" x1="10.0039" y1="15.9835" x2="8.91481" y2="11.5151" gradientUnits="userSpaceOnUse">
<stop stop-color="white" stop-opacity="0.5"/>
<stop offset="1" stop-color="white" stop-opacity="0.15"/>
</linearGradient>
<linearGradient id="paint24_linear_574_16559" x1="9.77966" y1="9.73734" x2="10.0199" y2="15.9835" gradientUnits="userSpaceOnUse">
<stop stop-color="white" stop-opacity="0.25"/>
<stop offset="1" stop-color="white" stop-opacity="0"/>
</linearGradient>
<linearGradient id="paint25_linear_574_16559" x1="16.0078" y1="10.0577" x2="11.5714" y2="8.87253" gradientUnits="userSpaceOnUse">
<stop stop-color="white" stop-opacity="0.5"/>
<stop offset="1" stop-color="white" stop-opacity="0.15"/>
</linearGradient>
<linearGradient id="paint26_linear_574_16559" x1="12.0199" y1="11.9956" x2="11.5234" y2="8.87253" gradientUnits="userSpaceOnUse">
<stop stop-color="white" stop-opacity="0.75"/>
<stop offset="1" stop-color="white" stop-opacity="0"/>
</linearGradient>
<linearGradient id="paint27_linear_574_16559" x1="16.0078" y1="8.34354" x2="11.5234" y2="8.34354" gradientUnits="userSpaceOnUse">
<stop stop-color="white" stop-opacity="0.35"/>
<stop offset="0.997267" stop-color="white" stop-opacity="0.25"/>
</linearGradient>
<linearGradient id="paint28_linear_574_16559" x1="7.99992" y1="11.5307" x2="11.5234" y2="8.00721" gradientUnits="userSpaceOnUse">
<stop stop-color="white" stop-opacity="0.75"/>
<stop offset="1" stop-color="white" stop-opacity="0"/>
</linearGradient>
</defs>
</svg>
