<svg version="1.2" xmlns="http://www.w3.org/2000/svg" viewBox="0 0 30 30" width="30" height="30">
	<title>epic-svg</title>
	<defs>
		<linearGradient id="g1" x2="1" gradientUnits="userSpaceOnUse" gradientTransform="matrix(-6.607,6.607,-4.129,-4.129,15.02,8.409)">
			<stop offset="0" stop-color="#ffffff" stop-opacity=".5"/>
			<stop offset="1" stop-color="#ffffff" stop-opacity=".15"/>
		</linearGradient>
		<linearGradient id="g2" x2="1" gradientUnits="userSpaceOnUse" gradientTransform="matrix(0,8.408,-3.754,0,13.143,0)">
			<stop offset="0" stop-color="#ffffff" stop-opacity=".5"/>
			<stop offset="1" stop-color="#ffffff" stop-opacity=".35"/>
		</linearGradient>
		<linearGradient id="g3" x2="1" gradientUnits="userSpaceOnUse" gradientTransform="matrix(9.219,.24,-0.478,18.345,7.567,7.508)">
			<stop offset="0" stop-color="#ffffff" stop-opacity=".5"/>
			<stop offset="1" stop-color="#ffffff" stop-opacity=".15"/>
		</linearGradient>
		<linearGradient id="g4" x2="1" gradientUnits="userSpaceOnUse" gradientTransform="matrix(8.589,10.991,-8.756,6.842,5.375,-2.042)">
			<stop offset="0" stop-color="#ffffff" stop-opacity=".75"/>
			<stop offset="1" stop-color="#ffffff" stop-opacity="0"/>
		</linearGradient>
		<linearGradient id="g5" x2="1" gradientUnits="userSpaceOnUse" gradientTransform="matrix(10.871,10.781,-9.919,10.002,7.48,7.507)">
			<stop offset="0" stop-color="#ffffff" stop-opacity=".5"/>
			<stop offset="1" stop-color="#ffffff" stop-opacity=".15"/>
		</linearGradient>
		<linearGradient id="g6" x2="1" gradientUnits="userSpaceOnUse" gradientTransform="matrix(.901,5.856,-11.368,1.749,7.509,7.507)">
			<stop offset="0" stop-color="#ffffff" stop-opacity=".75"/>
			<stop offset="1" stop-color="#ffffff" stop-opacity="0"/>
		</linearGradient>
		<linearGradient id="g7" x2="1" gradientUnits="userSpaceOnUse" gradientTransform="matrix(-8.409,0,0,-3.754,8.409,15.014)">
			<stop offset="0" stop-color="#ffffff" stop-opacity=".5"/>
			<stop offset="1" stop-color="#ffffff" stop-opacity=".15"/>
		</linearGradient>
		<linearGradient id="g8" x2="1" gradientUnits="userSpaceOnUse" gradientTransform="matrix(-3.303,3.303,-5.285,-5.285,15.02,15.013)">
			<stop offset="0" stop-color="#ffffff" stop-opacity=".32"/>
			<stop offset="1" stop-color="#ffffff" stop-opacity=".15"/>
		</linearGradient>
		<linearGradient id="g9" x2="1" gradientUnits="userSpaceOnUse" gradientTransform="matrix(0,8.408,-3.754,0,13.143,21.591)">
			<stop offset="0" stop-color="#ffffff" stop-opacity=".35"/>
			<stop offset="1" stop-color="#ffffff" stop-opacity=".5"/>
		</linearGradient>
		<linearGradient id="g10" x2="1" gradientUnits="userSpaceOnUse" gradientTransform="matrix(0,-11.712,5.856,0,10.435,29.999)">
			<stop offset="0" stop-color="#ffffff" stop-opacity=".5"/>
			<stop offset="1" stop-color="#ffffff" stop-opacity=".15"/>
		</linearGradient>
		<linearGradient id="g11" x2="1" gradientUnits="userSpaceOnUse" gradientTransform="matrix(-6.607,-6.607,7.143,-7.143,15.014,21.591)">
			<stop offset="0" stop-color="#ffffff" stop-opacity=".25"/>
			<stop offset="1" stop-color="#ffffff" stop-opacity="0"/>
		</linearGradient>
		<linearGradient id="g12" x2="1" gradientUnits="userSpaceOnUse" gradientTransform="matrix(0,-5.856,11.712,0,5.858,22.491)">
			<stop offset="0" stop-color="#ffffff" stop-opacity=".5"/>
			<stop offset="1" stop-color="#ffffff" stop-opacity=".15"/>
		</linearGradient>
		<linearGradient id="g13" x2="1" gradientUnits="userSpaceOnUse" gradientTransform="matrix(-6.607,-6.607,7.143,-7.143,15.017,21.59)">
			<stop offset="0" stop-color="#ffffff" stop-opacity=".75"/>
			<stop offset="1" stop-color="#ffffff" stop-opacity="0"/>
		</linearGradient>
		<linearGradient id="g14" x2="1" gradientUnits="userSpaceOnUse" gradientTransform="matrix(-8.409,0,0,-3.754,8.409,16.665)">
			<stop offset="0" stop-color="#ffffff" stop-opacity=".5"/>
			<stop offset="1" stop-color="#ffffff" stop-opacity=".15"/>
		</linearGradient>
		<linearGradient id="g15" x2="1" gradientUnits="userSpaceOnUse" gradientTransform="matrix(-3.303,3.303,-5.285,-5.285,18.324,11.712)">
			<stop offset="0" stop-color="#ffffff" stop-opacity=".5"/>
			<stop offset="1" stop-color="#ffffff" stop-opacity=".32"/>
		</linearGradient>
		<linearGradient id="g16" x2="1" gradientUnits="userSpaceOnUse" gradientTransform="matrix(0,8.408,-3.754,0,16.886,0)">
			<stop offset="0" stop-color="#ffffff" stop-opacity=".5"/>
			<stop offset="1" stop-color="#ffffff" stop-opacity=".35"/>
		</linearGradient>
		<linearGradient id="g17" x2="1" gradientUnits="userSpaceOnUse" gradientTransform="matrix(-4.955,-2.432,3.905,-7.955,22.529,7.387)">
			<stop offset="0" stop-color="#ffffff" stop-opacity=".5"/>
			<stop offset="1" stop-color="#ffffff" stop-opacity=".15"/>
		</linearGradient>
		<linearGradient id="g18" x2="1" gradientUnits="userSpaceOnUse" gradientTransform="matrix(-3.754,-7.508,4.127,-2.064,22.529,7.508)">
			<stop offset="0" stop-color="#ffffff" stop-opacity=".25"/>
			<stop offset="1" stop-color="#ffffff" stop-opacity="0"/>
		</linearGradient>
		<linearGradient id="g19" x2="1" gradientUnits="userSpaceOnUse" gradientTransform="matrix(11.712,-0.39,.194,5.818,18.321,11.681)">
			<stop offset="0" stop-color="#ffffff" stop-opacity=".5"/>
			<stop offset="1" stop-color="#ffffff" stop-opacity=".15"/>
		</linearGradient>
		<linearGradient id="g20" x2="1" gradientUnits="userSpaceOnUse" gradientTransform="matrix(-8.408,0,0,-3.712,30.033,14.294)">
			<stop offset="0" stop-color="#ffffff" stop-opacity=".35"/>
			<stop offset="1" stop-color="#ffffff" stop-opacity=".25"/>
		</linearGradient>
		<linearGradient id="g21" x2="1" gradientUnits="userSpaceOnUse" gradientTransform="matrix(6.607,6.607,-7.993,7.993,15.018,8.378)">
			<stop offset="0" stop-color="#ffffff" stop-opacity=".75"/>
			<stop offset="1" stop-color="#ffffff" stop-opacity="0"/>
		</linearGradient>
		<linearGradient id="g22" x2="1" gradientUnits="userSpaceOnUse" gradientTransform="matrix(-6.607,6.607,-4.129,-4.129,21.624,15.014)">
			<stop offset="0" stop-color="#ffffff" stop-opacity=".5"/>
			<stop offset="1" stop-color="#ffffff" stop-opacity=".15"/>
		</linearGradient>
		<linearGradient id="g23" x2="1" gradientUnits="userSpaceOnUse" gradientTransform="matrix(0,8.408,-3.754,0,16.886,21.591)">
			<stop offset="0" stop-color="#ffffff" stop-opacity=".35"/>
			<stop offset="1" stop-color="#ffffff" stop-opacity=".5"/>
		</linearGradient>
		<linearGradient id="g24" x2="1" gradientUnits="userSpaceOnUse" gradientTransform="matrix(-2.042,-8.378,3.992,-0.973,18.776,29.969)">
			<stop offset="0" stop-color="#ffffff" stop-opacity=".5"/>
			<stop offset="1" stop-color="#ffffff" stop-opacity=".15"/>
		</linearGradient>
		<linearGradient id="g25" x2="1" gradientUnits="userSpaceOnUse" gradientTransform="matrix(.45,11.712,-5.812,.224,18.355,18.257)">
			<stop offset="0" stop-color="#ffffff" stop-opacity=".25"/>
			<stop offset="1" stop-color="#ffffff" stop-opacity="0"/>
		</linearGradient>
		<linearGradient id="g26" x2="1" gradientUnits="userSpaceOnUse" gradientTransform="matrix(-8.318,-2.222,1.081,-4.046,30.033,18.858)">
			<stop offset="0" stop-color="#ffffff" stop-opacity=".5"/>
			<stop offset="1" stop-color="#ffffff" stop-opacity=".15"/>
		</linearGradient>
		<linearGradient id="g27" x2="1" gradientUnits="userSpaceOnUse" gradientTransform="matrix(-0.931,-5.856,11.357,-1.805,22.556,22.491)">
			<stop offset="0" stop-color="#ffffff" stop-opacity=".75"/>
			<stop offset="1" stop-color="#ffffff" stop-opacity="0"/>
		</linearGradient>
		<linearGradient id="g28" x2="1" gradientUnits="userSpaceOnUse" gradientTransform="matrix(-8.408,0,0,-3.682,30.033,15.644)">
			<stop offset="0" stop-color="#ffffff" stop-opacity=".35"/>
			<stop offset=".997" stop-color="#ffffff" stop-opacity=".25"/>
		</linearGradient>
		<linearGradient id="g29" x2="1" gradientUnits="userSpaceOnUse" gradientTransform="matrix(6.607,-6.607,7.997,7.997,15.018,21.62)">
			<stop offset="0" stop-color="#ffffff" stop-opacity=".75"/>
			<stop offset="1" stop-color="#ffffff" stop-opacity="0"/>
		</linearGradient>
	</defs>
	<style>
		.s0 { fill: #333333 } 
		.s1 { fill: url(#g1) } 
		.s2 { fill: url(#g2) } 
		.s3 { fill: url(#g3);stroke: url(#g4);stroke-width: .4 } 
		.s4 { fill: url(#g5);stroke: url(#g6);stroke-width: .4 } 
		.s5 { fill: url(#g7) } 
		.s6 { fill: url(#g8) } 
		.s7 { fill: url(#g9) } 
		.s8 { fill: url(#g10);stroke: url(#g11);stroke-width: .4 } 
		.s9 { fill: url(#g12);stroke: url(#g13);stroke-width: .4 } 
		.s10 { fill: url(#g14) } 
		.s11 { fill: url(#g15) } 
		.s12 { fill: url(#g16) } 
		.s13 { fill: url(#g17);stroke: url(#g18);stroke-width: .4 } 
		.s14 { fill: url(#g19) } 
		.s15 { fill: url(#g20);stroke: url(#g21);stroke-width: .4 } 
		.s16 { fill: url(#g22) } 
		.s17 { fill: url(#g23) } 
		.s18 { fill: url(#g24);stroke: url(#g25);stroke-width: .4 } 
		.s19 { fill: url(#g26);stroke: url(#g27);stroke-width: .4 } 
		.s20 { fill: url(#g28);stroke: url(#g29);stroke-width: .4 } 
	</style>
	<g id="Layer">
		<path id="Layer" class="s0" d="m15 15v-6.6h-1.6l-1.7 3.3-3.3 1.7v1.6z"/>
		<path id="Layer" class="s0" d="m11.3 0h3.7v8.4h-1.6z"/>
		<path id="Layer" class="s0" d="m7.5 7.5l3.8-7.5 2.1 8.4-1.7 3.3z"/>
		<path id="Layer" class="s0" d="m0 11.3l7.5-3.8 4.2 4.2-3.3 1.7z"/>
		<path id="Layer" class="s0" d="m8.4 15h-8.4v-3.7l8.4 2.1z"/>
		<path id="Layer" class="s0" d="m15 15h-6.6v1.7l3.3 1.6 1.7 3.3h1.6z"/>
		<path id="Layer" class="s0" d="m11.3 30h3.7v-8.4h-1.6z"/>
		<path id="Layer" class="s0" d="m7.5 22.5l3.8 7.5 2.1-8.4-1.7-3.3z"/>
		<path id="Layer" class="s0" d="m0 18.7l7.5 3.8 4.2-4.2-3.3-1.7z"/>
		<path id="Layer" class="s0" d="m8.4 15h-8.4v3.8l8.4-2.1z"/>
		<path id="Layer" class="s0" d="m15 15h6.6v-1.6l-3.3-1.7-1.6-3.3h-1.7z"/>
		<path id="Layer" class="s0" d="m18.8 0h-3.8v8.4h1.7z"/>
		<path id="Layer" class="s0" d="m22.5 7.5l-3.7-7.5-2.1 8.4 1.6 3.3z"/>
		<path id="Layer" class="s0" d="m30 11.3l-7.5-3.8-4.2 4.2 3.3 1.7z"/>
		<path id="Layer" class="s0" d="m21.6 15h8.4v-3.7l-8.4 2.1z"/>
		<path id="Layer" class="s0" d="m15 15v6.6h1.7l1.6-3.3 3.3-1.6v-1.7z"/>
		<path id="Layer" class="s0" d="m18.8 30h-3.8v-8.4h1.7z"/>
		<path id="Layer" class="s0" d="m22.5 22.5l-3.7 7.5-2.1-8.4 1.6-3.3z"/>
		<path id="Layer" class="s0" d="m30 18.7l-7.5 3.8-4.2-4.2 3.3-1.7z"/>
		<path id="Layer" class="s0" d="m21.6 15h8.4v3.7l-8.4-2.1z"/>
		<path id="Layer" class="s1" d="m15 15v-6.6h-1.6l-1.7 3.3-3.3 1.7v1.6z"/>
		<path id="Layer" class="s2" d="m11.3 0h3.7v8.4h-1.6z"/>
		<path id="Layer" class="s3" d="m11.7 11.7l-4.2-4.2 3.8-7.4 2 8.3z"/>
		<path id="Layer" class="s4" d="m8.4 13.3l-8.3-2 7.4-3.8 4.2 4.2z"/>
		<path id="Layer" class="s5" d="m8.4 15h-8.4v-3.7l8.4 2.1z"/>
		<path id="Layer" class="s6" d="m15 15h-6.6v1.7l3.3 1.6 1.7 3.3h1.6z"/>
		<path id="Layer" class="s7" d="m11.3 30h3.7v-8.4h-1.6z"/>
		<path id="Layer" class="s8" d="m11.7 18.3l-4.2 4.2 3.8 7.4 2-8.3z"/>
		<path id="Layer" class="s9" d="m8.4 16.7l-8.3 2 7.4 3.8 4.2-4.2z"/>
		<path id="Layer" class="s10" d="m8.4 15h-8.4v3.8l8.4-2.1z"/>
		<path id="Layer" class="s11" d="m15 15h6.6v-1.6l-3.3-1.7-1.6-3.3h-1.7z"/>
		<path id="Layer" class="s12" d="m18.8 0h-3.8v8.4h1.7z"/>
		<path id="Layer" class="s13" d="m18.3 11.7l4.2-4.2-3.7-7.4-2.1 8.3z"/>
		<path id="Layer" class="s14" d="m30 11.3l-7.5-3.8-4.2 4.2 3.3 1.7z"/>
		<path id="Layer" class="s15" d="m21.7 15h8.3v-3.7l-8.3 2.1z"/>
		<path id="Layer" class="s16" d="m15 15v6.6h1.7l1.6-3.3 3.3-1.6v-1.7z"/>
		<path id="Layer" class="s17" d="m18.8 30h-3.8v-8.4h1.7z"/>
		<path id="Layer" class="s18" d="m18.3 18.3l4.2 4.2-3.7 7.4-2.1-8.3z"/>
		<path id="Layer" class="s19" d="m21.6 16.7l8.3 2-7.4 3.8-4.1-4.2z"/>
		<path id="Layer" class="s20" d="m21.7 15h8.3v3.7l-8.3-2.1z"/>
	</g>
</svg>