<svg width="17" height="16" viewBox="0 0 17 16" fill="none" xmlns="http://www.w3.org/2000/svg">
<path d="M8.01018 7.99961L8.01018 4.48003L7.13028 5.35993L5.51448 5.50391L5.3705 7.11972L4.4906 7.99961L8.01018 7.99961Z" fill="#FF0000"/>
<path d="M4.4923 7.99947L5.3722 7.11957L2.0126 5.99971L4.4923 7.99947Z" fill="#FF0000"/>
<path d="M8.01216 4.47947L8.01216 0L6.0124 1.99976L8.01216 4.47947Z" fill="#FF0000"/>
<path d="M7.13028 5.35993L5.51448 5.50391L2.34696 2.33586L6.01052 1.9999L7.13028 5.35993Z" fill="#FF0000"/>
<path d="M7.13227 5.3595L8.01216 4.47947L6.0124 1.99976L7.13227 5.3595Z" fill="#FF0000"/>
<path d="M5.51618 5.50344L5.3722 7.11957L2.0126 5.99971L2.34856 2.33582L5.51618 5.50344Z" fill="#FF0000"/>
<path d="M0.0126953 7.99947H4.4923L2.0126 5.99971L0.0126953 7.99947Z" fill="#FF0000"/>
<path d="M11.5323 7.99947L10.6524 7.11957L14.012 5.99971L11.5323 7.99947Z" fill="#FF0000"/>
<path d="M8.01216 4.47947L8.01216 0L10.0122 1.99976L8.01216 4.47947Z" fill="#FF0000"/>
<path d="M8.89423 5.3595L10.51 5.50348L13.6777 2.33586L10.0141 1.9999L8.89423 5.3595Z" fill="#FF0000"/>
<path d="M8.89234 5.3595L8.01216 4.47947L10.0122 1.99976L8.89234 5.3595Z" fill="#FF0000"/>
<path d="M10.5084 5.50344L10.6524 7.11957L14.012 5.99971L13.6761 2.33582L10.5084 5.50344Z" fill="#FF0000"/>
<path d="M16.0119 7.99947H11.5323L14.012 5.99971L16.0119 7.99947Z" fill="#FF0000"/>
<path d="M8.0123 7.99905L11.5323 7.99947L10.6524 7.11957L10.5084 5.50344L8.89234 5.3595L8.01216 4.47947L8.0123 7.99905Z" fill="#FF0000"/>
<path d="M4.4923 7.99947L5.3722 8.87965L2.0126 9.99951L4.4923 7.99947Z" fill="#FF0000"/>
<path d="M8.01216 11.519L8.01216 15.9984L6.0124 13.9987L8.01216 11.519Z" fill="#FF0000"/>
<path d="M7.13038 10.6389L5.51458 10.495L2.34696 13.6626L6.01052 13.9985L7.13038 10.6389Z" fill="#FF0000"/>
<path d="M7.13227 10.6389L8.01216 11.519L6.0124 13.9987L7.13227 10.6389Z" fill="#FF0000"/>
<path d="M5.51618 10.495L5.3722 8.87965L2.0126 9.99951L2.34856 13.6626L5.51618 10.495Z" fill="#FF0000"/>
<path d="M0.0126953 7.99947H4.4923L2.0126 9.99951L0.0126953 7.99947Z" fill="#FF0000"/>
<path d="M8.0123 7.99905L4.4923 7.99947L5.3722 8.87965L5.51618 10.495L7.13227 10.6389L8.01216 11.519L8.0123 7.99905Z" fill="#FF0000"/>
<path d="M11.5323 7.99947L10.6524 8.87965L14.012 9.99951L11.5323 7.99947Z" fill="#FF0000"/>
<path d="M8.01216 11.519L8.01216 15.9984L10.0122 13.9987L8.01216 11.519Z" fill="#FF0000"/>
<path d="M8.89423 10.6389L10.51 10.495L13.6777 13.6626L10.0141 13.9985L8.89423 10.6389Z" fill="#FF0000"/>
<path d="M8.89234 10.6389L8.01216 11.519L10.0122 13.9987L8.89234 10.6389Z" fill="#FF0000"/>
<path d="M10.5084 10.495L10.6524 8.87965L14.012 9.99951L13.6761 13.6626L10.5084 10.495Z" fill="#FF0000"/>
<path d="M16.0119 7.99947H11.5323L14.012 9.99951L16.0119 7.99947Z" fill="#FF0000"/>
<path d="M8.01018 7.99961L8.01216 11.519L8.89234 10.6389L10.5084 10.495L10.6524 8.87965L11.5323 7.99947L8.01018 7.99961Z" fill="#FF0000"/>
<path d="M8.01079 7.99951L8.01079 4.47993L7.13089 5.35983L5.51509 5.50381L5.37111 7.11962L4.49121 7.99951L8.01079 7.99951Z" fill="url(#paint0_linear_574_16583)"/>
<path d="M2.09177 6.04322L4.49125 7.97828L5.3428 7.12674L2.09177 6.04322Z" fill="url(#paint1_linear_574_16583)" stroke="url(#paint2_linear_574_16583)" stroke-width="0.0319962"/>
<path d="M8.01246 4.47946L8.01246 -8.74123e-08L6.0127 1.99976L8.01246 4.47946Z" fill="url(#paint3_linear_574_16583)"/>
<path d="M2.38212 2.34878L5.52033 5.48698L7.10853 5.34546L5.99907 2.01709L2.38212 2.34878Z" fill="url(#paint4_linear_574_16583)" stroke="url(#paint5_linear_574_16583)" stroke-width="0.0319962"/>
<path d="M7.99098 4.47856L6.05592 2.07908L7.13955 5.32998L7.99098 4.47856Z" fill="url(#paint6_linear_574_16583)" stroke="url(#paint7_linear_574_16583)" stroke-width="0.0319962"/>
<path d="M5.51628 5.50356L5.37231 7.11921L2.0127 5.9995L2.34866 2.33594L5.51628 5.50356Z" fill="url(#paint8_linear_574_16583)"/>
<path d="M0.0126954 7.99976L4.49216 7.99976L2.01246 6L0.0126954 7.99976Z" fill="url(#paint9_linear_574_16583)"/>
<path d="M13.9336 6.04322L11.5341 7.97828L10.6826 7.12674L13.9336 6.04322Z" fill="url(#paint10_linear_574_16583)" stroke="url(#paint11_linear_574_16583)" stroke-width="0.0319962"/>
<path d="M8.01293 4.47946L8.01294 -8.74123e-08L10.0127 1.99976L8.01293 4.47946Z" fill="url(#paint12_linear_574_16583)"/>
<path d="M8.89333 5.3596L10.5091 5.50358L13.6768 2.33596L10.0132 2L8.89333 5.3596Z" fill="url(#paint13_linear_574_16583)"/>
<path d="M8.03441 4.47856L9.96947 2.07908L8.88584 5.32998L8.03441 4.47856Z" fill="url(#paint14_linear_574_16583)" stroke="url(#paint15_linear_574_16583)" stroke-width="0.0319962"/>
<path d="M13.6639 2.37138L13.9956 5.98833L10.6672 7.09763L10.5257 5.50958L13.6639 2.37138Z" fill="url(#paint16_linear_574_16583)" stroke="url(#paint17_linear_574_16583)" stroke-width="0.0319962"/>
<path d="M16.0127 7.99976L11.5332 7.99976L14.0129 6L16.0127 7.99976Z" fill="url(#paint18_linear_574_16583)"/>
<path d="M8.01269 7.99907L11.5323 7.99907L10.6524 7.11918L10.5084 5.50337L8.89259 5.35939L8.0127 4.47949L8.01269 7.99907Z" fill="url(#paint19_linear_574_16583)"/>
<path d="M2.09177 9.95629L4.49125 8.02123L5.3428 8.87277L2.09177 9.95629Z" fill="url(#paint20_linear_574_16583)" stroke="url(#paint21_linear_574_16583)" stroke-width="0.0319962"/>
<path d="M8.01246 11.5186L8.01246 15.998L6.0127 13.9983L8.01246 11.5186Z" fill="url(#paint22_linear_574_16583)"/>
<path d="M2.38212 13.6502L5.52033 10.512L7.10853 10.6536L5.99907 13.9819L2.38212 13.6502Z" fill="url(#paint23_linear_574_16583)" stroke="url(#paint24_linear_574_16583)" stroke-width="0.0319962"/>
<path d="M7.99098 11.5205L6.05592 13.9199L7.13955 10.669L7.99098 11.5205Z" fill="url(#paint25_linear_574_16583)" stroke="url(#paint26_linear_574_16583)" stroke-width="0.0319962"/>
<path d="M2.36147 13.6276L2.02978 10.0107L5.35817 8.90139L5.49968 10.4894L2.36147 13.6276Z" fill="url(#paint27_linear_574_16583)" stroke="url(#paint28_linear_574_16583)" stroke-width="0.0319962"/>
<path d="M0.0126954 7.99975L4.49216 7.99975L2.01246 9.99951L0.0126954 7.99975Z" fill="url(#paint29_linear_574_16583)"/>
<path d="M8.0127 7.99946L4.49312 7.99946L5.37301 8.87936L5.51699 10.4952L7.1328 10.6391L8.0127 11.519L8.0127 7.99946Z" fill="url(#paint30_linear_574_16583)"/>
<path d="M11.533 7.99975L10.6531 8.87965L10.6531 8.8798L14.0127 9.99951L11.533 7.99975Z" fill="url(#paint31_linear_574_16583)"/>
<path d="M8.01293 11.5186L8.01294 15.998L10.0127 13.9983L8.01293 11.5186Z" fill="url(#paint32_linear_574_16583)"/>
<path d="M8.89333 10.6394L10.5091 10.4954L13.6768 13.6631L10.0132 13.999L8.89333 10.6394Z" fill="url(#paint33_linear_574_16583)"/>
<path d="M8.89283 10.6394L8.01293 11.5193L10.0127 13.999L8.89283 10.6394Z" fill="url(#paint34_linear_574_16583)"/>
<path d="M10.5091 10.4955L10.6531 8.87981L14.0127 9.99953L13.6767 13.6631L10.5091 10.4955Z" fill="url(#paint35_linear_574_16583)"/>
<path d="M16.0127 7.99975L11.5332 7.99975L14.0129 9.99951L16.0127 7.99975Z" fill="url(#paint36_linear_574_16583)"/>
<path d="M8.00972 7.99951L8.00972 11.5191L8.88961 10.6392L10.5054 10.4952L10.6494 8.87941L11.5293 7.99951L8.00972 7.99951Z" fill="url(#paint37_linear_574_16583)"/>
<defs>
<linearGradient id="paint0_linear_574_16583" x1="8.01079" y1="4.47993" x2="4.49121" y2="7.99951" gradientUnits="userSpaceOnUse">
<stop stop-color="white" stop-opacity="0.5"/>
<stop offset="1" stop-color="white" stop-opacity="0.15"/>
</linearGradient>
<linearGradient id="paint1_linear_574_16583" x1="2.0127" y1="6" x2="4.4924" y2="7.99976" gradientUnits="userSpaceOnUse">
<stop stop-color="white" stop-opacity="0.5"/>
<stop offset="1" stop-color="white" stop-opacity="0.15"/>
</linearGradient>
<linearGradient id="paint2_linear_574_16583" x1="2.22067" y1="10.3515" x2="5.05233" y2="6.78391" gradientUnits="userSpaceOnUse">
<stop stop-color="white"/>
<stop offset="1" stop-color="white" stop-opacity="0"/>
</linearGradient>
<linearGradient id="paint3_linear_574_16583" x1="8.01246" y1="-8.74123e-08" x2="8.01246" y2="4.47946" gradientUnits="userSpaceOnUse">
<stop stop-color="white" stop-opacity="0.5"/>
<stop offset="1" stop-color="white" stop-opacity="0.35"/>
</linearGradient>
<linearGradient id="paint4_linear_574_16583" x1="5.5143" y1="5.50358" x2="7.13011" y2="5.3596" gradientUnits="userSpaceOnUse">
<stop stop-color="white" stop-opacity="0.5"/>
<stop offset="1" stop-color="white" stop-opacity="0.15"/>
</linearGradient>
<linearGradient id="paint5_linear_574_16583" x1="-1.79682" y1="-0.831661" x2="6.55418" y2="5.13562" gradientUnits="userSpaceOnUse">
<stop stop-color="white"/>
<stop offset="1" stop-color="white" stop-opacity="0"/>
</linearGradient>
<linearGradient id="paint6_linear_574_16583" x1="6.0127" y1="3.6798" x2="8.01246" y2="3.6798" gradientUnits="userSpaceOnUse">
<stop stop-color="white" stop-opacity="0.5"/>
<stop offset="1" stop-color="white" stop-opacity="0.15"/>
</linearGradient>
<linearGradient id="paint7_linear_574_16583" x1="7.77248" y1="4.38371" x2="6.44464" y2="4.19174" gradientUnits="userSpaceOnUse">
<stop stop-color="white"/>
<stop offset="1" stop-color="white" stop-opacity="0"/>
</linearGradient>
<linearGradient id="paint8_linear_574_16583" x1="2.38065" y1="2.33594" x2="5.37229" y2="7.11936" gradientUnits="userSpaceOnUse">
<stop stop-color="white" stop-opacity="0.5"/>
<stop offset="1" stop-color="white" stop-opacity="0.15"/>
</linearGradient>
<linearGradient id="paint9_linear_574_16583" x1="4.49216" y1="7.99976" x2="0.0126953" y2="7.99976" gradientUnits="userSpaceOnUse">
<stop stop-color="white" stop-opacity="0.5"/>
<stop offset="1" stop-color="white" stop-opacity="0.15"/>
</linearGradient>
<linearGradient id="paint10_linear_574_16583" x1="14.0127" y1="6" x2="11.533" y2="7.99976" gradientUnits="userSpaceOnUse">
<stop stop-color="white" stop-opacity="0.5"/>
<stop offset="1" stop-color="white" stop-opacity="0.15"/>
</linearGradient>
<linearGradient id="paint11_linear_574_16583" x1="9.64522" y1="4.24021" x2="13.2928" y2="6.09599" gradientUnits="userSpaceOnUse">
<stop stop-color="white"/>
<stop offset="1" stop-color="white" stop-opacity="0"/>
</linearGradient>
<linearGradient id="paint12_linear_574_16583" x1="8.01293" y1="-8.74123e-08" x2="8.01293" y2="4.47946" gradientUnits="userSpaceOnUse">
<stop stop-color="white" stop-opacity="0.5"/>
<stop offset="1" stop-color="white" stop-opacity="0.35"/>
</linearGradient>
<linearGradient id="paint13_linear_574_16583" x1="10.5091" y1="5.50358" x2="8.89333" y2="5.3596" gradientUnits="userSpaceOnUse">
<stop stop-color="white" stop-opacity="0.5"/>
<stop offset="1" stop-color="white" stop-opacity="0.15"/>
</linearGradient>
<linearGradient id="paint14_linear_574_16583" x1="10.0127" y1="3.6798" x2="8.01293" y2="3.6798" gradientUnits="userSpaceOnUse">
<stop stop-color="white" stop-opacity="0.5"/>
<stop offset="1" stop-color="white" stop-opacity="0.15"/>
</linearGradient>
<linearGradient id="paint15_linear_574_16583" x1="8.10892" y1="2.43195" x2="9.46876" y2="3.48782" gradientUnits="userSpaceOnUse">
<stop stop-color="white"/>
<stop offset="1" stop-color="white" stop-opacity="0"/>
</linearGradient>
<linearGradient id="paint16_linear_574_16583" x1="13.6447" y1="2.33594" x2="10.6531" y2="7.11936" gradientUnits="userSpaceOnUse">
<stop stop-color="white" stop-opacity="0.5"/>
<stop offset="1" stop-color="white" stop-opacity="0.15"/>
</linearGradient>
<linearGradient id="paint17_linear_574_16583" x1="12.2609" y1="2.33594" x2="12.2609" y2="7.11936" gradientUnits="userSpaceOnUse">
<stop stop-color="white"/>
<stop offset="1" stop-color="white" stop-opacity="0"/>
</linearGradient>
<linearGradient id="paint18_linear_574_16583" x1="16.0127" y1="7.99976" x2="11.5332" y2="7.99976" gradientUnits="userSpaceOnUse">
<stop stop-color="white" stop-opacity="0.5"/>
<stop offset="1" stop-color="white" stop-opacity="0.15"/>
</linearGradient>
<linearGradient id="paint19_linear_574_16583" x1="9.77248" y1="6.23928" x2="8.0127" y2="7.99907" gradientUnits="userSpaceOnUse">
<stop stop-color="white" stop-opacity="0.5"/>
<stop offset="1" stop-color="white" stop-opacity="0.32"/>
</linearGradient>
<linearGradient id="paint20_linear_574_16583" x1="2.0127" y1="9.99951" x2="4.4924" y2="7.99975" gradientUnits="userSpaceOnUse">
<stop stop-color="white" stop-opacity="0.5"/>
<stop offset="1" stop-color="white" stop-opacity="0.15"/>
</linearGradient>
<linearGradient id="paint21_linear_574_16583" x1="6.42817" y1="7.99975" x2="3.77248" y2="8.12774" gradientUnits="userSpaceOnUse">
<stop stop-color="white"/>
<stop offset="1" stop-color="white" stop-opacity="0"/>
</linearGradient>
<linearGradient id="paint22_linear_574_16583" x1="7.01258" y1="11.5186" x2="7.01258" y2="15.998" gradientUnits="userSpaceOnUse">
<stop stop-color="white" stop-opacity="0.35"/>
<stop offset="1" stop-color="white" stop-opacity="0.5"/>
</linearGradient>
<linearGradient id="paint23_linear_574_16583" x1="5.5143" y1="10.4954" x2="7.13011" y2="10.6394" gradientUnits="userSpaceOnUse">
<stop stop-color="white" stop-opacity="0.5"/>
<stop offset="1" stop-color="white" stop-opacity="0.15"/>
</linearGradient>
<linearGradient id="paint24_linear_574_16583" x1="0.554894" y1="14.383" x2="6.58617" y2="10.9274" gradientUnits="userSpaceOnUse">
<stop stop-color="white"/>
<stop offset="1" stop-color="white" stop-opacity="0"/>
</linearGradient>
<linearGradient id="paint25_linear_574_16583" x1="6.0127" y1="12.3192" x2="8.01246" y2="12.3192" gradientUnits="userSpaceOnUse">
<stop stop-color="white" stop-opacity="0.5"/>
<stop offset="1" stop-color="white" stop-opacity="0.15"/>
</linearGradient>
<linearGradient id="paint26_linear_574_16583" x1="5.35677" y1="14.8629" x2="8.01246" y2="11.3433" gradientUnits="userSpaceOnUse">
<stop stop-color="white"/>
<stop offset="1" stop-color="white" stop-opacity="0"/>
</linearGradient>
<linearGradient id="paint27_linear_574_16583" x1="2.38065" y1="13.6631" x2="5.37229" y2="8.87966" gradientUnits="userSpaceOnUse">
<stop stop-color="white" stop-opacity="0.5"/>
<stop offset="1" stop-color="white" stop-opacity="0.15"/>
</linearGradient>
<linearGradient id="paint28_linear_574_16583" x1="10.2517" y1="10.0315" x2="2.23667" y2="8.75167" gradientUnits="userSpaceOnUse">
<stop stop-color="white"/>
<stop offset="1" stop-color="white" stop-opacity="0"/>
</linearGradient>
<linearGradient id="paint29_linear_574_16583" x1="4.49216" y1="7.99975" x2="0.0126953" y2="7.99975" gradientUnits="userSpaceOnUse">
<stop stop-color="white" stop-opacity="0.5"/>
<stop offset="1" stop-color="white" stop-opacity="0.15"/>
</linearGradient>
<linearGradient id="paint30_linear_574_16583" x1="8.0127" y1="7.99947" x2="6.25291" y2="9.75925" gradientUnits="userSpaceOnUse">
<stop stop-color="white" stop-opacity="0.32"/>
<stop offset="1" stop-color="white" stop-opacity="0.15"/>
</linearGradient>
<linearGradient id="paint31_linear_574_16583" x1="14.0127" y1="9.99951" x2="11.533" y2="7.99975" gradientUnits="userSpaceOnUse">
<stop stop-color="white" stop-opacity="0.5"/>
<stop offset="1" stop-color="white" stop-opacity="0.15"/>
</linearGradient>
<linearGradient id="paint32_linear_574_16583" x1="9.01281" y1="11.5186" x2="9.01281" y2="15.998" gradientUnits="userSpaceOnUse">
<stop stop-color="white" stop-opacity="0.35"/>
<stop offset="1" stop-color="white" stop-opacity="0.5"/>
</linearGradient>
<linearGradient id="paint33_linear_574_16583" x1="10.5091" y1="10.4954" x2="8.89333" y2="10.6394" gradientUnits="userSpaceOnUse">
<stop stop-color="white" stop-opacity="0.5"/>
<stop offset="1" stop-color="white" stop-opacity="0.15"/>
</linearGradient>
<linearGradient id="paint34_linear_574_16583" x1="10.0127" y1="12.3192" x2="8.01293" y2="12.3192" gradientUnits="userSpaceOnUse">
<stop stop-color="white" stop-opacity="0.5"/>
<stop offset="1" stop-color="white" stop-opacity="0.15"/>
</linearGradient>
<linearGradient id="paint35_linear_574_16583" x1="13.6447" y1="13.6631" x2="10.6531" y2="8.87966" gradientUnits="userSpaceOnUse">
<stop stop-color="white" stop-opacity="0.5"/>
<stop offset="1" stop-color="white" stop-opacity="0.15"/>
</linearGradient>
<linearGradient id="paint36_linear_574_16583" x1="16.0127" y1="7.99975" x2="11.5332" y2="7.99975" gradientUnits="userSpaceOnUse">
<stop stop-color="white" stop-opacity="0.5"/>
<stop offset="1" stop-color="white" stop-opacity="0.15"/>
</linearGradient>
<linearGradient id="paint37_linear_574_16583" x1="11.5293" y1="7.99951" x2="8.00972" y2="11.5191" gradientUnits="userSpaceOnUse">
<stop stop-color="white" stop-opacity="0.5"/>
<stop offset="1" stop-color="white" stop-opacity="0.15"/>
</linearGradient>
</defs>
</svg>
