<svg version="1.2" xmlns="http://www.w3.org/2000/svg" viewBox="0 0 30 30" width="30" height="30">
	<title>legendary-svg</title>
	<defs>
		<linearGradient id="g1" x2="1" gradientUnits="userSpaceOnUse" gradientTransform="matrix(-3.3,3.3,-5.319,-5.319,18.3,11.7)">
			<stop offset="0" stop-color="#ffffff" stop-opacity=".5"/>
			<stop offset="1" stop-color="#ffffff" stop-opacity=".32"/>
		</linearGradient>
		<linearGradient id="g2" x2="1" gradientUnits="userSpaceOnUse" gradientTransform="matrix(0,9.75,-5.07,0,19.965,1.949)">
			<stop offset="0" stop-color="#ffffff" stop-opacity=".5"/>
			<stop offset="1" stop-color="#ffffff" stop-opacity=".15"/>
		</linearGradient>
		<linearGradient id="g3" x2="1" gradientUnits="userSpaceOnUse" gradientTransform="matrix(-3.12,7.29,-5.274,-2.257,20.55,1.95)">
			<stop offset="0" stop-color="#ffffff" stop-opacity=".5"/>
			<stop offset="1" stop-color="#ffffff" stop-opacity=".32"/>
		</linearGradient>
		<linearGradient id="g4" x2="1" gradientUnits="userSpaceOnUse" gradientTransform="matrix(-1.74,5.07,-8.032,-2.756,22.5,7.5)">
			<stop offset="0" stop-color="#ffffff" stop-opacity=".5"/>
			<stop offset="1" stop-color="#ffffff" stop-opacity=".32"/>
		</linearGradient>
		<linearGradient id="g5" x2="1" gradientUnits="userSpaceOnUse" gradientTransform="matrix(0,5.55,-9.24,0,25.38,9.45)">
			<stop offset="0" stop-color="#ffffff" stop-opacity=".5"/>
			<stop offset="1" stop-color="#ffffff" stop-opacity=".32"/>
		</linearGradient>
		<linearGradient id="g6" x2="1" gradientUnits="userSpaceOnUse" gradientTransform="matrix(-6.6,6.6,-4.095,-4.095,15,8.4)">
			<stop offset="0" stop-color="#ffffff" stop-opacity=".5"/>
			<stop offset="1" stop-color="#ffffff" stop-opacity=".15"/>
		</linearGradient>
		<linearGradient id="g7" x2="1" gradientUnits="userSpaceOnUse" gradientTransform="matrix(.945,14.04,-7.023,.473,10.035,1.949)">
			<stop offset="0" stop-color="#ffffff" stop-opacity=".5"/>
			<stop offset="1" stop-color="#ffffff" stop-opacity=".15"/>
		</linearGradient>
		<linearGradient id="g8" x2="1" gradientUnits="userSpaceOnUse" gradientTransform="matrix(6.66,10.5,-8.731,5.538,9.45,1.95)">
			<stop offset="0" stop-color="#ffffff" stop-opacity=".5"/>
			<stop offset="1" stop-color="#ffffff" stop-opacity=".32"/>
		</linearGradient>
		<linearGradient id="g9" x2="1" gradientUnits="userSpaceOnUse" gradientTransform="matrix(-1.08,5.04,-10.979,-2.353,7.502,7.5)">
			<stop offset="0" stop-color="#ffffff" stop-opacity=".5"/>
			<stop offset="1" stop-color="#ffffff" stop-opacity=".32"/>
		</linearGradient>
		<linearGradient id="g10" x2="1" gradientUnits="userSpaceOnUse" gradientTransform="matrix(-6.36,-5.58,5.194,-5.92,8.52,15)">
			<stop offset="0" stop-color="#ffffff" stop-opacity=".5"/>
			<stop offset="1" stop-color="#ffffff" stop-opacity=".32"/>
		</linearGradient>
		<linearGradient id="g11" x2="1" gradientUnits="userSpaceOnUse" gradientTransform="matrix(3.3,-3.3,5.319,5.319,11.7,18.3)">
			<stop offset="0" stop-color="#ffffff" stop-opacity=".15"/>
			<stop offset="1" stop-color="#ffffff" stop-opacity=".32"/>
		</linearGradient>
		<linearGradient id="g12" x2="1" gradientUnits="userSpaceOnUse" gradientTransform="matrix(-2.28,-7.47,4.616,-1.409,10.53,25.468)">
			<stop offset="0" stop-color="#ffffff" stop-opacity=".5"/>
			<stop offset="1" stop-color="#ffffff" stop-opacity=".15"/>
		</linearGradient>
		<linearGradient id="g13" x2="1" gradientUnits="userSpaceOnUse" gradientTransform="matrix(1.71,-11.07,7.307,1.129,11.97,28.92)">
			<stop offset="0" stop-color="#ffffff" stop-opacity=".5"/>
			<stop offset="1" stop-color="#ffffff" stop-opacity=".15"/>
		</linearGradient>
		<linearGradient id="g14" x2="1" gradientUnits="userSpaceOnUse" gradientTransform="matrix(1.74,-5.07,8.032,2.756,7.502,22.499)">
			<stop offset="0" stop-color="#ffffff" stop-opacity=".32"/>
			<stop offset="1" stop-color="#ffffff" stop-opacity=".15"/>
		</linearGradient>
		<linearGradient id="g15" x2="1" gradientUnits="userSpaceOnUse" gradientTransform="matrix(-1.26,-9.81,15.099,-1.939,3.6,24.81)">
			<stop offset="0" stop-color="#ffffff" stop-opacity=".5"/>
			<stop offset="1" stop-color="#ffffff" stop-opacity=".32"/>
		</linearGradient>
		<linearGradient id="g16" x2="1" gradientUnits="userSpaceOnUse" gradientTransform="matrix(6.6,-6.6,4.095,4.095,15,21.6)">
			<stop offset="0" stop-color="#ffffff" stop-opacity=".15"/>
			<stop offset="1" stop-color="#ffffff" stop-opacity=".5"/>
		</linearGradient>
		<linearGradient id="g17" x2="1" gradientUnits="userSpaceOnUse" gradientTransform="matrix(-3.51,-10.56,4.518,-1.502,21.36,29.971)">
			<stop offset="0" stop-color="#ffffff" stop-opacity=".5"/>
			<stop offset="1" stop-color="#ffffff" stop-opacity=".15"/>
		</linearGradient>
		<linearGradient id="g18" x2="1" gradientUnits="userSpaceOnUse" gradientTransform="matrix(-5.55,-6.45,5.965,-5.132,20.55,28.05)">
			<stop offset="0" stop-color="#ffffff" stop-opacity=".5"/>
			<stop offset="1" stop-color="#ffffff" stop-opacity=".25"/>
		</linearGradient>
		<linearGradient id="g19" x2="1" gradientUnits="userSpaceOnUse" gradientTransform="matrix(-1.74,-5.04,7.975,-2.753,22.5,22.5)">
			<stop offset="0" stop-color="#ffffff" stop-opacity=".5"/>
			<stop offset="1" stop-color="#ffffff" stop-opacity=".15"/>
		</linearGradient>
		<linearGradient id="g20" x2="1" gradientUnits="userSpaceOnUse" gradientTransform="matrix(6.45,5.52,-5.095,5.954,21.63,15)">
			<stop offset="0" stop-color="#ffffff" stop-opacity=".15"/>
			<stop offset="1" stop-color="#ffffff" stop-opacity=".32"/>
		</linearGradient>
	</defs>
	<style>
		.s0 { fill: #333333 } 
		.s1 { fill: url(#g1) } 
		.s2 { fill: url(#g2) } 
		.s3 { fill: url(#g3) } 
		.s4 { fill: url(#g4) } 
		.s5 { fill: url(#g5) } 
		.s6 { fill: url(#g6) } 
		.s7 { fill: url(#g7) } 
		.s8 { fill: url(#g8) } 
		.s9 { fill: url(#g9) } 
		.s10 { fill: url(#g10) } 
		.s11 { fill: url(#g11) } 
		.s12 { fill: url(#g12) } 
		.s13 { fill: url(#g13) } 
		.s14 { fill: url(#g14) } 
		.s15 { fill: url(#g15) } 
		.s16 { fill: url(#g16) } 
		.s17 { fill: url(#g17) } 
		.s18 { fill: url(#g18) } 
		.s19 { fill: url(#g19) } 
		.s20 { fill: url(#g20) } 
	</style>
	<g id="Layer">
		<path id="Layer" class="s0" d="m15 15h6.6l-0.8-2.4-2.5-0.9-0.9-2.5-2.4-0.8z"/>
		<path id="Layer" class="s0" d="m17.4 9.2l0.9 2.5 4.2-4.2-1.9-5.6z"/>
		<path id="Layer" class="s0" d="m15 8.4l2.4 0.8 3.2-7.3-5.6-1.9z"/>
		<path id="Layer" class="s0" d="m18.3 11.7l2.5 0.9 7.2-3.1-5.5-2z"/>
		<path id="Layer" class="s0" d="m30 15h-8.4l-0.8-2.4 7.2-3.2z"/>
		<path id="Layer" class="s0" d="m15 15h-6.6l0.8-2.4 2.5-0.9 0.9-2.5 2.4-0.8z"/>
		<path id="Layer" class="s0" d="m12.6 9.2l-0.9 2.5-4.2-4.2 1.9-5.6z"/>
		<path id="Layer" class="s0" d="m15 8.4l-2.4 0.8-3.2-7.3 5.6-1.9z"/>
		<path id="Layer" class="s0" d="m11.7 11.7l-2.5 0.9-7.2-3.1 5.5-2z"/>
		<path id="Layer" class="s0" d="m0 15h8.4l0.8-2.4-7.3-3.1z"/>
		<path id="Layer" class="s0" d="m15 15h-6.6l0.8 2.4 2.5 0.9 0.9 2.5 2.4 0.8z"/>
		<path id="Layer" class="s0" d="m12.6 20.8l-0.9-2.5-4.2 4.2 1.9 5.5z"/>
		<path id="Layer" class="s0" d="m15 21.6l-2.4-0.8-3.2 7.2 5.6 2z"/>
		<path id="Layer" class="s0" d="m11.7 18.3l-2.5-0.9-7.2 3.1 5.5 2z"/>
		<path id="Layer" class="s0" d="m0 15h8.4l0.8 2.4-7.3 3.1z"/>
		<path id="Layer" class="s0" d="m15 15h6.6l-0.8 2.4-2.5 0.9-0.9 2.5-2.4 0.8z"/>
		<path id="Layer" class="s0" d="m17.4 20.8l0.9-2.5 4.2 4.2-1.9 5.6z"/>
		<path id="Layer" class="s0" d="m15 21.6l2.4-0.8 3.2 7.3-5.6 1.9z"/>
		<path id="Layer" class="s0" d="m18.3 18.3l2.5-0.9 7.2 3.1-5.5 2z"/>
		<path id="Layer" class="s0" d="m30 15h-8.4l-0.8 2.4 7.2 3.2z"/>
		<path id="Layer" class="s1" d="m15 15h6.6l-0.8-2.4-2.5-0.9-0.9-2.5-2.4-0.8z"/>
		<path id="Layer" class="s2" d="m17.4 9.2l0.9 2.5 4.2-4.2-1.9-5.6z"/>
		<path id="Layer" class="s3" d="m15 8.4l2.4 0.8 3.2-7.3-5.6-1.9z"/>
		<path id="Layer" class="s4" d="m18.3 11.7l2.5 0.9 7.2-3.1-5.5-2z"/>
		<path id="Layer" class="s5" d="m30 15h-8.4l-0.8-2.4 7.2-3.1z"/>
		<path id="Layer" class="s6" d="m15 15h-6.6l0.8-2.4 2.5-0.9 0.9-2.5 2.4-0.8z"/>
		<path id="Layer" class="s7" d="m12.6 9.2l-0.9 2.5-4.2-4.2 1.9-5.6z"/>
		<path id="Layer" class="s8" d="m15 8.4l-2.4 0.8-3.2-7.3 5.6-1.9z"/>
		<path id="Layer" class="s9" d="m11.7 11.7l-2.5 0.9-7.2-3.1 5.5-2z"/>
		<path id="Layer" class="s10" d="m0 15h8.4l0.8-2.4-7.3-3.1z"/>
		<path id="Layer" class="s11" d="m15 15h-6.6l0.8 2.4 2.5 0.9 0.9 2.5 2.4 0.8z"/>
		<path id="Layer" class="s12" d="m12.6 20.8l-0.9-2.5-4.2 4.2 1.9 5.5z"/>
		<path id="Layer" class="s13" d="m15 21.6l-2.4-0.8-3.2 7.2 5.6 2z"/>
		<path id="Layer" class="s14" d="m11.7 18.3l-2.5-0.9-7.2 3.1 5.5 2z"/>
		<path id="Layer" class="s15" d="m0 15h8.4l0.8 2.4-7.3 3.1z"/>
		<path id="Layer" class="s16" d="m15 15h6.6l-0.8 2.4-2.5 0.9-0.9 2.5-2.4 0.8z"/>
		<path id="Layer" class="s17" d="m17.4 20.8l0.9-2.5 4.2 4.2-1.9 5.6z"/>
		<path id="Layer" class="s18" d="m15 21.6l2.4-0.8 3.2 7.2-5.6 2z"/>
		<path id="Layer" class="s19" d="m18.3 18.3l2.5-0.9 7.2 3.1-5.5 2z"/>
		<path id="Layer" class="s20" d="m30 15h-8.4l-0.8 2.4 7.2 3.1z"/>
	</g>
</svg>