<svg width="17" height="16" viewBox="0 0 17 16" fill="none" xmlns="http://www.w3.org/2000/svg">
<path d="M8.01426 8.00026L11.5343 8.00026L11.0863 6.70425L9.77426 6.24025L9.31026 4.92825L8.01426 4.48025L8.01426 8.00026Z" fill="#FF00E5"/>
<path d="M9.31026 4.92825L9.77426 6.24025L12.0141 3.9998L10.9741 1.03979L9.31026 4.92825Z" fill="#FF00E5"/>
<path d="M8.01426 4.48025L9.31026 4.92825L10.9741 1.03979L8.01406 0L8.01426 4.48025Z" fill="#FF00E5"/>
<path d="M9.77426 6.24025L11.0863 6.70425L14.9733 5.03981L12.0141 3.9998L9.77426 6.24025Z" fill="#FF00E5"/>
<path d="M16.0139 8.00039L11.5343 8.00026L11.0863 6.70425L14.9733 5.03981L16.0139 8.00039Z" fill="#FF00E5"/>
<path d="M8.01426 8.00026L4.49425 8.00026L4.94225 6.70425L6.25425 6.24025L6.71826 4.92825L8.01426 4.48025L8.01426 8.00026Z" fill="#FF00E5"/>
<path d="M6.71826 4.92825L6.25425 6.24025L4.01445 3.9998L5.05445 1.03979L6.71826 4.92825Z" fill="#FF00E5"/>
<path d="M8.01426 4.48025L6.71826 4.92825L5.05445 1.03979L8.01406 0L8.01426 4.48025Z" fill="#FF00E5"/>
<path d="M6.25425 6.24025L4.94225 6.70425L1.05522 5.03981L4.01445 3.9998L6.25425 6.24025Z" fill="#FF00E5"/>
<path d="M0.0146484 8.00039L4.49425 8.00026L4.94225 6.70425L1.05522 5.03981L0.0146484 8.00039Z" fill="#FF00E5"/>
<path d="M8.01426 8.00026L4.49425 8.00026L4.94225 9.29575L6.25425 9.75975L6.71826 11.0717L8.01426 11.5197L8.01426 8.00026Z" fill="#FF00E5"/>
<path d="M6.71826 11.0717L6.25425 9.75975L4.01445 11.9994L5.05445 14.9594L6.71826 11.0717Z" fill="#FF00E5"/>
<path d="M8.01426 11.5197L6.71826 11.0717L5.05445 14.9594L8.01446 16L8.01426 11.5197Z" fill="#FF00E5"/>
<path d="M6.25425 9.75975L4.94225 9.29575L1.05522 10.9594L4.01445 11.9994L6.25425 9.75975Z" fill="#FF00E5"/>
<path d="M0.0146484 8.00039L4.49425 8.00026L4.94225 9.29575L1.05522 10.9594L0.0146484 8.00039Z" fill="#FF00E5"/>
<path d="M8.01426 8.00026L11.5343 8.00026L11.0863 9.29575L9.77426 9.75975L9.31026 11.0717L8.01426 11.5197L8.01426 8.00026Z" fill="#FF00E5"/>
<path d="M9.31026 11.0717L9.77426 9.75975L12.0141 12.0002L10.9741 14.9602L9.31026 11.0717Z" fill="#FF00E5"/>
<path d="M8.01426 11.5197L9.31026 11.0717L10.9741 14.9602L8.01446 16L8.01426 11.5197Z" fill="#FF00E5"/>
<path d="M9.77426 9.75975L11.0863 9.29575L14.9733 10.9602L12.0141 12.0002L9.77426 9.75975Z" fill="#FF00E5"/>
<path d="M16.0139 8.00039L11.5343 8.00026L11.0863 9.29575L14.9733 10.9602L16.0139 8.00039Z" fill="#FF00E5"/>
<path d="M8.01465 7.99999L11.5347 7.99999L11.0867 6.70398L9.77465 6.23998L9.31065 4.92798L8.01465 4.47998L8.01465 7.99999Z" fill="url(#paint0_linear_574_16711)"/>
<path d="M9.31064 4.92756L9.77464 6.23956L12.0146 3.99956L10.9746 1.03955L9.31064 4.92756Z" fill="url(#paint1_linear_574_16711)"/>
<path d="M8.01464 4.48001L9.31064 4.92801L10.9746 1.04L8.01464 0V4.48001Z" fill="url(#paint2_linear_574_16711)"/>
<path d="M9.7746 6.24L11.0866 6.704L14.9746 5.04L12.0146 4L9.7746 6.24Z" fill="url(#paint3_linear_574_16711)"/>
<path d="M16.0146 8.00005L11.5346 8.00005L11.0866 6.70404L14.9746 5.04004L16.0146 8.00005Z" fill="url(#paint4_linear_574_16711)"/>
<path d="M8.01465 7.99999L4.49464 7.99999L4.94264 6.70398L6.25465 6.23998L6.71865 4.92798L8.01465 4.47998L8.01465 7.99999Z" fill="url(#paint5_linear_574_16711)"/>
<path d="M6.71865 4.92756L6.25465 6.23956L4.01465 3.99956L5.05465 1.03955L6.71865 4.92756Z" fill="url(#paint6_linear_574_16711)"/>
<path d="M8.01466 4.48001L6.71865 4.92801L5.05465 1.04L8.01466 0V4.48001Z" fill="url(#paint7_linear_574_16711)"/>
<path d="M6.25567 6.24L4.94367 6.704L1.05566 5.04L4.01567 4L6.25567 6.24Z" fill="url(#paint8_linear_574_16711)"/>
<path d="M0.0146484 8.00005L4.49466 8.00005L4.94266 6.70404L1.05465 5.04004L0.0146484 8.00005Z" fill="url(#paint9_linear_574_16711)"/>
<path d="M8.01465 8.00001L4.49464 8.00001L4.94264 9.29602L6.25465 9.76002L6.71865 11.072L8.01465 11.52L8.01465 8.00001Z" fill="url(#paint10_linear_574_16711)"/>
<path d="M6.71865 11.071L6.25465 9.75897L4.01465 11.999L5.05465 14.959L6.71865 11.071Z" fill="url(#paint11_linear_574_16711)"/>
<path d="M8.01466 11.52L6.71865 11.072L5.05465 14.96L8.01466 16V11.52Z" fill="url(#paint12_linear_574_16711)"/>
<path d="M6.25567 9.75951L4.94367 9.29551L1.05566 10.9595L4.01567 11.9995L6.25567 9.75951Z" fill="url(#paint13_linear_574_16711)"/>
<path d="M0.0146484 7.99995L4.49466 7.99995L4.94266 9.29596L1.05465 10.96L0.0146484 7.99995Z" fill="url(#paint14_linear_574_16711)"/>
<path d="M8.01465 8.00001L11.5347 8.00001L11.0867 9.29602L9.77465 9.76002L9.31065 11.072L8.01465 11.52L8.01465 8.00001Z" fill="url(#paint15_linear_574_16711)"/>
<path d="M9.31064 11.0724L9.77464 9.76044L12.0146 12.0004L10.9746 14.9604L9.31064 11.0724Z" fill="url(#paint16_linear_574_16711)"/>
<path d="M8.01464 11.52L9.31064 11.072L10.9746 14.96L8.01464 16V11.52Z" fill="url(#paint17_linear_574_16711)"/>
<path d="M9.7746 9.76L11.0866 9.296L14.9746 10.96L12.0146 12L9.7746 9.76Z" fill="url(#paint18_linear_574_16711)"/>
<path d="M16.0146 7.99995L11.5346 7.99995L11.0866 9.29596L14.9746 10.96L16.0146 7.99995Z" fill="url(#paint19_linear_574_16711)"/>
<defs>
<linearGradient id="paint0_linear_574_16711" x1="9.77465" y1="6.23998" x2="8.01465" y2="7.99999" gradientUnits="userSpaceOnUse">
<stop stop-color="white" stop-opacity="0.5"/>
<stop offset="1" stop-color="white" stop-opacity="0.32"/>
</linearGradient>
<linearGradient id="paint1_linear_574_16711" x1="10.6626" y1="1.03955" x2="10.6626" y2="6.23956" gradientUnits="userSpaceOnUse">
<stop stop-color="white" stop-opacity="0.5"/>
<stop offset="1" stop-color="white" stop-opacity="0.15"/>
</linearGradient>
<linearGradient id="paint2_linear_574_16711" x1="10.9746" y1="1.04" x2="9.31064" y2="4.92801" gradientUnits="userSpaceOnUse">
<stop stop-color="white" stop-opacity="0.5"/>
<stop offset="1" stop-color="white" stop-opacity="0.32"/>
</linearGradient>
<linearGradient id="paint3_linear_574_16711" x1="12.0146" y1="4" x2="11.0866" y2="6.70401" gradientUnits="userSpaceOnUse">
<stop stop-color="white" stop-opacity="0.5"/>
<stop offset="1" stop-color="white" stop-opacity="0.32"/>
</linearGradient>
<linearGradient id="paint4_linear_574_16711" x1="13.5506" y1="5.04004" x2="13.5506" y2="8.00005" gradientUnits="userSpaceOnUse">
<stop stop-color="white" stop-opacity="0.5"/>
<stop offset="1" stop-color="white" stop-opacity="0.32"/>
</linearGradient>
<linearGradient id="paint5_linear_574_16711" x1="8.01465" y1="4.47998" x2="4.49464" y2="7.99999" gradientUnits="userSpaceOnUse">
<stop stop-color="white" stop-opacity="0.5"/>
<stop offset="1" stop-color="white" stop-opacity="0.15"/>
</linearGradient>
<linearGradient id="paint6_linear_574_16711" x1="5.36665" y1="1.03955" x2="5.87065" y2="8.52757" gradientUnits="userSpaceOnUse">
<stop stop-color="white" stop-opacity="0.5"/>
<stop offset="1" stop-color="white" stop-opacity="0.15"/>
</linearGradient>
<linearGradient id="paint7_linear_574_16711" x1="5.05465" y1="1.04" x2="8.60666" y2="6.64001" gradientUnits="userSpaceOnUse">
<stop stop-color="white" stop-opacity="0.5"/>
<stop offset="1" stop-color="white" stop-opacity="0.32"/>
</linearGradient>
<linearGradient id="paint8_linear_574_16711" x1="4.01567" y1="4" x2="3.43967" y2="6.68801" gradientUnits="userSpaceOnUse">
<stop stop-color="white" stop-opacity="0.5"/>
<stop offset="1" stop-color="white" stop-opacity="0.32"/>
</linearGradient>
<linearGradient id="paint9_linear_574_16711" x1="4.55866" y1="8.00004" x2="1.16665" y2="5.02404" gradientUnits="userSpaceOnUse">
<stop stop-color="white" stop-opacity="0.5"/>
<stop offset="1" stop-color="white" stop-opacity="0.32"/>
</linearGradient>
<linearGradient id="paint10_linear_574_16711" x1="6.25465" y1="9.76002" x2="8.01465" y2="8.00001" gradientUnits="userSpaceOnUse">
<stop stop-color="white" stop-opacity="0.15"/>
<stop offset="1" stop-color="white" stop-opacity="0.32"/>
</linearGradient>
<linearGradient id="paint11_linear_574_16711" x1="5.63065" y1="13.583" x2="4.41465" y2="9.59897" gradientUnits="userSpaceOnUse">
<stop stop-color="white" stop-opacity="0.5"/>
<stop offset="1" stop-color="white" stop-opacity="0.15"/>
</linearGradient>
<linearGradient id="paint12_linear_574_16711" x1="6.39865" y1="15.424" x2="7.31065" y2="9.51999" gradientUnits="userSpaceOnUse">
<stop stop-color="white" stop-opacity="0.5"/>
<stop offset="1" stop-color="white" stop-opacity="0.15"/>
</linearGradient>
<linearGradient id="paint13_linear_574_16711" x1="4.01567" y1="11.9995" x2="4.94367" y2="9.29551" gradientUnits="userSpaceOnUse">
<stop stop-color="white" stop-opacity="0.32"/>
<stop offset="1" stop-color="white" stop-opacity="0.15"/>
</linearGradient>
<linearGradient id="paint14_linear_574_16711" x1="1.93465" y1="13.232" x2="1.26265" y2="7.99996" gradientUnits="userSpaceOnUse">
<stop stop-color="white" stop-opacity="0.5"/>
<stop offset="1" stop-color="white" stop-opacity="0.32"/>
</linearGradient>
<linearGradient id="paint15_linear_574_16711" x1="8.01465" y1="11.52" x2="11.5347" y2="8.00001" gradientUnits="userSpaceOnUse">
<stop stop-color="white" stop-opacity="0.15"/>
<stop offset="1" stop-color="white" stop-opacity="0.5"/>
</linearGradient>
<linearGradient id="paint16_linear_574_16711" x1="11.4066" y1="15.9845" x2="9.53464" y2="10.3524" gradientUnits="userSpaceOnUse">
<stop stop-color="white" stop-opacity="0.5"/>
<stop offset="1" stop-color="white" stop-opacity="0.15"/>
</linearGradient>
<linearGradient id="paint17_linear_574_16711" x1="10.9746" y1="14.96" x2="8.01464" y2="11.52" gradientUnits="userSpaceOnUse">
<stop stop-color="white" stop-opacity="0.5"/>
<stop offset="1" stop-color="white" stop-opacity="0.25"/>
</linearGradient>
<linearGradient id="paint18_linear_574_16711" x1="12.0146" y1="12" x2="11.0866" y2="9.31199" gradientUnits="userSpaceOnUse">
<stop stop-color="white" stop-opacity="0.5"/>
<stop offset="1" stop-color="white" stop-opacity="0.15"/>
</linearGradient>
<linearGradient id="paint19_linear_574_16711" x1="11.5506" y1="7.99996" x2="14.9906" y2="10.944" gradientUnits="userSpaceOnUse">
<stop stop-color="white" stop-opacity="0.15"/>
<stop offset="1" stop-color="white" stop-opacity="0.32"/>
</linearGradient>
</defs>
</svg>
