<svg version="1.2" xmlns="http://www.w3.org/2000/svg" viewBox="0 0 30 30" width="30" height="30">
	<title>rare-svg</title>
	<defs>
		<linearGradient id="g1" x2="1" gradientUnits="userSpaceOnUse" gradientTransform="matrix(-3.3,3.3,-4.683,-4.683,18.304,11.699)">
			<stop offset="0" stop-color="#ffffff" stop-opacity=".5"/>
			<stop offset="1" stop-color="#ffffff" stop-opacity=".32"/>
		</linearGradient>
		<linearGradient id="g2" x2="1" gradientUnits="userSpaceOnUse" gradientTransform="matrix(2.322,7.699,-7.331,2.211,15.007,0)">
			<stop offset="0" stop-color="#ffffff" stop-opacity=".5"/>
			<stop offset="1" stop-color="#ffffff" stop-opacity=".35"/>
		</linearGradient>
		<linearGradient id="g3" x2="1" gradientUnits="userSpaceOnUse" gradientTransform="matrix(12.3,12.3,-8.383,8.383,17.706,0)">
			<stop offset="0" stop-color="#ffffff" stop-opacity=".5"/>
			<stop offset="1" stop-color="#ffffff" stop-opacity=".15"/>
		</linearGradient>
		<clipPath clipPathUnits="userSpaceOnUse" id="cp1">
			<path d="m25.63 4.38l-4.38-4.38-3.54 8.4 3.9 3.9 8.4-3.54z"/>
		</clipPath>
		<linearGradient id="g4" x2="1" gradientUnits="userSpaceOnUse" gradientTransform="matrix(5.412,5.412,-3.707,3.707,17.706,6.888)">
			<stop offset="0" stop-color="#ffffff" stop-opacity=".75"/>
			<stop offset="1" stop-color="#ffffff" stop-opacity="0"/>
		</linearGradient>
		<linearGradient id="g5" x2="1" gradientUnits="userSpaceOnUse" gradientTransform="matrix(-7.699,-2.322,2.211,-7.331,29.998,14.999)">
			<stop offset="0" stop-color="#ffffff" stop-opacity=".35"/>
			<stop offset="1" stop-color="#ffffff" stop-opacity=".25"/>
		</linearGradient>
		<linearGradient id="g6" x2="1" gradientUnits="userSpaceOnUse" gradientTransform="matrix(-6.599,6.599,-4.65,-4.65,15.011,8.399)">
			<stop offset="0" stop-color="#ffffff" stop-opacity=".5"/>
			<stop offset="1" stop-color="#ffffff" stop-opacity=".15"/>
		</linearGradient>
		<linearGradient id="g7" x2="1" gradientUnits="userSpaceOnUse" gradientTransform="matrix(-2.322,7.699,-7.331,-2.211,15.007,0)">
			<stop offset="0" stop-color="#ffffff" stop-opacity=".5"/>
			<stop offset="1" stop-color="#ffffff" stop-opacity=".35"/>
		</linearGradient>
		<linearGradient id="g8" x2="1" gradientUnits="userSpaceOnUse" gradientTransform="matrix(-12.3,12.3,-8.382,-8.382,12.298,0)">
			<stop offset="0" stop-color="#ffffff" stop-opacity=".5"/>
			<stop offset="1" stop-color="#ffffff" stop-opacity=".15"/>
		</linearGradient>
		<clipPath clipPathUnits="userSpaceOnUse" id="cp2">
			<path d="m4.38 4.38l4.38-4.38 3.54 8.4-3.9 3.9-8.4-3.54z"/>
		</clipPath>
		<linearGradient id="g9" x2="1" gradientUnits="userSpaceOnUse" gradientTransform="matrix(-5.412,5.412,-3.708,-3.708,12.298,6.888)">
			<stop offset="0" stop-color="#ffffff" stop-opacity=".75"/>
			<stop offset="1" stop-color="#ffffff" stop-opacity="0"/>
		</linearGradient>
		<linearGradient id="g10" x2="1" gradientUnits="userSpaceOnUse" gradientTransform="matrix(-7.699,2.322,-2.211,-7.331,8.404,14.999)">
			<stop offset="0" stop-color="#ffffff" stop-opacity=".5"/>
			<stop offset="1" stop-color="#ffffff" stop-opacity=".15"/>
		</linearGradient>
		<linearGradient id="g11" x2="1" gradientUnits="userSpaceOnUse" gradientTransform="matrix(-3.3,3.3,-4.683,-4.683,15.004,14.999)">
			<stop offset="0" stop-color="#ffffff" stop-opacity=".32"/>
			<stop offset="1" stop-color="#ffffff" stop-opacity=".15"/>
		</linearGradient>
		<linearGradient id="g12" x2="1" gradientUnits="userSpaceOnUse" gradientTransform="matrix(-2.322,-7.699,7.331,-2.211,15.007,30)">
			<stop offset="0" stop-color="#ffffff" stop-opacity=".5"/>
			<stop offset="1" stop-color="#ffffff" stop-opacity=".35"/>
		</linearGradient>
		<linearGradient id="g13" x2="1" gradientUnits="userSpaceOnUse" gradientTransform="matrix(-0.48,-12.27,12.242,-0.479,8.878,30)">
			<stop offset="0" stop-color="#ffffff" stop-opacity=".5"/>
			<stop offset="1" stop-color="#ffffff" stop-opacity=".15"/>
		</linearGradient>
		<clipPath clipPathUnits="userSpaceOnUse" id="cp3">
			<path d="m4.38 25.62l4.38 4.38 3.54-8.4-3.9-3.9-8.4 3.54z"/>
		</clipPath>
		<linearGradient id="g14" x2="1" gradientUnits="userSpaceOnUse" gradientTransform="matrix(-5.412,-5.412,3.708,-3.708,12.298,23.112)">
			<stop offset="0" stop-color="#ffffff" stop-opacity=".75"/>
			<stop offset="1" stop-color="#ffffff" stop-opacity="0"/>
		</linearGradient>
		<linearGradient id="g15" x2="1" gradientUnits="userSpaceOnUse" gradientTransform="matrix(-7.699,-2.322,2.211,-7.331,8.404,15.001)">
			<stop offset="0" stop-color="#ffffff" stop-opacity=".5"/>
			<stop offset="1" stop-color="#ffffff" stop-opacity=".15"/>
		</linearGradient>
		<linearGradient id="g16" x2="1" gradientUnits="userSpaceOnUse" gradientTransform="matrix(-6.599,6.599,-4.65,-4.65,21.607,14.998)">
			<stop offset="0" stop-color="#ffffff" stop-opacity=".5"/>
			<stop offset="1" stop-color="#ffffff" stop-opacity=".15"/>
		</linearGradient>
		<linearGradient id="g17" x2="1" gradientUnits="userSpaceOnUse" gradientTransform="matrix(2.322,-7.699,7.331,2.211,15.007,30)">
			<stop offset="0" stop-color="#ffffff" stop-opacity=".5"/>
			<stop offset="1" stop-color="#ffffff" stop-opacity=".35"/>
		</linearGradient>
		<linearGradient id="g18" x2="1" gradientUnits="userSpaceOnUse" gradientTransform="matrix(12.3,-12.3,8.383,8.383,17.706,30)">
			<stop offset="0" stop-color="#ffffff" stop-opacity=".5"/>
			<stop offset="1" stop-color="#ffffff" stop-opacity=".15"/>
		</linearGradient>
		<clipPath clipPathUnits="userSpaceOnUse" id="cp4">
			<path d="m25.63 25.62l-4.38 4.38-3.54-8.4 3.9-3.9 8.4 3.54z"/>
		</clipPath>
		<linearGradient id="g19" x2="1" gradientUnits="userSpaceOnUse" gradientTransform="matrix(5.412,-5.412,3.688,3.688,17.706,23.112)">
			<stop offset="0" stop-color="#ffffff" stop-opacity=".75"/>
			<stop offset="1" stop-color="#ffffff" stop-opacity="0"/>
		</linearGradient>
		<linearGradient id="g20" x2="1" gradientUnits="userSpaceOnUse" gradientTransform="matrix(-7.699,2.322,-2.211,-7.331,29.998,15)">
			<stop offset="0" stop-color="#ffffff" stop-opacity=".35"/>
			<stop offset="1" stop-color="#ffffff" stop-opacity=".25"/>
		</linearGradient>
	</defs>
	<style>
		.s0 { fill: #333333 } 
		.s1 { fill: url(#g1) } 
		.s2 { fill: url(#g2) } 
		.s3 { fill: url(#g3) } 
		.s4 { fill: url(#g4) } 
		.s5 { fill: url(#g5) } 
		.s6 { fill: url(#g6) } 
		.s7 { fill: url(#g7) } 
		.s8 { fill: url(#g8) } 
		.s9 { fill: url(#g9) } 
		.s10 { fill: url(#g10) } 
		.s11 { fill: url(#g11) } 
		.s12 { fill: url(#g12) } 
		.s13 { fill: url(#g13) } 
		.s14 { fill: url(#g14) } 
		.s15 { fill: url(#g15) } 
		.s16 { fill: url(#g16) } 
		.s17 { fill: url(#g17) } 
		.s18 { fill: url(#g18) } 
		.s19 { fill: url(#g19) } 
		.s20 { fill: url(#g20) } 
	</style>
	<g id="Layer">
		<path id="Layer" class="s0" d="m15 15h6.6v-2.7l-3.9-3.9h-2.7z"/>
		<path id="Layer" class="s0" d="m15 0v8.4h2.7l3.5-8.4z"/>
		<path id="Layer" class="s0" d="m21.2 0l-3.5 8.4 3.9 3.9 8.4-3.5z"/>
		<path id="Layer" class="s0" d="m30 8.8v6.2h-8.4v-2.7z"/>
		<path id="Layer" class="s0" d="m15 15v-6.6h-2.7l-3.9 3.9v2.7z"/>
		<path id="Layer" class="s0" d="m15 0v8.4h-2.7l-3.5-8.4z"/>
		<path id="Layer" class="s0" d="m8.8 0l3.5 8.4-3.9 3.9-8.4-3.5z"/>
		<path id="Layer" class="s0" d="m0 8.8v6.2h8.4v-2.7z"/>
		<path id="Layer" class="s0" d="m15 15h-6.6v2.7l3.9 3.9h2.7z"/>
		<path id="Layer" class="s0" d="m15 30v-8.4h-2.7l-3.5 8.4z"/>
		<path id="Layer" class="s0" d="m8.8 30l3.5-8.4-3.9-3.9-8.4 3.5z"/>
		<path id="Layer" class="s0" d="m0 21.2v-6.2h8.4v2.7z"/>
		<path id="Layer" class="s0" d="m15 15v6.6h2.7l3.9-3.9v-2.7z"/>
		<path id="Layer" class="s0" d="m15 30v-8.4h2.7l3.5 8.4z"/>
		<path id="Layer" class="s0" d="m21.2 30l-3.5-8.4 3.9-3.9 8.4 3.5z"/>
		<path id="Layer" class="s0" d="m30 21.2v-6.2h-8.4v2.7z"/>
		<path id="Layer" class="s1" d="m15 15h6.6v-2.7l-3.9-3.9h-2.7z"/>
		<path id="Layer" fill-rule="evenodd" class="s2" d="m15 0v8.4h2.7l3.5-8.4z"/>
		<path id="Layer" fill-rule="evenodd" class="s3" d="m25.6 4.4l-4.4-4.4-3.5 8.4 3.9 3.9 8.4-3.5z"/>
		<g id="Clip-Path" clip-path="url(#cp1)">
			<path id="Layer" fill-rule="evenodd" class="s4" d="m21.2 0v-0.1l0.1 0.1 4.4 4.3 4.3 4.4 0.1 0.1h-0.1l-8.4 3.6h-0.1v-0.1l-3.8-3.8v-0.1h-0.1 0.1l3.5-8.4zm0.5 12.3q0 0 0 0zm8.3-3.5l-4.4-4.4-4.3-4.3-3.5 8.3 3.9 3.9zm-12.2-0.4zm3.8 4h0.1v-0.1zm4-7.9z"/>
		</g>
		<path id="Layer" fill-rule="evenodd" class="s5" d="m30 8.8v6.2h-8.4v-2.7z"/>
		<path id="Layer" class="s6" d="m15 15v-6.6h-2.7l-3.9 3.9v2.7z"/>
		<path id="Layer" fill-rule="evenodd" class="s7" d="m15 0v8.4h-2.7l-3.5-8.4z"/>
		<path id="Layer" fill-rule="evenodd" class="s8" d="m4.4 4.4l4.4-4.4 3.5 8.4-3.9 3.9-8.4-3.5z"/>
		<g id="Clip-Path" clip-path="url(#cp2)">
			<path id="Layer" fill-rule="evenodd" class="s9" d="m8.8-0.1v0.1l3.6 8.4v0.1h-0.1l-3.8 3.8v0.1h-0.1l-8.4-3.6h-0.1l0.1-0.1 4.3-4.4 4.4-4.3zm0 0.2l-4.3 4.3-4.4 4.3 8.3 3.5 3.9-3.9zm3.5 8.3zm-3.9 3.9zm-3.9-7.8z"/>
		</g>
		<path id="Layer" fill-rule="evenodd" class="s10" d="m0 8.8v6.2h8.4v-2.7z"/>
		<path id="Layer" class="s11" d="m15 15h-6.6v2.7l3.9 3.9h2.7z"/>
		<path id="Layer" fill-rule="evenodd" class="s12" d="m15 30v-8.4h-2.7l-3.5 8.4z"/>
		<path id="Layer" fill-rule="evenodd" class="s13" d="m4.4 25.6l4.4 4.4 3.5-8.4-3.9-3.9-8.4 3.5z"/>
		<g id="Clip-Path" clip-path="url(#cp3)">
			<path id="Layer" fill-rule="evenodd" class="s14" d="m8.8 30.1l-0.1-0.1h0.1-0.1l-4.4-4.3-4.3-4.4-0.1-0.1h0.1l8.4-3.6h0.1v0.1l3.8 3.8h0.1v0.1l-3.6 8.4zm-8.7-8.8l4.4 4.3 4.3 4.3 3.5-8.3-3.9-3.8zm12.2 0.4v-0.1 0.1zm-3.9-4h-0.1l0.1 0.1zm-4.1 7.9l0.1-0.1z"/>
		</g>
		<path id="Layer" fill-rule="evenodd" class="s15" d="m0 21.2v-6.2h8.4v2.7z"/>
		<path id="Layer" class="s16" d="m15 15v6.6h2.7l3.9-3.9v-2.7z"/>
		<path id="Layer" fill-rule="evenodd" class="s17" d="m15 30v-8.4h2.7l3.5 8.4z"/>
		<path id="Layer" fill-rule="evenodd" class="s18" d="m25.6 25.6l-4.4 4.4-3.5-8.4 3.9-3.9 8.4 3.5z"/>
		<g id="Clip-Path" clip-path="url(#cp4)">
			<path id="Layer" fill-rule="evenodd" class="s19" d="m21.2 30.1v-0.1l-3.5-8.4h-0.1l4-3.9v-0.1l8.4 3.6h0.1zm-3.4-8.5l3.5 8.3 8.6-8.6-8.3-3.5zm7.9 4l-0.1-0.1z"/>
		</g>
		<path id="Layer" fill-rule="evenodd" class="s20" d="m30 21.2v-6.2h-8.4v2.7z"/>
	</g>
</svg>