<svg version="1.2" xmlns="http://www.w3.org/2000/svg" viewBox="0 0 30 30" width="30" height="30">
	<title>uncommon-svg</title>
	<defs>
		<linearGradient id="g1" x2="1" gradientUnits="userSpaceOnUse" gradientTransform="matrix(-6.6,6.6,-4.95,-4.95,14.995,8.4)">
			<stop offset="0" stop-color="#ffffff" stop-opacity=".5"/>
			<stop offset="1" stop-color="#ffffff" stop-opacity=".15"/>
		</linearGradient>
		<linearGradient id="g2" x2="1" gradientUnits="userSpaceOnUse" gradientTransform="matrix(-8.754,-4.09,4.051,-8.67,12.513,9.21)">
			<stop offset="0" stop-color="#ffffff" stop-opacity=".5"/>
			<stop offset="1" stop-color="#ffffff" stop-opacity=".15"/>
		</linearGradient>
		<clipPath clipPathUnits="userSpaceOnUse" id="cp1">
			<path d="m15 0l-10.62 4.38 5.7 5.7 4.92-1.68z"/>
		</clipPath>
		<linearGradient id="g3" x2="1" gradientUnits="userSpaceOnUse" gradientTransform="matrix(-11.004,-3.009,2.934,-10.728,14.948,8.37)">
			<stop offset="0" stop-color="#ffffff" stop-opacity=".75"/>
			<stop offset="1" stop-color="#ffffff" stop-opacity="0"/>
		</linearGradient>
		<linearGradient id="g4" x2="1" gradientUnits="userSpaceOnUse" gradientTransform="matrix(-8.076,-1.417,1.75,-9.979,10.045,10.326)">
			<stop offset="0" stop-color="#ffffff" stop-opacity=".5"/>
			<stop offset="1" stop-color="#ffffff" stop-opacity=".15"/>
		</linearGradient>
		<linearGradient id="g5" x2="1" gradientUnits="userSpaceOnUse" gradientTransform="matrix(-3.3,3.3,-4.4,-4.4,14.998,14.999)">
			<stop offset="0" stop-color="#ffffff" stop-opacity=".32"/>
			<stop offset="1" stop-color="#ffffff" stop-opacity=".15"/>
		</linearGradient>
		<linearGradient id="g6" x2="1" gradientUnits="userSpaceOnUse" gradientTransform="matrix(-6.213,5.285,-5.37,-6.313,15.005,21.689)">
			<stop offset="0" stop-color="#ffffff" stop-opacity=".5"/>
			<stop offset="1" stop-color="#ffffff" stop-opacity=".15"/>
		</linearGradient>
		<linearGradient id="g7" x2="1" gradientUnits="userSpaceOnUse" gradientTransform="matrix(-5.372,6.228,-6.332,-5.463,8.335,15)">
			<stop offset="0" stop-color="#ffffff" stop-opacity=".5"/>
			<stop offset="1" stop-color="#ffffff" stop-opacity=".15"/>
		</linearGradient>
		<clipPath clipPathUnits="userSpaceOnUse" id="cp2">
			<path d="m4.38 25.62l-4.38-10.62h8.4l1.68 4.92z"/>
		</clipPath>
		<linearGradient id="g8" x2="1" gradientUnits="userSpaceOnUse" gradientTransform="matrix(-10.261,-2.202,2.271,-10.58,10.075,18.043)">
			<stop offset="0" stop-color="#ffffff" stop-opacity=".75"/>
			<stop offset="1" stop-color="#ffffff" stop-opacity="0"/>
		</linearGradient>
		<linearGradient id="g9" x2="1" gradientUnits="userSpaceOnUse" gradientTransform="matrix(-3.3,3.3,-4.4,-4.4,18.298,11.7)">
			<stop offset="0" stop-color="#ffffff" stop-opacity=".5"/>
			<stop offset="1" stop-color="#ffffff" stop-opacity=".32"/>
		</linearGradient>
		<linearGradient id="g10" x2="1" gradientUnits="userSpaceOnUse" gradientTransform="matrix(4.86,10.08,-10.166,4.901,14.997,0)">
			<stop offset="0" stop-color="#ffffff" stop-opacity=".25"/>
			<stop offset="1" stop-color="#ffffff" stop-opacity=".35"/>
		</linearGradient>
		<linearGradient id="g11" x2="1" gradientUnits="userSpaceOnUse" gradientTransform="matrix(10.606,10.067,-9.852,10.38,19.919,4.378)">
			<stop offset="0" stop-color="#ffffff" stop-opacity=".5"/>
			<stop offset="1" stop-color="#ffffff" stop-opacity=".15"/>
		</linearGradient>
		<clipPath clipPathUnits="userSpaceOnUse" id="cp3">
			<path d="m25.62 4.38l4.38 10.62h-8.4l-1.68-4.92z"/>
		</clipPath>
		<linearGradient id="g12" x2="1" gradientUnits="userSpaceOnUse" gradientTransform="matrix(10.352,3.964,-4.029,10.52,19.919,10.326)">
			<stop offset="0" stop-color="#ffffff" stop-opacity=".75"/>
			<stop offset="1" stop-color="#ffffff" stop-opacity="0"/>
		</linearGradient>
		<linearGradient id="g13" x2="1" gradientUnits="userSpaceOnUse" gradientTransform="matrix(-6.6,6.6,-4.95,-4.95,21.605,15)">
			<stop offset="0" stop-color="#ffffff" stop-opacity=".5"/>
			<stop offset="1" stop-color="#ffffff" stop-opacity=".15"/>
		</linearGradient>
		<linearGradient id="g14" x2="1" gradientUnits="userSpaceOnUse" gradientTransform="matrix(9.767,-5.813,4.545,7.636,14.997,29.998)">
			<stop offset="0" stop-color="#ffffff" stop-opacity=".5"/>
			<stop offset="1" stop-color="#ffffff" stop-opacity=".15"/>
		</linearGradient>
		<clipPath clipPathUnits="userSpaceOnUse" id="cp4">
			<path d="m15 30l10.62-4.38-5.7-5.7-4.92 1.68z"/>
		</clipPath>
		<linearGradient id="g15" x2="1" gradientUnits="userSpaceOnUse" gradientTransform="matrix(3.967,-10.321,10.489,4.031,14.997,29.998)">
			<stop offset="0" stop-color="#ffffff" stop-opacity=".75"/>
			<stop offset="1" stop-color="#ffffff" stop-opacity="0"/>
		</linearGradient>
		<linearGradient id="g16" x2="1" gradientUnits="userSpaceOnUse" gradientTransform="matrix(-5.411,-6.178,6.286,-5.506,28.109,20.324)">
			<stop offset="0" stop-color="#ffffff" stop-opacity=".5"/>
			<stop offset="1" stop-color="#ffffff" stop-opacity=".15"/>
		</linearGradient>
	</defs>
	<style>
		.s0 { fill: #333333 } 
		.s1 { fill: url(#g1) } 
		.s2 { fill: url(#g2) } 
		.s3 { fill: url(#g3) } 
		.s4 { fill: url(#g4) } 
		.s5 { fill: url(#g5) } 
		.s6 { fill: url(#g6) } 
		.s7 { fill: url(#g7) } 
		.s8 { fill: url(#g8) } 
		.s9 { fill: url(#g9) } 
		.s10 { fill: url(#g10) } 
		.s11 { fill: url(#g11) } 
		.s12 { fill: url(#g12) } 
		.s13 { fill: url(#g13) } 
		.s14 { fill: url(#g14) } 
		.s15 { fill: url(#g15) } 
		.s16 { fill: url(#g16) } 
	</style>
	<g id="Layer">
		<path id="Layer" class="s0" d="m15 15v-6.6l-5 1.6-1.6 5z"/>
		<path id="Layer" class="s0" d="m15 0l-10.6 4.4 5.7 5.7 4.9-1.7z"/>
		<path id="Layer" class="s0" d="m4.4 4.4l-4.4 10.6h8.4l1.7-4.9z"/>
		<path id="Layer" class="s0" d="m15 15h-6.6l1.6 4.9 5 1.7z"/>
		<path id="Layer" class="s0" d="m15 30l-10.6-4.4 5.7-5.7 4.9 1.7z"/>
		<path id="Layer" class="s0" d="m4.4 25.6l-4.4-10.6h8.4l1.7 4.9z"/>
		<path id="Layer" class="s0" d="m15 15h6.6l-1.7-4.9-4.9-1.7z"/>
		<path id="Layer" class="s0" d="m15 0l10.6 4.4-5.7 5.7-4.9-1.7z"/>
		<path id="Layer" class="s0" d="m25.6 4.4l4.4 10.6h-8.4l-1.7-4.9z"/>
		<path id="Layer" class="s0" d="m15 15v6.6l5-1.7 1.6-4.9z"/>
		<path id="Layer" class="s0" d="m15 30l10.6-4.4-5.7-5.7-4.9 1.7z"/>
		<path id="Layer" class="s0" d="m25.6 25.6l4.4-10.6h-8.4l-1.7 4.9z"/>
		<path id="Layer" class="s1" d="m15 15v-6.6l-5 1.6-1.6 5z"/>
		<path id="Layer" fill-rule="evenodd" class="s2" d="m15 0l-10.6 4.4 5.7 5.7 4.9-1.7z"/>
		<g id="Clip-Path" clip-path="url(#cp1)">
			<path id="Layer" class="s3" d="m4.4 4.4v-0.1l-0.1 0.1zm10.7-4.4h-0.1zm-4.9 10.1zm5-1.7v0.1-0.1zm-10.6-3.9l10.6-4.4v-0.1l-10.6 4.4zm5.7 5.6l-5.7-5.7-0.1 0.1 5.7 5.7zm4.9-1.7l-5 1.6 0.1 0.2 4.9-1.7zm0-8.4v8.4h0.1v-8.4z"/>
		</g>
		<path id="Layer" fill-rule="evenodd" class="s4" d="m4.4 4.4l-4.4 10.6h8.4l1.7-4.9z"/>
		<path id="Layer" class="s5" d="m15 15h-6.6l1.6 4.9 5 1.7z"/>
		<path id="Layer" fill-rule="evenodd" class="s6" d="m15 30l-10.6-4.4 5.7-5.7 4.9 1.7z"/>
		<path id="Layer" fill-rule="evenodd" class="s7" d="m4.4 25.6l-4.4-10.6h8.4l1.7 4.9z"/>
		<g id="Clip-Path" clip-path="url(#cp2)">
			<path id="Layer" class="s8" d="m0 15h-0.1v-0.1h0.1zm4.4 10.7v0.1l-0.1-0.1zm4-10.6v-0.1h0.1zm1.7 5v-0.1 0.1zm-10-4.9l4.4 10.6h-0.1l-4.4-10.6zm8.3 0.1h-8.4v-0.1h8.4zm1.7 4.9l-1.7-5h0.1l1.7 4.9zm-5.7 5.7l5.7-5.7h0.1l-5.7 5.7z"/>
		</g>
		<path id="Layer" class="s9" d="m15 15h6.6l-1.7-4.9-4.9-1.7z"/>
		<path id="Layer" fill-rule="evenodd" class="s10" d="m15 0l10.6 4.4-5.7 5.7-4.9-1.7z"/>
		<path id="Layer" fill-rule="evenodd" class="s11" d="m25.6 4.4l4.4 10.6h-8.4l-1.7-4.9z"/>
		<g id="Clip-Path" clip-path="url(#cp3)">
			<path id="Layer" class="s12" d="m30 15h0.1v0.1h-0.1zm-4.4-10.7v-0.1l0.1 0.1zm-4 10.6v0.1h-0.1zm-1.7-5v0.1l-0.1-0.1h0.1zm10 4.9l-4.4-10.6h0.1l4.4 10.6zm-8.3-0.1h8.4v0.1h-8.4zm-1.7-4.9l1.7 5h-0.1l-1.7-4.9zm5.7-5.7l-5.7 5.7h-0.1l5.7-5.7z"/>
		</g>
		<path id="Layer" class="s13" d="m15 15v6.6l5-1.6 1.6-5z"/>
		<path id="Layer" fill-rule="evenodd" class="s14" d="m15 30l10.6-4.4-5.7-5.7-4.9 1.7z"/>
		<g id="Clip-Path" clip-path="url(#cp4)">
			<path id="Layer" class="s15" d="m25.6 25.6v0.1l0.1-0.1zm-10.7 4.4h0.1zm4.9-10.1zm-5 1.7v-0.1 0.1zm10.6 3.9l-10.6 4.4v0.1l10.6-4.4zm-5.7-5.6l5.7 5.7 0.1-0.1-5.7-5.7zm-4.9 1.7l5-1.6-0.1-0.2-4.9 1.7zm0 8.4v-8.4h-0.1v8.4z"/>
		</g>
		<path id="Layer" fill-rule="evenodd" class="s16" d="m25.6 25.6l4.4-10.6h-8.4l-1.7 4.9z"/>
	</g>
</svg>