<svg width="36" height="36" viewBox="0 0 36 36" fill="none" xmlns="http://www.w3.org/2000/svg">
<path d="M0.555357 14.4602C0.444207 14.8108 0.3074 15.2833 0.21875 15.6419C0.280301 15.3935 0.394633 15.1612 0.55397 14.9609C0.713307 14.7605 0.913913 14.5968 1.14215 14.481C1.59392 13.9057 2.17107 13.4413 2.82957 13.1229C3.48807 12.8046 4.21055 12.6408 4.94195 12.6441V12.6306C2.2127 11.8521 1.3658 12.7435 1.1291 13.1624C0.905051 13.5795 0.713527 14.0133 0.55625 14.4598" fill="white"/>
<path d="M3.38382 10.2946L2.98242 10.6771C3.44412 10.3009 4.20552 10.3882 5.37777 10.9529C5.63219 10.5004 5.95471 10.0897 6.33402 9.73524C5.77827 9.33294 5.21486 8.98239 4.85711 9.14709C4.33846 9.49286 3.84589 9.87625 3.38337 10.2941" fill="white"/>
<path d="M8.99261 7.15854C8.57591 7.31064 8.02105 7.5136 7.6084 7.681C7.82434 7.90842 8.0184 8.15566 8.18801 8.41944C8.81008 8.08514 9.45699 7.79929 10.123 7.56445C10.011 7.10185 9.9835 6.871 10.1261 6.8125C9.7855 6.91555 9.3292 7.04289 8.9917 7.15989" fill="white"/>
<path d="M15.7596 5.89521C15.1256 5.94651 14.2809 6.0248 13.6487 6.0986C13.3184 6.18005 13.1726 6.29706 13.0088 6.79161C13.871 6.62904 14.7413 6.51366 15.6161 6.44601C15.7458 6.26555 15.9157 6.11785 16.1125 6.01465C16.3093 5.91146 16.5275 5.85561 16.7496 5.85156L15.7596 5.89655" fill="white"/>
<path d="M22.8029 6.27196C22.2098 6.18196 21.4187 6.07037 20.8229 6.00197C20.2278 5.9317 19.627 6.07333 19.126 6.40201C20.0347 6.44864 20.9403 6.54312 21.839 6.68506C22.5107 6.39774 23.2568 6.33294 23.968 6.50012C23.6183 6.43127 23.1544 6.33047 22.8029 6.27512" fill="white"/>
<path d="M29.158 8.26743C28.7179 8.06493 28.1307 7.79943 27.6843 7.61538C26.8048 7.25361 25.8344 7.17496 24.9082 7.39038C25.6328 7.61266 26.3416 7.88327 27.03 8.20039C28.2436 8.05351 29.4702 8.33834 30.495 9.00498C30.0963 8.77683 29.5657 8.46813 29.1558 8.26743" fill="white"/>
<path d="M35.4648 14.8264C35.1674 13.9824 34.7579 13.1822 34.2471 12.4473L33.9321 12.0176C32.5173 10.2968 31.0913 9.53445 29.1621 9.46875C29.615 9.81061 30.0231 10.2079 30.3771 10.6513C33.5834 11.1013 35.7902 13.9003 35.999 17.7811C35.9724 16.7748 35.7916 15.7784 35.463 14.8269" fill="white"/>
<path d="M30.8817 26.7173C31.4944 26.3232 32.0752 25.8816 32.6187 25.3965C32.8234 25.199 33.0979 24.938 33.2937 24.731C37.2928 20.1302 35.4757 13.4909 31.1818 12.2871C31.2278 12.4963 31.2527 12.7097 31.2561 12.9239V13.0382C31.2517 13.2492 31.2266 13.4594 31.1809 13.6655C35.7745 15.7238 35.3232 23.9381 30.4492 26.9823L30.8803 26.7177" fill="white"/>
<path d="M24.8759 29.1357C25.474 28.9822 26.2682 28.7622 26.8613 28.5822C32.741 26.388 33.6788 17.4285 30.3785 15.2734C30.024 15.7056 29.6157 16.0906 29.1635 16.4191C31.9535 19.476 29.0942 28.1119 23.8535 29.3521L24.875 29.1361" fill="white"/>
<path d="M18.0329 29.851C18.5873 29.8461 19.3271 29.8385 19.8815 29.8169C24.7654 29.316 28.2412 20.4118 27.0316 17.625C26.3424 17.9232 25.6335 18.1734 24.9098 18.3738C24.8986 21.9355 20.0696 29.8938 16.6064 29.8038C17.0344 29.8191 17.605 29.8488 18.0325 29.8488" fill="white"/>
<path d="M10.9501 28.9336C11.4955 29.0641 12.2249 29.231 12.7735 29.3422C14.8111 29.4911 19.9424 22.6228 21.8374 18.9922C20.9348 19.1079 20.0268 19.176 19.1171 19.196C17.638 20.6216 13.7347 25.1054 12.9674 25.991C10.9919 28.268 10.2575 28.7 9.99023 28.6613L10.9501 28.934" fill="white"/>
<path d="M4.99655 26.3617C5.58787 26.7555 6.20416 27.1104 6.84153 27.4242L6.89375 27.4498C7.0031 26.8707 11.8595 21.1107 15.6089 19.0497C14.7346 18.9564 13.8661 18.8159 13.007 18.6289C8.52769 20.3335 3.95524 25.549 4.74229 26.1889L4.99429 26.3617" fill="white"/>
<path d="M1.75723 23.2455C1.96918 23.5285 2.25538 23.9047 2.48083 24.1734C1.47193 22.647 5.72578 18.6942 10.1272 17.7726C9.46032 17.5177 8.81349 17.2131 8.19222 16.8613C4.14222 17.2983 0.287078 20.1463 1.07998 22.1191C1.27438 22.4647 1.53448 22.9246 1.75858 23.2441" fill="white"/>
<path d="M0.000976562 17.6548V17.8474C0.0185266 18.1818 0.0459691 18.6268 0.0833191 18.9585C-0.0255809 16.7904 3.29001 15.3895 6.33426 15.489C5.95461 15.1234 5.63197 14.7029 5.37712 14.2416C2.80357 13.9135 1.39687 14.5728 0.66922 15.1825C0.246087 15.9387 0.0168115 16.788 0.0018692 17.6544" fill="white"/>
</svg>
