<svg width="123" height="123" viewBox="0 0 123 123" fill="none" xmlns="http://www.w3.org/2000/svg">
<g filter="url(#filter0_d_961_23739)">
<path d="M61.7795 57.2702L86.9371 57.2702L80.6477 76.1384L61.7795 82.4278L61.7795 57.2702Z" fill="url(#paint0_linear_961_23739)"/>
<path d="M61.7791 114.447L102.26 97.7511L80.533 76.024L61.7795 82.4278L61.7791 114.447Z" fill="url(#paint1_linear_961_23739)"/>
<path d="M102.261 97.7502L118.956 57.2693H86.9375L80.5337 76.0232L102.261 97.7502Z" fill="url(#paint2_linear_961_23739)"/>
<path d="M61.7795 57.2702L36.6218 57.2702L42.9112 38.402L61.7795 32.1125L61.7795 57.2702Z" fill="url(#paint3_linear_961_23739)"/>
<path d="M61.7799 0.0937524L21.299 16.7893L43.0261 38.5163L61.7795 32.1125L61.7799 0.0937524Z" fill="url(#paint4_linear_961_23739)"/>
<path d="M21.2983 16.7901L4.60277 57.271L36.6218 57.2702L43.0254 38.5171L21.2983 16.7901Z" fill="url(#paint5_linear_961_23739)"/>
<path d="M61.7795 57.2702L61.7795 32.1125L72.0713 32.1125L86.9371 46.9784L86.9371 57.2702L61.7795 57.2702Z" fill="url(#paint6_linear_961_23739)"/>
<path d="M61.7799 0.0937524L61.7795 32.1125L72.0713 32.1125L85.5649 0.0937565L61.7799 0.0937524Z" fill="url(#paint7_linear_961_23739)"/>
<path d="M85.5635 0.09375L72.0699 32.1125L86.9357 46.9784L118.955 33.4848L85.5635 0.09375Z" fill="url(#paint8_linear_961_23739)"/>
<path d="M86.9402 57.2719L118.959 57.2719L118.959 33.4865L86.9402 46.9801V57.2719Z" fill="url(#paint9_linear_961_23739)"/>
<path d="M61.7795 57.2702L61.7795 82.4278L51.4877 82.4278L36.6218 67.562V57.2702L61.7795 57.2702Z" fill="url(#paint10_linear_961_23739)"/>
<path d="M61.7791 114.447L61.7795 82.4278L51.4877 82.4278L37.9941 114.447L61.7791 114.447Z" fill="url(#paint11_linear_961_23739)"/>
<path d="M37.9956 114.447L51.4892 82.4277L36.6233 67.5619L4.60454 81.0555L37.9956 114.447Z" fill="url(#paint12_linear_961_23739)"/>
<path d="M36.6189 57.2684L4.6001 57.2684V81.0538L36.6189 67.5602V57.2684Z" fill="url(#paint13_linear_961_23739)"/>
</g>
<defs>
<filter id="filter0_d_961_23739" x="0.787845" y="0.09375" width="121.983" height="121.976" filterUnits="userSpaceOnUse" color-interpolation-filters="sRGB">
<feFlood flood-opacity="0" result="BackgroundImageFix"/>
<feColorMatrix in="SourceAlpha" type="matrix" values="0 0 0 0 0 0 0 0 0 0 0 0 0 0 0 0 0 0 127 0" result="hardAlpha"/>
<feOffset dy="3.81176"/>
<feGaussianBlur stdDeviation="1.90588"/>
<feComposite in2="hardAlpha" operator="out"/>
<feColorMatrix type="matrix" values="0 0 0 0 0 0 0 0 0 0 0 0 0 0 0 0 0 0 0.25 0"/>
<feBlend mode="normal" in2="BackgroundImageFix" result="effect1_dropShadow_961_23739"/>
<feBlend mode="normal" in="SourceGraphic" in2="effect1_dropShadow_961_23739" result="shape"/>
</filter>
<linearGradient id="paint0_linear_961_23739" x1="101.802" y1="17.7232" x2="19.8536" y2="97.7745" gradientUnits="userSpaceOnUse">
<stop stop-color="#00FF85"/>
<stop offset="1" stop-color="#2400FF"/>
</linearGradient>
<linearGradient id="paint1_linear_961_23739" x1="101.802" y1="17.7232" x2="19.8536" y2="97.7745" gradientUnits="userSpaceOnUse">
<stop stop-color="#00FF85"/>
<stop offset="1" stop-color="#2400FF"/>
</linearGradient>
<linearGradient id="paint2_linear_961_23739" x1="101.802" y1="17.7232" x2="19.8536" y2="97.7745" gradientUnits="userSpaceOnUse">
<stop stop-color="#00FF85"/>
<stop offset="1" stop-color="#2400FF"/>
</linearGradient>
<linearGradient id="paint3_linear_961_23739" x1="101.802" y1="17.7232" x2="19.8536" y2="97.7745" gradientUnits="userSpaceOnUse">
<stop stop-color="#00FF85"/>
<stop offset="1" stop-color="#2400FF"/>
</linearGradient>
<linearGradient id="paint4_linear_961_23739" x1="101.802" y1="17.7232" x2="19.8536" y2="97.7745" gradientUnits="userSpaceOnUse">
<stop stop-color="#00FF85"/>
<stop offset="1" stop-color="#2400FF"/>
</linearGradient>
<linearGradient id="paint5_linear_961_23739" x1="101.802" y1="17.7232" x2="19.8536" y2="97.7745" gradientUnits="userSpaceOnUse">
<stop stop-color="#00FF85"/>
<stop offset="1" stop-color="#2400FF"/>
</linearGradient>
<linearGradient id="paint6_linear_961_23739" x1="101.802" y1="17.7232" x2="19.8536" y2="97.7745" gradientUnits="userSpaceOnUse">
<stop stop-color="#00FF85"/>
<stop offset="1" stop-color="#2400FF"/>
</linearGradient>
<linearGradient id="paint7_linear_961_23739" x1="101.802" y1="17.7232" x2="19.8536" y2="97.7745" gradientUnits="userSpaceOnUse">
<stop stop-color="#00FF85"/>
<stop offset="1" stop-color="#2400FF"/>
</linearGradient>
<linearGradient id="paint8_linear_961_23739" x1="101.802" y1="17.7232" x2="19.8536" y2="97.7745" gradientUnits="userSpaceOnUse">
<stop stop-color="#00FF85"/>
<stop offset="1" stop-color="#2400FF"/>
</linearGradient>
<linearGradient id="paint9_linear_961_23739" x1="101.802" y1="17.7232" x2="19.8536" y2="97.7745" gradientUnits="userSpaceOnUse">
<stop stop-color="#00FF85"/>
<stop offset="1" stop-color="#2400FF"/>
</linearGradient>
<linearGradient id="paint10_linear_961_23739" x1="101.802" y1="17.7232" x2="19.8536" y2="97.7745" gradientUnits="userSpaceOnUse">
<stop stop-color="#00FF85"/>
<stop offset="1" stop-color="#2400FF"/>
</linearGradient>
<linearGradient id="paint11_linear_961_23739" x1="101.802" y1="17.7232" x2="19.8536" y2="97.7745" gradientUnits="userSpaceOnUse">
<stop stop-color="#00FF85"/>
<stop offset="1" stop-color="#2400FF"/>
</linearGradient>
<linearGradient id="paint12_linear_961_23739" x1="101.802" y1="17.7232" x2="19.8536" y2="97.7745" gradientUnits="userSpaceOnUse">
<stop stop-color="#00FF85"/>
<stop offset="1" stop-color="#2400FF"/>
</linearGradient>
<linearGradient id="paint13_linear_961_23739" x1="101.802" y1="17.7232" x2="19.8536" y2="97.7745" gradientUnits="userSpaceOnUse">
<stop stop-color="#00FF85"/>
<stop offset="1" stop-color="#2400FF"/>
</linearGradient>
</defs>
</svg>
